<svg width="23" height="23" viewBox="0 0 23 23" fill="none" xmlns="http://www.w3.org/2000/svg">
<path d="M11.1494 2.58626C13.6767 2.58626 15.7327 4.64235 15.7327 7.17051C15.7327 9.69685 13.6767 11.7538 11.1494 11.7538C8.62216 11.7538 6.56608 9.69685 6.56608 7.17051C6.56608 4.64235 8.62216 2.58626 11.1494 2.58626ZM11.1494 0.75293C7.60558 0.75293 4.73275 3.62576 4.73275 7.17051C4.73275 10.7134 7.60558 13.5872 11.1494 13.5872C14.6932 13.5872 17.5661 10.7134 17.5661 7.17051C17.5661 3.62576 14.6932 0.75293 11.1494 0.75293V0.75293ZM16.9877 12.9932C16.5321 13.4497 16.0187 13.8466 15.4678 14.1867C18.1005 15.9045 19.481 18.8461 20.0255 20.9205H2.25408C2.77841 18.8213 4.14058 15.8761 6.81266 14.1757C6.25991 13.8328 5.7475 13.4323 5.29283 12.973C1.38966 15.789 0.149414 20.7702 0.149414 22.7529H22.1494C22.1494 20.7894 20.8294 15.8257 16.9877 12.9932Z" fill="#0060FE"/>
<path d="M11.1494 2.58626C13.6767 2.58626 15.7327 4.64235 15.7327 7.17051C15.7327 9.69685 13.6767 11.7538 11.1494 11.7538C8.62216 11.7538 6.56608 9.69685 6.56608 7.17051C6.56608 4.64235 8.62216 2.58626 11.1494 2.58626ZM11.1494 0.75293C7.60558 0.75293 4.73275 3.62576 4.73275 7.17051C4.73275 10.7134 7.60558 13.5872 11.1494 13.5872C14.6932 13.5872 17.5661 10.7134 17.5661 7.17051C17.5661 3.62576 14.6932 0.75293 11.1494 0.75293V0.75293ZM16.9877 12.9932C16.5321 13.4497 16.0187 13.8466 15.4678 14.1867C18.1005 15.9045 19.481 18.8461 20.0255 20.9205H2.25408C2.77841 18.8213 4.14058 15.8761 6.81266 14.1757C6.25991 13.8328 5.7475 13.4323 5.29283 12.973C1.38966 15.789 0.149414 20.7702 0.149414 22.7529H22.1494C22.1494 20.7894 20.8294 15.8257 16.9877 12.9932Z" fill="#FF720D"/>
</svg>
