<svg width="9" height="27" viewBox="0 0 9 27" fill="none" xmlns="http://www.w3.org/2000/svg">
<path d="M4.11617 25.9865C4.31143 26.1817 4.62802 26.1817 4.82328 25.9865L8.00526 22.8045C8.20052 22.6092 8.20052 22.2927 8.00526 22.0974C7.81 21.9021 7.49341 21.9021 7.29815 22.0974L4.46973 24.9258L1.6413 22.0974C1.44604 21.9021 1.12945 21.9021 0.934192 22.0974C0.73893 22.2927 0.738929 22.6092 0.934192 22.8045L4.11617 25.9865ZM3.96973 0.54187L3.96973 25.6329L4.96973 25.6329L4.96973 0.54187L3.96973 0.54187Z" fill="#0153FE"/>
<path d="M4.11617 25.9865C4.31143 26.1817 4.62802 26.1817 4.82328 25.9865L8.00526 22.8045C8.20052 22.6092 8.20052 22.2927 8.00526 22.0974C7.81 21.9021 7.49341 21.9021 7.29815 22.0974L4.46973 24.9258L1.6413 22.0974C1.44604 21.9021 1.12945 21.9021 0.934192 22.0974C0.73893 22.2927 0.738929 22.6092 0.934192 22.8045L4.11617 25.9865ZM3.96973 0.54187L3.96973 25.6329L4.96973 25.6329L4.96973 0.54187L3.96973 0.54187Z" fill="#F25077"/>
<path d="M4.11617 25.9865C4.31143 26.1817 4.62802 26.1817 4.82328 25.9865L8.00526 22.8045C8.20052 22.6092 8.20052 22.2927 8.00526 22.0974C7.81 21.9021 7.49341 21.9021 7.29815 22.0974L4.46973 24.9258L1.6413 22.0974C1.44604 21.9021 1.12945 21.9021 0.934192 22.0974C0.73893 22.2927 0.738929 22.6092 0.934192 22.8045L4.11617 25.9865ZM3.96973 0.54187L3.96973 25.6329L4.96973 25.6329L4.96973 0.54187L3.96973 0.54187Z" fill="black"/>
</svg>
