<svg width="25" height="25" viewBox="0 0 25 25" fill="none" xmlns="http://www.w3.org/2000/svg">
<path d="M24.2114 7.79199H19.7114V22.792C19.7114 23.0029 19.6724 23.1982 19.5942 23.3779C19.5161 23.5576 19.4067 23.7178 19.2661 23.8584C19.1333 23.9912 18.9771 24.0967 18.7974 24.1748C18.6177 24.2529 18.4224 24.292 18.2114 24.292H6.21143C6.00049 24.292 5.80518 24.2529 5.62549 24.1748C5.4458 24.0967 5.28564 23.9912 5.14502 23.8584C5.01221 23.7178 4.90674 23.5576 4.82861 23.3779C4.75049 23.1982 4.71143 23.0029 4.71143 22.792V7.79199H0.211426V0.291992H24.2114V7.79199ZM18.2114 4.79199H12.2114V9.29199H7.71143V4.79199H6.21143V22.792H18.2114V4.79199ZM9.21143 7.79199H10.7114V4.79199H9.21143V7.79199ZM22.7114 1.79199H1.71143V6.29199H4.71143V4.79199H3.21143V3.29199H21.2114V4.79199H19.7114V6.29199H22.7114V1.79199ZM13.7114 21.292V16.792H15.2114V21.292H13.7114ZM15.2114 15.292H13.7114V7.79199H15.2114V15.292Z" fill="#FF720D"/>
</svg>
