<svg width="25" height="19" viewBox="0 0 25 19" fill="none" xmlns="http://www.w3.org/2000/svg">
<path d="M24.1494 0.75293L23.4064 2.75293H21.4774L18.0034 14.7529H4.76441L0.149414 3.75293H16.9614L16.3974 5.75293H3.15741L6.09441 12.7529H16.5224L19.9544 0.75293H24.1494ZM8.64941 15.7529C7.82141 15.7529 7.14941 16.4249 7.14941 17.2529C7.14941 18.0819 7.82141 18.7529 8.64941 18.7529C9.47741 18.7529 10.1494 18.0819 10.1494 17.2529C10.1494 16.4249 9.47741 15.7529 8.64941 15.7529ZM15.5494 8.75293L13.6494 15.7529C12.8214 15.7529 12.1494 16.4239 12.1494 17.2529C12.1494 18.0819 12.8214 18.7529 13.6494 18.7529C14.4774 18.7529 15.1494 18.0819 15.1494 17.2529C15.1494 16.4249 14.4774 15.7529 13.6494 15.7529L15.5494 8.75293Z" fill="#FF720D"/>
</svg>
