<svg width="24" height="15" viewBox="0 0 24 15" fill="none" xmlns="http://www.w3.org/2000/svg">
<path d="M24 13.5H17.8594C17.7812 13.7266 17.6719 13.9297 17.5312 14.1094C17.3906 14.2891 17.2305 14.4453 17.0508 14.5781C16.8711 14.7109 16.668 14.8125 16.4414 14.8828C16.2148 14.9531 15.9844 14.9922 15.75 15C15.5156 15 15.2891 14.9648 15.0703 14.8945C14.8516 14.8242 14.6484 14.7227 14.4609 14.5898C14.2734 14.457 14.1094 14.3008 13.9688 14.1211C13.8281 13.9414 13.7188 13.7344 13.6406 13.5H7.35938C7.28125 13.7266 7.17188 13.9297 7.03125 14.1094C6.89062 14.2891 6.73047 14.4453 6.55078 14.5781C6.37109 14.7109 6.16797 14.8125 5.94141 14.8828C5.71484 14.9531 5.48438 14.9922 5.25 15C5.01562 15 4.78906 14.9648 4.57031 14.8945C4.35156 14.8242 4.14844 14.7227 3.96094 14.5898C3.77344 14.457 3.60938 14.3008 3.46875 14.1211C3.32812 13.9414 3.21875 13.7344 3.14062 13.5H0V0H16.5V1.5H20.7188L24 8.07422V13.5ZM1.5 12H3.14062C3.21875 11.7812 3.32812 11.5781 3.46875 11.3906C3.60938 11.2031 3.76953 11.0469 3.94922 10.9219C4.12891 10.7969 4.33203 10.6953 4.55859 10.6172C4.78516 10.5391 5.01562 10.5 5.25 10.5C5.48438 10.5 5.71094 10.5352 5.92969 10.6055C6.14844 10.6758 6.35156 10.7773 6.53906 10.9102C6.72656 11.043 6.89062 11.2031 7.03125 11.3906C7.17188 11.5781 7.28125 11.7812 7.35938 12H13.6406C13.75 11.6797 13.9219 11.4023 14.1562 11.168C14.3906 10.9336 14.6719 10.7578 15 10.6406V1.5H1.5V12ZM5.25 13.5C5.45312 13.5 5.62891 13.4258 5.77734 13.2773C5.92578 13.1289 6 12.9531 6 12.75C6 12.5469 5.92578 12.3711 5.77734 12.2227C5.62891 12.0742 5.45312 12 5.25 12C5.04688 12 4.87109 12.0742 4.72266 12.2227C4.57422 12.3711 4.5 12.5469 4.5 12.75C4.5 12.9531 4.57422 13.1289 4.72266 13.2773C4.87109 13.4258 5.04688 13.5 5.25 13.5ZM15.75 13.5C15.9531 13.5 16.1289 13.4258 16.2773 13.2773C16.4258 13.1289 16.5 12.9531 16.5 12.75C16.5 12.5469 16.4258 12.3711 16.2773 12.2227C16.1289 12.0742 15.9531 12 15.75 12C15.5469 12 15.3711 12.0742 15.2227 12.2227C15.0742 12.3711 15 12.5469 15 12.75C15 12.9531 15.0742 13.1289 15.2227 13.2773C15.3711 13.4258 15.5469 13.5 15.75 13.5ZM22.5 8.42578L19.7812 3H16.5V10.6406C16.8203 10.75 17.0977 10.9219 17.332 11.1562C17.5664 11.3906 17.7422 11.6719 17.8594 12H22.5V8.42578Z" fill="#767676"/>
</svg>
