<svg width="55" height="26" viewBox="0 0 55 26" fill="none" xmlns="http://www.w3.org/2000/svg">
<path d="M33.8282 2.83231H26.5355C23.6293 2.83231 21.2167 3.8578 19.133 5.8548C17.2139 7.74386 16.1721 10.0107 16.0624 12.6014C16.0624 12.8713 16.0624 13.0872 16.0624 13.3571C16.1172 16.0557 17.1591 18.4305 19.133 20.3735C21.1619 22.3705 23.6293 23.396 26.5355 23.396H32.3477V22.1547C32.2929 22.1007 32.2929 22.1007 32.2381 22.0467C30.1544 19.9957 28.9481 17.6209 28.5643 14.8143H30.4834C30.8124 16.8653 31.6897 18.7004 33.1702 20.3196C33.4992 20.6434 33.8282 20.9672 34.1572 21.2371C36.186 22.9642 38.5438 23.8278 41.2855 23.8278C44.3013 23.8278 46.8784 22.8023 48.962 20.6974C51.1005 18.5924 52.1423 16.0557 52.1423 13.0872C52.1423 10.1187 51.1005 7.58194 48.962 5.53096C46.8236 3.42602 44.2464 2.40053 41.2855 2.40053C38.2697 2.40053 35.6925 3.42602 33.554 5.53096C31.8542 7.20413 30.8124 9.20113 30.4834 11.414H28.5643C28.8933 8.6614 30.1544 6.23261 32.2381 4.18164C32.7316 3.69588 33.2799 3.2641 33.8282 2.83231ZM17.1591 12.1696V14.0047H17.6526H18.9137H32.3477V18.1067C32.8961 18.8083 33.554 19.51 34.212 20.1037V14.0587V12.2236V12.1696H18.9137H17.6526H17.1591ZM34.1572 25.2311H26.5355C23.1358 25.2311 20.2297 24.0437 17.8719 21.6689C15.4592 19.2941 14.2529 16.4335 14.2529 13.1412C14.2529 9.79483 15.4592 6.93426 17.8719 4.61342C20.2297 2.23861 23.1358 1.0512 26.5355 1.0512H34.1572V2.61642C36.2409 1.21312 38.5987 0.511475 41.2855 0.511475C44.8496 0.511475 47.8654 1.75285 50.3329 4.18164C52.8552 6.6644 54.1163 9.63291 54.1163 13.0872C54.1163 16.5954 52.8552 19.5639 50.3329 21.9927C47.8105 24.4755 44.7948 25.6629 41.2855 25.6629C38.5987 25.6629 36.2409 24.9613 34.1572 23.558V25.2311Z" fill="#5B5B5B"/>
<path d="M0.599609 1.05103V25.2309H20.5587V23.7197C20.3394 23.6117 20.1201 23.5038 19.9556 23.3419H2.46392V14.0585H13.2111V12.2234H2.46392V2.88611H19.9556C20.1749 2.77816 20.3394 2.61624 20.5587 2.5083V1.05103H0.599609Z" fill="#5B5B5B"/>
</svg>
