<svg width="135" height="27" viewBox="0 0 135 27" fill="none" xmlns="http://www.w3.org/2000/svg">
<path d="M42.1662 2.19314L39.7077 10.0746H38.7507L36.7542 4.06314C36.7358 4.00448 36.7175 3.94214 36.6992 3.87614C36.6845 3.81014 36.668 3.74048 36.6497 3.66714C36.6313 3.74048 36.613 3.81014 36.5947 3.87614C36.5763 3.94214 36.558 4.00448 36.5397 4.06314L34.5322 10.0746H33.5752L31.1167 2.19314H32.0022C32.0975 2.19314 32.1763 2.21698 32.2387 2.26464C32.3047 2.31231 32.3468 2.37281 32.3652 2.44614L33.9932 7.92414C34.0188 8.02314 34.0427 8.12948 34.0647 8.24314C34.0903 8.35681 34.1142 8.47781 34.1362 8.60614C34.1618 8.47781 34.1875 8.35681 34.2132 8.24314C34.2425 8.12581 34.2737 8.01948 34.3067 7.92414L36.1602 2.44614C36.1822 2.38381 36.2243 2.32698 36.2867 2.27564C36.3527 2.22064 36.4315 2.19314 36.5232 2.19314H36.8312C36.9265 2.19314 37.0035 2.21698 37.0622 2.26464C37.1208 2.31231 37.1648 2.37281 37.1942 2.44614L39.0422 7.92414C39.0752 8.01948 39.1045 8.12215 39.1302 8.23215C39.1595 8.34215 39.187 8.45764 39.2127 8.57864C39.231 8.45764 39.2512 8.34215 39.2732 8.23215C39.2952 8.12215 39.319 8.01948 39.3447 7.92414L40.9782 2.44614C40.9965 2.38014 41.0368 2.32148 41.0992 2.27014C41.1652 2.21881 41.244 2.19314 41.3357 2.19314H42.1662Z" fill="white"/>
<path d="M46.2144 6.68114C46.2144 6.45381 46.1813 6.24664 46.1153 6.05964C46.053 5.86898 45.9595 5.70581 45.8349 5.57014C45.7139 5.43081 45.5654 5.32448 45.3894 5.25114C45.2134 5.17414 45.0135 5.13564 44.7899 5.13564C44.3205 5.13564 43.9484 5.27314 43.6734 5.54814C43.402 5.81948 43.2334 6.19714 43.1674 6.68114H46.2144ZM47.0064 9.29364C46.8854 9.44031 46.7405 9.56865 46.5718 9.67865C46.4032 9.78498 46.2217 9.87298 46.0274 9.94265C45.8367 10.0123 45.6387 10.0636 45.4333 10.0966C45.228 10.1333 45.0245 10.1516 44.8228 10.1516C44.4378 10.1516 44.0822 10.0875 43.7559 9.95914C43.4332 9.82714 43.1527 9.63648 42.9143 9.38715C42.6797 9.13415 42.4963 8.82248 42.3643 8.45214C42.2323 8.08181 42.1664 7.65648 42.1664 7.17614C42.1664 6.78748 42.225 6.42448 42.3424 6.08714C42.4634 5.74981 42.6357 5.45831 42.8594 5.21264C43.083 4.96331 43.3562 4.76898 43.6789 4.62964C44.0015 4.48664 44.3645 4.41514 44.7678 4.41514C45.1015 4.41514 45.4095 4.47198 45.6918 4.58564C45.9778 4.69564 46.2235 4.85698 46.4289 5.06964C46.6379 5.27864 46.801 5.53898 46.9184 5.85064C47.0357 6.15864 47.0943 6.51064 47.0943 6.90664C47.0943 7.06064 47.0778 7.16331 47.0448 7.21464C47.0118 7.26598 46.9495 7.29165 46.8578 7.29165H43.1343C43.1453 7.64365 43.193 7.94981 43.2774 8.21014C43.3654 8.47048 43.4864 8.68865 43.6404 8.86465C43.7944 9.03698 43.9777 9.16715 44.1903 9.25515C44.403 9.33948 44.6413 9.38165 44.9053 9.38165C45.151 9.38165 45.3618 9.35414 45.5378 9.29914C45.7175 9.24048 45.8715 9.17815 45.9999 9.11215C46.1282 9.04615 46.2345 8.98564 46.3189 8.93064C46.4069 8.87198 46.482 8.84264 46.5443 8.84264C46.625 8.84264 46.6873 8.87381 46.7313 8.93614L47.0064 9.29364Z" fill="white"/>
<path d="M49.2814 8.73265C49.461 8.97465 49.6572 9.14515 49.8699 9.24415C50.0862 9.34315 50.3227 9.39264 50.5794 9.39264C51.1037 9.39264 51.5052 9.20748 51.7839 8.83714C52.0625 8.46681 52.2019 7.91498 52.2019 7.18165C52.2019 6.49965 52.0772 5.99914 51.8279 5.68014C51.5822 5.35748 51.2302 5.19614 50.7719 5.19614C50.4529 5.19614 50.1742 5.26948 49.9359 5.41614C49.7012 5.56281 49.483 5.76998 49.2814 6.03764V8.73265ZM49.2814 5.30614C49.516 5.03481 49.78 4.81848 50.0734 4.65714C50.3704 4.49581 50.7114 4.41514 51.0964 4.41514C51.4227 4.41514 51.716 4.47748 51.9764 4.60214C52.2404 4.72681 52.464 4.90831 52.6474 5.14664C52.8307 5.38131 52.97 5.66731 53.0654 6.00464C53.1644 6.34198 53.2139 6.72148 53.2139 7.14314C53.2139 7.59414 53.1589 8.00481 53.0489 8.37514C52.9389 8.74548 52.7794 9.06264 52.5704 9.32664C52.365 9.58698 52.1139 9.79048 51.8169 9.93715C51.5199 10.0801 51.1862 10.1516 50.8159 10.1516C50.4492 10.1516 50.1394 10.0838 49.8864 9.94814C49.637 9.80881 49.4189 9.61264 49.2319 9.35964L49.1824 9.86565C49.153 10.005 49.0687 10.0746 48.9294 10.0746H48.2969V1.97314H49.2814V5.30614Z" fill="white"/>
<path d="M57.6971 5.42164C57.6531 5.50231 57.5853 5.54264 57.4936 5.54264C57.4386 5.54264 57.3763 5.52248 57.3066 5.48214C57.237 5.44181 57.1508 5.39781 57.0481 5.35014C56.9491 5.29881 56.83 5.25298 56.6906 5.21264C56.5513 5.16864 56.3863 5.14664 56.1956 5.14664C56.0306 5.14664 55.8821 5.16864 55.7501 5.21264C55.6181 5.25298 55.5045 5.30981 55.4091 5.38314C55.3175 5.45648 55.246 5.54264 55.1946 5.64164C55.147 5.73698 55.1231 5.84148 55.1231 5.95514C55.1231 6.09814 55.1635 6.21731 55.2441 6.31264C55.3285 6.40798 55.4385 6.49048 55.5741 6.56014C55.7098 6.62981 55.8638 6.69214 56.0361 6.74714C56.2085 6.79848 56.3845 6.85531 56.5641 6.91764C56.7475 6.97631 56.9253 7.04231 57.0976 7.11564C57.27 7.18898 57.424 7.28065 57.5596 7.39065C57.6953 7.50065 57.8035 7.63631 57.8841 7.79764C57.9685 7.95531 58.0106 8.14598 58.0106 8.36965C58.0106 8.62631 57.9648 8.86465 57.8731 9.08465C57.7815 9.30098 57.6458 9.48981 57.4661 9.65114C57.2865 9.80881 57.0665 9.93348 56.8061 10.0251C56.5458 10.1168 56.2451 10.1626 55.9041 10.1626C55.5155 10.1626 55.1635 10.1003 54.8481 9.97565C54.5328 9.84731 54.2651 9.68415 54.0451 9.48615L54.2761 9.11215C54.3055 9.06448 54.3403 9.02781 54.3806 9.00214C54.421 8.97648 54.4723 8.96364 54.5346 8.96364C54.6006 8.96364 54.6703 8.98931 54.7436 9.04064C54.817 9.09198 54.905 9.14881 55.0076 9.21115C55.114 9.27348 55.2423 9.33031 55.3926 9.38165C55.543 9.43298 55.73 9.45864 55.9536 9.45864C56.1443 9.45864 56.3111 9.43481 56.4541 9.38715C56.5971 9.33581 56.7163 9.26798 56.8116 9.18365C56.907 9.09931 56.9766 9.00215 57.0206 8.89215C57.0683 8.78215 57.0921 8.66481 57.0921 8.54014C57.0921 8.38614 57.05 8.25964 56.9656 8.16064C56.885 8.05798 56.7768 7.97181 56.6411 7.90215C56.5055 7.82881 56.3496 7.76648 56.1736 7.71515C56.0013 7.66015 55.8235 7.60331 55.6401 7.54465C55.4605 7.48598 55.2826 7.41998 55.1066 7.34665C54.9343 7.26965 54.7803 7.17431 54.6446 7.06064C54.509 6.94698 54.399 6.80764 54.3146 6.64264C54.234 6.47398 54.1936 6.27048 54.1936 6.03214C54.1936 5.81948 54.2376 5.61598 54.3256 5.42164C54.4136 5.22364 54.542 5.05131 54.7106 4.90464C54.8793 4.75431 55.0865 4.63514 55.3321 4.54714C55.5778 4.45914 55.8583 4.41514 56.1736 4.41514C56.5403 4.41514 56.8685 4.47381 57.1581 4.59114C57.4515 4.70481 57.7045 4.86248 57.9171 5.06414L57.6971 5.42164Z" fill="white"/>
<path d="M60.2449 4.50314V10.0746H59.2659V4.50314H60.2449ZM60.4539 2.75414C60.4539 2.84948 60.4338 2.93931 60.3934 3.02364C60.3568 3.10431 60.3054 3.17764 60.2394 3.24364C60.1771 3.30598 60.1019 3.35548 60.0139 3.39214C59.9296 3.42881 59.8398 3.44714 59.7444 3.44714C59.6491 3.44714 59.5593 3.42881 59.4749 3.39214C59.3943 3.35548 59.3228 3.30598 59.2604 3.24364C59.1981 3.17764 59.1486 3.10431 59.1119 3.02364C59.0753 2.93931 59.0569 2.84948 59.0569 2.75414C59.0569 2.65881 59.0753 2.56898 59.1119 2.48464C59.1486 2.39664 59.1981 2.32148 59.2604 2.25914C59.3228 2.19314 59.3943 2.14181 59.4749 2.10514C59.5593 2.06848 59.6491 2.05014 59.7444 2.05014C59.8398 2.05014 59.9296 2.06848 60.0139 2.10514C60.1019 2.14181 60.1771 2.19314 60.2394 2.25914C60.3054 2.32148 60.3568 2.39664 60.3934 2.48464C60.4338 2.56898 60.4539 2.65881 60.4539 2.75414Z" fill="white"/>
<path d="M63.564 10.1626C63.124 10.1626 62.7848 10.0398 62.5465 9.79414C62.3118 9.54848 62.1945 9.19465 62.1945 8.73265V5.32264H61.5235C61.4649 5.32264 61.4153 5.30614 61.375 5.27314C61.3347 5.23648 61.3145 5.18148 61.3145 5.10814V4.71764L62.2275 4.60214L62.453 2.88064C62.464 2.82564 62.4879 2.78164 62.5245 2.74864C62.5649 2.71198 62.6162 2.69364 62.6785 2.69364H63.1735V4.61314H64.785V5.32264H63.1735V8.66665C63.1735 8.90131 63.2303 9.07548 63.344 9.18915C63.4577 9.30281 63.6043 9.35964 63.784 9.35964C63.8867 9.35964 63.9747 9.34681 64.048 9.32115C64.125 9.29181 64.191 9.26064 64.246 9.22764C64.301 9.19464 64.3469 9.16531 64.3835 9.13964C64.4239 9.11031 64.4587 9.09564 64.488 9.09564C64.5394 9.09564 64.5852 9.12681 64.6255 9.18915L64.9115 9.65664C64.7429 9.81431 64.5394 9.93898 64.301 10.0306C64.0627 10.1186 63.817 10.1626 63.564 10.1626Z" fill="white"/>
<path d="M69.4927 6.68114C69.4927 6.45381 69.4597 6.24664 69.3937 6.05964C69.3313 5.86898 69.2378 5.70581 69.1132 5.57014C68.9922 5.43081 68.8437 5.32448 68.6677 5.25114C68.4917 5.17414 68.2918 5.13564 68.0682 5.13564C67.5988 5.13564 67.2267 5.27314 66.9517 5.54814C66.6803 5.81948 66.5117 6.19714 66.4457 6.68114H69.4927ZM70.2847 9.29364C70.1637 9.44031 70.0188 9.56865 69.8502 9.67865C69.6815 9.78498 69.5 9.87298 69.3057 9.94265C69.115 10.0123 68.917 10.0636 68.7117 10.0966C68.5063 10.1333 68.3028 10.1516 68.1012 10.1516C67.7162 10.1516 67.3605 10.0875 67.0342 9.95914C66.7115 9.82714 66.431 9.63648 66.1927 9.38715C65.958 9.13415 65.7747 8.82248 65.6427 8.45214C65.5107 8.08181 65.4447 7.65648 65.4447 7.17614C65.4447 6.78748 65.5033 6.42448 65.6207 6.08714C65.7417 5.74981 65.914 5.45831 66.1377 5.21264C66.3613 4.96331 66.6345 4.76898 66.9572 4.62964C67.2798 4.48664 67.6428 4.41514 68.0462 4.41514C68.3798 4.41514 68.6878 4.47198 68.9702 4.58564C69.2562 4.69564 69.5018 4.85698 69.7072 5.06964C69.9162 5.27864 70.0793 5.53898 70.1967 5.85064C70.314 6.15864 70.3727 6.51064 70.3727 6.90664C70.3727 7.06064 70.3562 7.16331 70.3232 7.21464C70.2902 7.26598 70.2278 7.29165 70.1362 7.29165H66.4127C66.4237 7.64365 66.4713 7.94981 66.5557 8.21014C66.6437 8.47048 66.7647 8.68865 66.9187 8.86465C67.0727 9.03698 67.256 9.16715 67.4687 9.25515C67.6813 9.33948 67.9197 9.38165 68.1837 9.38165C68.4293 9.38165 68.6402 9.35414 68.8162 9.29914C68.9958 9.24048 69.1498 9.17815 69.2782 9.11215C69.4065 9.04615 69.5128 8.98564 69.5972 8.93064C69.6852 8.87198 69.7603 8.84264 69.8227 8.84264C69.9033 8.84264 69.9657 8.87381 70.0097 8.93614L70.2847 9.29364Z" fill="white"/>
<path d="M1.22083 21.7326C1.4005 21.9746 1.59666 22.1451 1.80933 22.2441C2.02566 22.3431 2.26216 22.3926 2.51883 22.3926C3.04316 22.3926 3.44466 22.2075 3.72333 21.8371C4.00199 21.4668 4.14133 20.915 4.14133 20.1816C4.14133 19.4996 4.01666 18.9991 3.76733 18.6801C3.52166 18.3575 3.16966 18.1961 2.71133 18.1961C2.39233 18.1961 2.11366 18.2695 1.87533 18.4161C1.64066 18.5628 1.4225 18.77 1.22083 19.0376V21.7326ZM1.22083 18.3061C1.4555 18.0348 1.71949 17.8185 2.01283 17.6571C2.30983 17.4958 2.65083 17.4151 3.03583 17.4151C3.36216 17.4151 3.65549 17.4775 3.91583 17.6021C4.17983 17.7268 4.4035 17.9083 4.58683 18.1466C4.77016 18.3813 4.90949 18.6673 5.00483 19.0046C5.10383 19.342 5.15333 19.7215 5.15333 20.1431C5.15333 20.5941 5.09833 21.0048 4.98833 21.3751C4.87833 21.7455 4.71883 22.0626 4.50983 22.3266C4.30449 22.587 4.05333 22.7905 3.75633 22.9371C3.45933 23.0801 3.12566 23.1516 2.75533 23.1516C2.38866 23.1516 2.07883 23.0838 1.82583 22.9481C1.57649 22.8088 1.35833 22.6126 1.17133 22.3596L1.12183 22.8656C1.0925 23.005 1.00816 23.0746 0.868828 23.0746H0.236328V14.9731H1.22083V18.3061Z" fill="white"/>
<path d="M11.059 17.5031L7.95145 24.7191C7.91845 24.7925 7.87629 24.8511 7.82495 24.8951C7.77729 24.9391 7.70212 24.9611 7.59945 24.9611H6.87345L7.89095 22.7501L5.59195 17.5031H6.43895C6.52329 17.5031 6.58929 17.5251 6.63695 17.5691C6.68829 17.6095 6.72312 17.6553 6.74145 17.7066L8.23195 21.2156C8.29062 21.3696 8.34012 21.531 8.38045 21.6996C8.43179 21.5273 8.48679 21.3641 8.54545 21.2101L9.99195 17.7066C10.014 17.648 10.0506 17.6003 10.102 17.5636C10.157 17.5233 10.2175 17.5031 10.2835 17.5031H11.059Z" fill="white"/>
<path d="M19.5627 22.2056L19.5572 23.0746H14.7007V15.1931H19.5572V16.0621H15.7677V18.6801H18.8367V19.5161H15.7677V22.2056H19.5627Z" fill="white"/>
<path d="M27.2795 19.2851V22.3101C26.8835 22.5961 26.46 22.8106 26.009 22.9536C25.5617 23.093 25.0703 23.1626 24.535 23.1626C23.9007 23.1626 23.3287 23.0655 22.819 22.8711C22.3093 22.6731 21.873 22.3981 21.51 22.0461C21.1507 21.6905 20.8738 21.2651 20.6795 20.7701C20.4852 20.2751 20.388 19.7306 20.388 19.1366C20.388 18.5353 20.4815 17.9871 20.6685 17.4921C20.8592 16.9971 21.1287 16.5736 21.477 16.2216C21.8253 15.866 22.2488 15.591 22.7475 15.3966C23.2462 15.2023 23.8035 15.1051 24.4195 15.1051C24.7312 15.1051 25.0208 15.129 25.2885 15.1766C25.5562 15.2206 25.8037 15.2866 26.031 15.3746C26.2583 15.459 26.4692 15.5635 26.6635 15.6881C26.8578 15.8091 27.0393 15.9466 27.208 16.1006L26.9055 16.5846C26.8578 16.658 26.7955 16.7056 26.7185 16.7276C26.6452 16.746 26.5627 16.7276 26.471 16.6726C26.383 16.6213 26.2822 16.559 26.1685 16.4856C26.0548 16.4123 25.9155 16.3426 25.7505 16.2766C25.5892 16.207 25.3967 16.1483 25.173 16.1006C24.953 16.053 24.6908 16.0291 24.3865 16.0291C23.9428 16.0291 23.5413 16.1025 23.182 16.2491C22.8227 16.3921 22.5165 16.5993 22.2635 16.8706C22.0105 17.1383 21.8162 17.4646 21.6805 17.8496C21.5448 18.231 21.477 18.66 21.477 19.1366C21.477 19.6316 21.5467 20.0753 21.686 20.4676C21.829 20.8563 22.0307 21.1881 22.291 21.4631C22.555 21.7345 22.874 21.9416 23.248 22.0846C23.622 22.2276 24.0418 22.2991 24.5075 22.2991C24.8742 22.2991 25.1987 22.2588 25.481 22.1781C25.767 22.0938 26.0457 21.9783 26.317 21.8316V20.0991H25.0905C25.0208 20.0991 24.964 20.079 24.92 20.0386C24.8797 19.9983 24.8595 19.9488 24.8595 19.8901V19.2851H27.2795Z" fill="white"/>
<path d="M36.1946 19.1366C36.1946 19.727 36.1011 20.2696 35.9141 20.7646C35.7271 21.256 35.4631 21.6795 35.1221 22.0351C34.7811 22.3908 34.3705 22.6676 33.8901 22.8656C33.4135 23.06 32.8855 23.1571 32.3061 23.1571C31.7268 23.1571 31.1988 23.06 30.7221 22.8656C30.2455 22.6676 29.8366 22.3908 29.4956 22.0351C29.1546 21.6795 28.8906 21.256 28.7036 20.7646C28.5166 20.2696 28.4231 19.727 28.4231 19.1366C28.4231 18.5463 28.5166 18.0055 28.7036 17.5141C28.8906 17.0191 29.1546 16.5938 29.4956 16.2381C29.8366 15.8788 30.2455 15.6001 30.7221 15.4021C31.1988 15.2041 31.7268 15.1051 32.3061 15.1051C32.8855 15.1051 33.4135 15.2041 33.8901 15.4021C34.3705 15.6001 34.7811 15.8788 35.1221 16.2381C35.4631 16.5938 35.7271 17.0191 35.9141 17.5141C36.1011 18.0055 36.1946 18.5463 36.1946 19.1366ZM35.1001 19.1366C35.1001 18.6526 35.0341 18.2181 34.9021 17.8331C34.7701 17.4481 34.5831 17.1236 34.3411 16.8596C34.0991 16.592 33.8058 16.3866 33.4611 16.2436C33.1165 16.1006 32.7315 16.0291 32.3061 16.0291C31.8845 16.0291 31.5013 16.1006 31.1566 16.2436C30.812 16.3866 30.5168 16.592 30.2711 16.8596C30.0291 17.1236 29.8421 17.4481 29.7101 17.8331C29.5781 18.2181 29.5121 18.6526 29.5121 19.1366C29.5121 19.6206 29.5781 20.0551 29.7101 20.4401C29.8421 20.8215 30.0291 21.146 30.2711 21.4136C30.5168 21.6776 30.812 21.8811 31.1566 22.0241C31.5013 22.1635 31.8845 22.2331 32.3061 22.2331C32.7315 22.2331 33.1165 22.1635 33.4611 22.0241C33.8058 21.8811 34.0991 21.6776 34.3411 21.4136C34.5831 21.146 34.7701 20.8215 34.9021 20.4401C35.0341 20.0551 35.1001 19.6206 35.1001 19.1366Z" fill="white"/>
<path d="M47.3667 19.1366C47.3667 19.727 47.2732 20.2641 47.0862 20.7481C46.8992 21.2321 46.6352 21.6465 46.2942 21.9911C45.9532 22.3358 45.5425 22.6035 45.0622 22.7941C44.5855 22.9811 44.0575 23.0746 43.4782 23.0746H40.5357V15.1931H43.4782C44.0575 15.1931 44.5855 15.2885 45.0622 15.4791C45.5425 15.6661 45.9532 15.9338 46.2942 16.2821C46.6352 16.6268 46.8992 17.0411 47.0862 17.5251C47.2732 18.0091 47.3667 18.5463 47.3667 19.1366ZM46.2722 19.1366C46.2722 18.6526 46.2062 18.22 46.0742 17.8386C45.9422 17.4573 45.7552 17.1346 45.5132 16.8706C45.2712 16.6066 44.9779 16.405 44.6332 16.2656C44.2885 16.1263 43.9035 16.0566 43.4782 16.0566H41.6027V22.2111H43.4782C43.9035 22.2111 44.2885 22.1415 44.6332 22.0021C44.9779 21.8628 45.2712 21.663 45.5132 21.4026C45.7552 21.1386 45.9422 20.816 46.0742 20.4346C46.2062 20.0533 46.2722 19.6206 46.2722 19.1366Z" fill="white"/>
<path d="M49.5994 17.5031V23.0746H48.6204V17.5031H49.5994ZM49.8084 15.7541C49.8084 15.8495 49.7883 15.9393 49.7479 16.0236C49.7113 16.1043 49.6599 16.1776 49.5939 16.2436C49.5316 16.306 49.4564 16.3555 49.3684 16.3921C49.2841 16.4288 49.1943 16.4471 49.0989 16.4471C49.0036 16.4471 48.9138 16.4288 48.8294 16.3921C48.7488 16.3555 48.6773 16.306 48.6149 16.2436C48.5526 16.1776 48.5031 16.1043 48.4664 16.0236C48.4298 15.9393 48.4114 15.8495 48.4114 15.7541C48.4114 15.6588 48.4298 15.569 48.4664 15.4846C48.5031 15.3966 48.5526 15.3215 48.6149 15.2591C48.6773 15.1931 48.7488 15.1418 48.8294 15.1051C48.9138 15.0685 49.0036 15.0501 49.0989 15.0501C49.1943 15.0501 49.2841 15.0685 49.3684 15.1051C49.4564 15.1418 49.5316 15.1931 49.5939 15.2591C49.6599 15.3215 49.7113 15.3966 49.7479 15.4846C49.7883 15.569 49.8084 15.6588 49.8084 15.7541Z" fill="white"/>
<path d="M53.1495 20.3521C53.3475 20.3521 53.5217 20.3246 53.672 20.2696C53.8223 20.2146 53.9488 20.1376 54.0515 20.0386C54.1542 19.9396 54.2312 19.8223 54.2825 19.6866C54.3338 19.5473 54.3595 19.3951 54.3595 19.2301C54.3595 18.8891 54.255 18.6178 54.046 18.4161C53.8407 18.2145 53.5418 18.1136 53.1495 18.1136C52.7535 18.1136 52.451 18.2145 52.242 18.4161C52.0367 18.6178 51.934 18.8891 51.934 19.2301C51.934 19.3951 51.9597 19.5473 52.011 19.6866C52.066 19.8223 52.1448 19.9396 52.2475 20.0386C52.3502 20.1376 52.4767 20.2146 52.627 20.2696C52.7773 20.3246 52.9515 20.3521 53.1495 20.3521ZM54.915 23.3771C54.915 23.2415 54.8765 23.1315 54.7995 23.0471C54.7225 22.9628 54.618 22.8968 54.486 22.8491C54.3577 22.8015 54.2073 22.7685 54.035 22.7501C53.8627 22.7281 53.6793 22.7116 53.485 22.7006C53.2943 22.6896 53.1 22.6786 52.902 22.6676C52.704 22.6566 52.5133 22.6383 52.33 22.6126C52.1247 22.708 51.956 22.829 51.824 22.9756C51.6957 23.1186 51.6315 23.2873 51.6315 23.4816C51.6315 23.6063 51.6627 23.7218 51.725 23.8281C51.791 23.9381 51.89 24.0316 52.022 24.1086C52.154 24.1893 52.319 24.2516 52.517 24.2956C52.7187 24.3433 52.9552 24.3671 53.2265 24.3671C53.4905 24.3671 53.727 24.3433 53.936 24.2956C54.145 24.248 54.321 24.1801 54.464 24.0921C54.6107 24.0041 54.7225 23.8996 54.7995 23.7786C54.8765 23.6576 54.915 23.5238 54.915 23.3771ZM55.9105 17.7231V18.0861C55.9105 18.2071 55.8335 18.2841 55.6795 18.3171L55.047 18.3996C55.1717 18.6416 55.234 18.9093 55.234 19.2026C55.234 19.474 55.1808 19.7215 55.0745 19.9451C54.9718 20.1651 54.8288 20.354 54.6455 20.5116C54.4622 20.6693 54.2422 20.7903 53.9855 20.8746C53.7288 20.959 53.4502 21.0011 53.1495 21.0011C52.8892 21.0011 52.6435 20.97 52.4125 20.9076C52.2952 20.981 52.2053 21.0598 52.143 21.1441C52.0807 21.2248 52.0495 21.3073 52.0495 21.3916C52.0495 21.5236 52.1027 21.6245 52.209 21.6941C52.319 21.7601 52.462 21.8078 52.638 21.8371C52.814 21.8665 53.0138 21.8848 53.2375 21.8921C53.4648 21.8995 53.6958 21.9123 53.9305 21.9306C54.1688 21.9453 54.3998 21.9728 54.6235 22.0131C54.8508 22.0535 55.0525 22.1195 55.2285 22.2111C55.4045 22.3028 55.5457 22.4293 55.652 22.5906C55.762 22.752 55.817 22.961 55.817 23.2176C55.817 23.456 55.7565 23.687 55.6355 23.9106C55.5182 24.1343 55.3477 24.3323 55.124 24.5046C54.9003 24.6806 54.6253 24.82 54.299 24.9226C53.9763 25.029 53.6115 25.0821 53.2045 25.0821C52.7975 25.0821 52.4418 25.0418 52.1375 24.9611C51.8332 24.8805 51.5802 24.7723 51.3785 24.6366C51.1768 24.501 51.0247 24.3433 50.922 24.1636C50.823 23.9876 50.7735 23.8025 50.7735 23.6081C50.7735 23.3331 50.8597 23.1003 51.032 22.9096C51.2043 22.719 51.4408 22.5668 51.7415 22.4531C51.5765 22.3798 51.4445 22.2826 51.3455 22.1616C51.2502 22.037 51.2025 21.8701 51.2025 21.6611C51.2025 21.5805 51.2172 21.498 51.2465 21.4136C51.2758 21.3256 51.3198 21.2395 51.3785 21.1551C51.4408 21.0671 51.516 20.9846 51.604 20.9076C51.692 20.8306 51.7947 20.7628 51.912 20.7041C51.637 20.5501 51.4225 20.3466 51.2685 20.0936C51.1145 19.837 51.0375 19.54 51.0375 19.2026C51.0375 18.9313 51.0888 18.6856 51.1915 18.4656C51.2978 18.242 51.4445 18.0531 51.6315 17.8991C51.8185 17.7415 52.0403 17.6205 52.297 17.5361C52.5573 17.4518 52.8415 17.4096 53.1495 17.4096C53.3915 17.4096 53.617 17.4371 53.826 17.4921C54.035 17.5435 54.2257 17.6205 54.398 17.7231H55.9105Z" fill="white"/>
<path d="M57.9569 17.5031V23.0746H56.9779V17.5031H57.9569ZM58.1659 15.7541C58.1659 15.8495 58.1457 15.9393 58.1054 16.0236C58.0687 16.1043 58.0174 16.1776 57.9514 16.2436C57.889 16.306 57.8138 16.3555 57.7258 16.3921C57.6415 16.4288 57.5517 16.4471 57.4564 16.4471C57.361 16.4471 57.2712 16.4288 57.1869 16.3921C57.1062 16.3555 57.0347 16.306 56.9724 16.2436C56.91 16.1776 56.8605 16.1043 56.8238 16.0236C56.7872 15.9393 56.7689 15.8495 56.7689 15.7541C56.7689 15.6588 56.7872 15.569 56.8238 15.4846C56.8605 15.3966 56.91 15.3215 56.9724 15.2591C57.0347 15.1931 57.1062 15.1418 57.1869 15.1051C57.2712 15.0685 57.361 15.0501 57.4564 15.0501C57.5517 15.0501 57.6415 15.0685 57.7258 15.1051C57.8138 15.1418 57.889 15.1931 57.9514 15.2591C58.0174 15.3215 58.0687 15.3966 58.1054 15.4846C58.1457 15.569 58.1659 15.6588 58.1659 15.7541Z" fill="white"/>
<path d="M61.2759 23.1626C60.8359 23.1626 60.4968 23.0398 60.2584 22.7941C60.0238 22.5485 59.9064 22.1946 59.9064 21.7326V18.3226H59.2354C59.1768 18.3226 59.1273 18.3061 59.0869 18.2731C59.0466 18.2365 59.0264 18.1815 59.0264 18.1081V17.7176L59.9394 17.6021L60.1649 15.8806C60.1759 15.8256 60.1998 15.7816 60.2364 15.7486C60.2768 15.712 60.3281 15.6936 60.3904 15.6936H60.8854V17.6131H62.4969V18.3226H60.8854V21.6666C60.8854 21.9013 60.9423 22.0755 61.0559 22.1891C61.1696 22.3028 61.3163 22.3596 61.4959 22.3596C61.5986 22.3596 61.6866 22.3468 61.7599 22.3211C61.8369 22.2918 61.9029 22.2606 61.9579 22.2276C62.0129 22.1946 62.0588 22.1653 62.0954 22.1396C62.1358 22.1103 62.1706 22.0956 62.1999 22.0956C62.2513 22.0956 62.2971 22.1268 62.3374 22.1891L62.6234 22.6566C62.4548 22.8143 62.2513 22.939 62.0129 23.0306C61.7746 23.1186 61.5289 23.1626 61.2759 23.1626Z" fill="white"/>
<path d="M66.5273 20.5666C66.0763 20.5813 65.6913 20.618 65.3723 20.6766C65.057 20.7316 64.7985 20.805 64.5968 20.8966C64.3988 20.9883 64.254 21.0965 64.1623 21.2211C64.0743 21.3458 64.0303 21.4851 64.0303 21.6391C64.0303 21.7858 64.0541 21.9123 64.1018 22.0186C64.1495 22.125 64.2136 22.213 64.2943 22.2826C64.3786 22.3486 64.4758 22.3981 64.5858 22.4311C64.6995 22.4605 64.8205 22.4751 64.9488 22.4751C65.1211 22.4751 65.2788 22.4586 65.4218 22.4256C65.5648 22.389 65.6987 22.3376 65.8233 22.2716C65.9517 22.2056 66.0727 22.1268 66.1863 22.0351C66.3037 21.9435 66.4173 21.839 66.5273 21.7216V20.5666ZM63.3648 18.2896C63.6728 17.9926 64.0046 17.7708 64.3603 17.6241C64.716 17.4775 65.1101 17.4041 65.5428 17.4041C65.8545 17.4041 66.1313 17.4555 66.3733 17.5581C66.6153 17.6608 66.8188 17.8038 66.9838 17.9871C67.1488 18.1705 67.2735 18.3923 67.3578 18.6526C67.4422 18.913 67.4843 19.199 67.4843 19.5106V23.0746H67.0498C66.9545 23.0746 66.8812 23.06 66.8298 23.0306C66.7785 22.9976 66.7381 22.9353 66.7088 22.8436L66.5988 22.3156C66.4521 22.4513 66.3091 22.5723 66.1698 22.6786C66.0305 22.7813 65.8838 22.8693 65.7298 22.9426C65.5758 23.0123 65.4108 23.0655 65.2348 23.1021C65.0625 23.1425 64.87 23.1626 64.6573 23.1626C64.441 23.1626 64.2375 23.1333 64.0468 23.0746C63.8561 23.0123 63.6893 22.9206 63.5463 22.7996C63.407 22.6786 63.2951 22.5265 63.2108 22.3431C63.1301 22.1561 63.0898 21.9361 63.0898 21.6831C63.0898 21.4631 63.1503 21.2523 63.2713 21.0506C63.3923 20.8453 63.5885 20.6638 63.8598 20.5061C64.1311 20.3485 64.485 20.2201 64.9213 20.1211C65.3577 20.0185 65.893 19.9598 66.5273 19.9451V19.5106C66.5273 19.078 66.4338 18.7516 66.2468 18.5316C66.0598 18.308 65.7866 18.1961 65.4273 18.1961C65.1853 18.1961 64.9818 18.2273 64.8168 18.2896C64.6555 18.3483 64.5143 18.4161 64.3933 18.4931C64.276 18.5665 64.1733 18.6343 64.0853 18.6966C64.001 18.7553 63.9166 18.7846 63.8323 18.7846C63.7663 18.7846 63.7095 18.7681 63.6618 18.7351C63.6141 18.6985 63.5738 18.6545 63.5408 18.6031L63.3648 18.2896Z" fill="white"/>
<path d="M69.9876 14.9731V23.0746H69.0086V14.9731H69.9876Z" fill="white"/>
<path d="M114.028 3.27274H106.736C103.83 3.27274 101.417 4.29823 99.3332 6.29523C97.4141 8.18429 96.3723 10.4512 96.2626 13.0419C96.2626 13.3117 96.2626 13.5276 96.2626 13.7975C96.3174 16.4961 97.3593 18.8709 99.3332 20.814C101.362 22.811 103.83 23.8365 106.736 23.8365H112.548V22.5951C112.493 22.5411 112.493 22.5411 112.438 22.4871C110.355 20.4362 109.148 18.0613 108.764 15.2548H110.684C111.013 17.3057 111.89 19.1408 113.37 20.76C113.699 21.0838 114.028 21.4077 114.357 21.6775C116.386 23.4047 118.744 24.2682 121.486 24.2682C124.501 24.2682 127.079 23.2428 129.162 21.1378C131.301 19.0329 132.343 16.4961 132.343 13.5276C132.343 10.5591 131.301 8.02237 129.162 5.97139C127.024 3.86645 124.447 2.84096 121.486 2.84096C118.47 2.84096 115.893 3.86645 113.754 5.97139C112.054 7.64456 111.013 9.64156 110.684 11.8545H108.764C109.093 9.10183 110.355 6.67304 112.438 4.62207C112.932 4.13631 113.48 3.70453 114.028 3.27274ZM97.3593 12.6101V14.4452H97.8528H99.1139H112.548V18.5471C113.096 19.2488 113.754 19.9504 114.412 20.5441V14.4991V12.664V12.6101H99.1139H97.8528H97.3593ZM114.357 25.6715H106.736C103.336 25.6715 100.43 24.4841 98.0721 22.1093C95.6594 19.7345 94.4531 16.8739 94.4531 13.5816C94.4531 10.2353 95.6594 7.37469 98.0721 5.05385C100.43 2.67904 103.336 1.49163 106.736 1.49163H114.357V3.05685C116.441 1.65355 118.799 0.951904 121.486 0.951904C125.05 0.951904 128.066 2.19328 130.533 4.62207C133.055 7.10483 134.317 10.0733 134.317 13.5276C134.317 17.0359 133.055 20.0044 130.533 22.4332C128.011 24.9159 124.995 26.1033 121.486 26.1033C118.799 26.1033 116.441 25.4017 114.357 23.9984V25.6715Z" fill="#5B5B5B"/>
<path d="M80.7998 1.49146V25.6714H100.759V24.1601C100.54 24.0522 100.32 23.9442 100.156 23.7823H82.6641V14.499H93.4113V12.6639H82.6641V3.32654H100.156C100.375 3.21859 100.54 3.05667 100.759 2.94873V1.49146H80.7998Z" fill="#5B5B5B"/>
</svg>
