<svg width="19" height="19" viewBox="0 0 19 19" fill="none" xmlns="http://www.w3.org/2000/svg">
<path d="M18.5742 0.570129V18.9451H5.44922L0.199219 13.6951V0.570129H18.5742ZM5.44922 17.0892V13.6951H2.05518L5.44922 17.0892ZM17.2617 1.88263H1.51172V12.3826H6.76172V17.6326H17.2617V1.88263Z" fill="black"/>
<path d="M18.5742 0.570129V18.9451H5.44922L0.199219 13.6951V0.570129H18.5742ZM5.44922 17.0892V13.6951H2.05518L5.44922 17.0892ZM17.2617 1.88263H1.51172V12.3826H6.76172V17.6326H17.2617V1.88263Z" fill="#F25077"/>
<path d="M18.5742 0.570129V18.9451H5.44922L0.199219 13.6951V0.570129H18.5742ZM5.44922 17.0892V13.6951H2.05518L5.44922 17.0892ZM17.2617 1.88263H1.51172V12.3826H6.76172V17.6326H17.2617V1.88263Z" fill="#0060FE"/>
</svg>
