<svg width="15" height="25" viewBox="0 0 15 25" fill="none" xmlns="http://www.w3.org/2000/svg">
<path d="M6.71143 22.5624H8.21143V24.0624H6.71143V22.5624ZM7.46143 0.0623779C8.07861 0.0623779 8.67236 0.144409 9.24268 0.308472C9.8208 0.464722 10.3599 0.691284 10.8599 0.988159C11.3599 1.27722 11.8169 1.62878 12.231 2.04285C12.645 2.45691 12.9966 2.91394 13.2856 3.41394C13.5825 3.91394 13.8091 4.453 13.9653 5.03113C14.1294 5.60144 14.2114 6.19519 14.2114 6.81238C14.2114 7.46863 14.1255 8.06238 13.9536 8.59363C13.7817 9.12488 13.5552 9.61316 13.2739 10.0585C12.9927 10.496 12.6724 10.9022 12.313 11.2772C11.9536 11.6522 11.5864 12.0155 11.2114 12.3671C10.8364 12.7186 10.4692 13.0702 10.1099 13.4218C9.75049 13.7655 9.43018 14.1327 9.14893 14.5233C8.86768 14.9139 8.64111 15.3358 8.46924 15.7889C8.29736 16.2421 8.21143 16.7499 8.21143 17.3124V19.5624H6.71143V17.3124C6.71143 16.6561 6.79736 16.0624 6.96924 15.5311C7.14111 14.9999 7.36768 14.5155 7.64893 14.078C7.93018 13.6327 8.25049 13.2264 8.60986 12.8593C8.96924 12.4843 9.33643 12.121 9.71143 11.7694C10.0864 11.4178 10.4536 11.0663 10.813 10.7147C11.1724 10.3632 11.4927 9.99207 11.7739 9.60144C12.0552 9.21082 12.2817 8.78894 12.4536 8.33582C12.6255 7.88269 12.7114 7.37488 12.7114 6.81238C12.7114 6.08582 12.5708 5.40613 12.2896 4.77332C12.0161 4.13269 11.6411 3.578 11.1646 3.10925C10.6958 2.63269 10.1411 2.25769 9.50049 1.98425C8.86768 1.703 8.18799 1.56238 7.46143 1.56238C6.73486 1.56238 6.05127 1.703 5.41064 1.98425C4.77783 2.25769 4.22314 2.63269 3.74658 3.10925C3.27783 3.578 2.90283 4.13269 2.62158 4.77332C2.34814 5.40613 2.21143 6.08582 2.21143 6.81238H0.711426C0.711426 6.19519 0.789551 5.60144 0.945801 5.03113C1.10986 4.453 1.33643 3.91394 1.62549 3.41394C1.92236 2.91394 2.27783 2.45691 2.69189 2.04285C3.10596 1.62878 3.56299 1.27722 4.06299 0.988159C4.56299 0.691284 5.09814 0.464722 5.66846 0.308472C6.24658 0.144409 6.84424 0.0623779 7.46143 0.0623779Z" fill="#FF720D"/>
</svg>
