<svg width="26" height="8" viewBox="0 0 26 8" fill="none" xmlns="http://www.w3.org/2000/svg">
<path d="M0.20919 3.69576C0.0139294 3.89102 0.0139294 4.20761 0.20919 4.40287L3.39117 7.58485C3.58643 7.78011 3.90301 7.78011 4.09828 7.58485C4.29354 7.38959 4.29354 7.073 4.09828 6.87774L1.26985 4.04931L4.09828 1.22089C4.29354 1.02563 4.29354 0.709043 4.09828 0.513781C3.90302 0.318518 3.58643 0.318518 3.39117 0.513781L0.20919 3.69576ZM25.6538 3.54932L0.562744 3.54931L0.562744 4.54931L25.6538 4.54932L25.6538 3.54932Z" fill="#0153FE"/>
<path d="M0.20919 3.69576C0.0139294 3.89102 0.0139294 4.20761 0.20919 4.40287L3.39117 7.58485C3.58643 7.78011 3.90301 7.78011 4.09828 7.58485C4.29354 7.38959 4.29354 7.073 4.09828 6.87774L1.26985 4.04931L4.09828 1.22089C4.29354 1.02563 4.29354 0.709043 4.09828 0.513781C3.90302 0.318518 3.58643 0.318518 3.39117 0.513781L0.20919 3.69576ZM25.6538 3.54932L0.562744 3.54931L0.562744 4.54931L25.6538 4.54932L25.6538 3.54932Z" fill="#F25077"/>
<path d="M0.20919 3.69576C0.0139294 3.89102 0.0139294 4.20761 0.20919 4.40287L3.39117 7.58485C3.58643 7.78011 3.90301 7.78011 4.09828 7.58485C4.29354 7.38959 4.29354 7.073 4.09828 6.87774L1.26985 4.04931L4.09828 1.22089C4.29354 1.02563 4.29354 0.709043 4.09828 0.513781C3.90302 0.318518 3.58643 0.318518 3.39117 0.513781L0.20919 3.69576ZM25.6538 3.54932L0.562744 3.54931L0.562744 4.54931L25.6538 4.54932L25.6538 3.54932Z" fill="black"/>
</svg>
