<svg width="23" height="21" viewBox="0 0 23 21" fill="none" xmlns="http://www.w3.org/2000/svg">
<path d="M6.10948 2.57111C9.0513 2.57202 10.6304 5.74475 11.3095 7.14475C11.9913 5.73838 13.554 2.5802 16.5149 2.5802C18.3858 2.5802 20.4004 3.7702 20.4004 6.38202C20.4004 9.51111 16.0877 13.5193 11.3095 18.2002C6.52948 13.5175 2.21857 9.5102 2.21857 6.38202C2.21857 3.94929 4.00494 2.5702 6.10948 2.57111ZM6.11039 0.75293C3.21675 0.75293 0.400391 2.74111 0.400391 6.38202C0.400391 10.6193 5.46403 14.952 11.3095 20.7529C17.1549 14.952 22.2186 10.6193 22.2186 6.38202C22.2186 2.73566 19.4031 0.762021 16.5149 0.762021C14.5113 0.762021 12.4731 1.70929 11.3095 3.70566C10.1413 1.7002 8.10766 0.75293 6.11039 0.75293Z" fill="#FF720D"/>
</svg>
