<svg width="22" height="25" viewBox="0 0 22 25" fill="none" xmlns="http://www.w3.org/2000/svg">
<path d="M11.9614 12.5013H10.4614V0.501343H11.9614V12.5013ZM14.4458 4.01697C15.5239 4.36072 16.5083 4.86072 17.3989 5.51697C18.2974 6.17322 19.063 6.94275 19.6958 7.82556C20.3364 8.70837 20.8325 9.67712 21.1841 10.7318C21.5356 11.7865 21.7114 12.8763 21.7114 14.0013C21.7114 14.9701 21.5864 15.9037 21.3364 16.8021C21.0864 17.6927 20.731 18.5287 20.27 19.3099C19.8169 20.0834 19.27 20.7904 18.6294 21.431C17.9966 22.0638 17.2896 22.6107 16.5083 23.0717C15.7349 23.5248 14.8989 23.8763 14.0005 24.1263C13.1099 24.3763 12.1802 24.5013 11.2114 24.5013C10.2427 24.5013 9.30908 24.3763 8.41064 24.1263C7.52002 23.8763 6.68408 23.5248 5.90283 23.0717C5.12939 22.6107 4.42236 22.0638 3.78174 21.431C3.14893 20.7904 2.60205 20.0834 2.14111 19.3099C1.68799 18.5287 1.33643 17.6927 1.08643 16.8021C0.836426 15.9037 0.711426 14.9701 0.711426 14.0013C0.711426 12.8763 0.887207 11.7865 1.23877 10.7318C1.59033 9.67712 2.08252 8.70837 2.71533 7.82556C3.35596 6.94275 4.12158 6.17322 5.01221 5.51697C5.91064 4.86072 6.89893 4.36072 7.97705 4.01697L8.4458 5.43494C7.51611 5.73962 6.66846 6.17322 5.90283 6.73572C5.13721 7.29822 4.48096 7.95447 3.93408 8.70447C3.38721 9.45447 2.96143 10.2826 2.65674 11.1888C2.35986 12.0873 2.21143 13.0248 2.21143 14.0013C2.21143 14.8295 2.31689 15.6263 2.52783 16.392C2.74658 17.1576 3.05127 17.8763 3.44189 18.5482C3.83252 19.2123 4.30127 19.8177 4.84814 20.3646C5.39502 20.9115 6.00049 21.3802 6.66455 21.7709C7.33643 22.1615 8.05518 22.4662 8.8208 22.6849C9.58643 22.8959 10.3833 23.0013 11.2114 23.0013C12.0396 23.0013 12.8364 22.8959 13.6021 22.6849C14.3677 22.4662 15.0825 22.1615 15.7466 21.7709C16.4185 21.3802 17.0278 20.9115 17.5747 20.3646C18.1216 19.8177 18.5903 19.2123 18.981 18.5482C19.3716 17.8763 19.6724 17.1576 19.8833 16.392C20.1021 15.6263 20.2114 14.8295 20.2114 14.0013C20.2114 13.0248 20.0591 12.0873 19.7544 11.1888C19.4575 10.2826 19.0356 9.45447 18.4888 8.70447C17.9419 7.95447 17.2856 7.29822 16.52 6.73572C15.7544 6.17322 14.9067 5.73962 13.9771 5.43494L14.4458 4.01697Z" fill="#FF720D"/>
</svg>
