<svg width="16" height="25" viewBox="0 0 16 25" fill="none" xmlns="http://www.w3.org/2000/svg">
<path d="M6.71143 5.94446L11.5864 8.38196L6.71143 10.8195V5.94446ZM8.21143 0.881958C8.89893 0.881958 9.56299 0.971802 10.2036 1.15149C10.8442 1.33118 11.4419 1.58508 11.9966 1.91321C12.5513 2.23352 13.0552 2.62415 13.5083 3.08508C13.9692 3.53821 14.3599 4.04211 14.6802 4.5968C15.0083 5.15149 15.2622 5.74915 15.4419 6.38977C15.6216 7.0304 15.7114 7.69446 15.7114 8.38196C15.7114 8.92102 15.645 9.43665 15.5122 9.92883C15.3872 10.4132 15.2036 10.8976 14.9614 11.382L8.21143 24.882L1.46143 11.382C1.21924 10.8976 1.03174 10.4132 0.898926 9.92883C0.773926 9.43665 0.711426 8.92102 0.711426 8.38196C0.711426 7.69446 0.80127 7.0304 0.980957 6.38977C1.16064 5.74915 1.41064 5.15149 1.73096 4.5968C2.05908 4.04211 2.44971 3.53821 2.90283 3.08508C3.36377 2.62415 3.87158 2.23352 4.42627 1.91321C4.98096 1.58508 5.57861 1.33118 6.21924 1.15149C6.85986 0.971802 7.52393 0.881958 8.21143 0.881958ZM13.7896 10.796C13.7896 10.7882 13.7896 10.7843 13.7896 10.7843C13.7974 10.7843 13.8013 10.7804 13.8013 10.7726C13.9966 10.4054 14.145 10.0187 14.2466 9.61243C14.3481 9.20618 14.3989 8.79602 14.3989 8.38196C14.3989 7.5304 14.2349 6.72961 13.9067 5.97961C13.5864 5.22961 13.145 4.57336 12.5825 4.01086C12.02 3.44836 11.3638 3.00696 10.6138 2.68665C9.86377 2.35852 9.06299 2.19446 8.21143 2.19446C7.35986 2.19446 6.55908 2.35852 5.80908 2.68665C5.05908 3.00696 4.40283 3.44836 3.84033 4.01086C3.27783 4.57336 2.83252 5.22961 2.50439 5.97961C2.18408 6.72961 2.02393 7.5304 2.02393 8.38196C2.02393 8.79602 2.07471 9.20618 2.17627 9.61243C2.27783 10.0187 2.42627 10.4054 2.62158 10.7726C2.62158 10.7804 2.62158 10.7843 2.62158 10.7843C2.62939 10.7843 2.6333 10.7882 2.6333 10.796L8.21143 21.9523L13.7896 10.796Z" fill="#FF720D"/>
</svg>
