<svg width="35" height="38" viewBox="0 0 35 38" fill="none" xmlns="http://www.w3.org/2000/svg">
<path d="M32.3224 0.464233H2.6776C1.20219 0.464233 0 1.73512 0 3.29483V34.6336C0 36.1934 1.20219 37.4642 2.6776 37.4642H32.3224C33.7978 37.4642 35 36.1934 35 34.6336V3.29483C34.9727 1.73512 33.7705 0.464233 32.3224 0.464233ZM34.0164 34.6336C34.0164 35.6446 33.2514 36.4533 32.2951 36.4533H2.6776C1.72131 36.4533 0.956284 35.6446 0.956284 34.6336V3.29483C0.956284 2.28391 1.72131 1.47516 2.6776 1.47516H32.3224C33.2787 1.47516 34.0437 2.28391 34.0437 3.29483V34.6336H34.0164Z" fill="white"/>
<path d="M26.3392 5.57682L10.4375 8.46519C10.219 8.52296 10.0277 8.72514 10.0277 8.95621V25.2177C9.59054 25.1022 9.15338 25.0444 8.6889 25.0444C6.22989 25.0444 4.23535 26.6908 4.23535 28.6838C4.23535 30.6767 6.22989 32.3231 8.6889 32.3231C11.1479 32.3231 13.1425 30.6767 13.1425 28.6838V14.1264L23.7709 12.2201V22.3294C23.3337 22.2138 22.8965 22.1561 22.4321 22.1561C19.9731 22.1561 17.9785 23.8024 17.9785 25.7954C17.9785 27.7884 19.9731 29.4347 22.4321 29.4347C24.8911 29.4347 26.8856 27.7884 26.8856 25.7954V6.06785C26.8856 5.92343 26.831 5.77901 26.7217 5.69236C26.6124 5.57682 26.4758 5.54794 26.3392 5.57682ZM25.9293 25.7954C25.9293 27.2396 24.372 28.4238 22.4321 28.4238C20.5195 28.4238 18.9348 27.2396 18.9348 25.7954C18.9348 24.3512 20.4922 23.167 22.4321 23.167C23.0058 23.167 23.5523 23.2825 24.0714 23.4847C24.208 23.5425 24.3993 23.5136 24.5086 23.4269C24.6452 23.3403 24.7272 23.167 24.7272 23.0226V11.6135C24.7272 11.4691 24.6725 11.3247 24.5632 11.238C24.4539 11.1514 24.3173 11.0936 24.1807 11.1225L12.6233 13.231C12.4047 13.2599 12.2135 13.491 12.2135 13.722V28.7126C12.2135 30.1568 10.6561 31.3411 8.71623 31.3411C6.77633 31.3411 5.21896 30.1568 5.21896 28.7126C5.21896 27.2685 6.77633 26.0842 8.71623 26.0842C9.29 26.0842 9.83644 26.1998 10.3556 26.402C10.4922 26.4597 10.6834 26.4308 10.7927 26.3442C10.9293 26.2575 11.0113 26.0842 11.0113 25.9398V9.38947L25.9567 6.6744V25.7954H25.9293Z" fill="white"/>
</svg>
