<svg width="22" height="34" viewBox="0 0 22 34" fill="none" xmlns="http://www.w3.org/2000/svg">
<path d="M17.4375 0.165162C16.2609 0.166344 15.1329 0.657591 14.301 1.53109C13.469 2.40458 13.0011 3.58896 13 4.82426V27.2326C13 28.1637 12.6477 29.0566 12.0206 29.715C11.3936 30.3734 10.5431 30.7433 9.65625 30.7433C8.76943 30.7433 7.91894 30.3734 7.29186 29.715C6.66479 29.0566 6.3125 28.1637 6.3125 27.2326V27.1354H6.5C6.88111 27.135 7.24647 26.9758 7.51595 26.6929C7.78544 26.4099 7.93704 26.0263 7.9375 25.6262V23.3163L9.6975 19.9407C9.73123 19.8726 9.74922 19.7971 9.75 19.7203V12.3707C9.74954 11.9706 9.59794 11.5869 9.32845 11.304C9.05897 11.0211 8.69361 10.8619 8.3125 10.8614H7.3425V5.44898C7.34428 5.35742 7.31895 5.26754 7.27 5.19174L6.61 4.1523L6.84 1.98943C6.84943 1.90231 6.83558 1.81415 6.8 1.73482L6.19 0.422397C6.15423 0.345113 6.09843 0.279985 6.029 0.234485C5.95958 0.188986 5.87934 0.164959 5.7975 0.165162H3.9525C3.87066 0.164959 3.79042 0.188986 3.721 0.234485C3.65157 0.279985 3.59577 0.345113 3.56 0.422397L2.95 1.73482C2.91442 1.81415 2.90057 1.90231 2.91 1.98943L3.14 4.1523L2.48 5.19174C2.43105 5.26754 2.40572 5.35742 2.4075 5.44898V10.8614H1.4375C1.05639 10.8619 0.691029 11.0211 0.421545 11.304C0.152062 11.5869 0.000463111 11.9706 0 12.3707V19.7203C0.00110428 19.797 0.0190705 19.8725 0.0524998 19.9407L1.8125 23.3163V25.6262C1.81296 26.0263 1.96456 26.4099 2.23405 26.6929C2.50353 26.9758 2.86889 27.135 3.25 27.1354H3.4375V27.2326C3.4375 28.9642 4.09269 30.625 5.25893 31.8495C6.42517 33.074 8.00693 33.7619 9.65625 33.7619C11.3056 33.7619 12.8873 33.074 14.0536 31.8495C15.2198 30.625 15.875 28.9642 15.875 27.2326V4.82426C15.875 4.38917 16.0396 3.97189 16.3326 3.66423C16.6257 3.35658 17.0231 3.18373 17.4375 3.18373C17.8519 3.18373 18.2493 3.35658 18.5424 3.66423C18.8354 3.97189 19 4.38917 19 4.82426V33.3038C18.9999 33.3642 19.0111 33.424 19.033 33.4798C19.055 33.5356 19.0872 33.5863 19.1278 33.6289C19.1685 33.6716 19.2168 33.7055 19.2699 33.7285C19.3231 33.7515 19.38 33.7633 19.4375 33.7632H21.4375C21.495 33.7633 21.5519 33.7515 21.6051 33.7285C21.6582 33.7055 21.7065 33.6716 21.7472 33.6289C21.7878 33.5863 21.82 33.5356 21.842 33.4798C21.8639 33.424 21.8751 33.3642 21.875 33.3038V4.82426C21.8739 3.58896 21.406 2.40458 20.574 1.53109C19.7421 0.657591 18.6141 0.166344 17.4375 0.165162ZM7.0625 24.4765H2.6875V23.6575H7.0625V24.4765ZM3.7925 2.0183L4.2275 1.08386H5.5225L5.9575 2.0183L5.7225 4.2153C5.71029 4.32315 5.73511 4.43204 5.7925 4.52241L6.09 4.98963H3.66L3.9575 4.52241C4.01489 4.43204 4.03971 4.32315 4.0275 4.2153L3.7925 2.0183ZM3.2825 5.90832H6.4675V6.7929H3.2825V5.90832ZM3.2825 7.71159H6.4675V8.59616H3.2825V7.71159ZM3.2825 9.51486H6.4675V10.8614H3.2825V9.51486ZM0.875 12.3707C0.875198 12.2141 0.934526 12.064 1.03997 11.9533C1.14542 11.8426 1.28838 11.7803 1.4375 11.7801H8.3125C8.46162 11.7803 8.60458 11.8426 8.71003 11.9533C8.81547 12.064 8.8748 12.2141 8.875 12.3707V14.0978H0.875V12.3707ZM0.875 15.0165H8.875V16.7673H0.875V15.0165ZM0.875 17.686H8.875V19.2609H0.875V17.686ZM1.175 20.1796H8.575L7.24 22.7388H2.51L1.175 20.1796ZM3.25 26.2168C3.10088 26.2165 2.95792 26.1543 2.85247 26.0435C2.74703 25.9328 2.6877 25.7827 2.6875 25.6262V25.3952H7.0625V25.6262C7.0623 25.7827 7.00297 25.9328 6.89753 26.0435C6.79208 26.1543 6.64912 26.2165 6.5 26.2168H3.25ZM21 32.8445H19.875V4.82426C19.875 4.14551 19.6182 3.49457 19.1611 3.01462C18.704 2.53467 18.084 2.26504 17.4375 2.26504C16.791 2.26504 16.171 2.53467 15.7139 3.01462C15.2568 3.49457 15 4.14551 15 4.82426V27.2326C15 27.9694 14.8618 28.6989 14.5932 29.3797C14.3247 30.0604 13.9311 30.6789 13.4349 31.1999C12.9386 31.7209 12.3495 32.1341 11.7012 32.4161C11.0529 32.6981 10.358 32.8432 9.65625 32.8432C8.9545 32.8432 8.25962 32.6981 7.61128 32.4161C6.96295 32.1341 6.37386 31.7209 5.87765 31.1999C5.38143 30.6789 4.98782 30.0604 4.71927 29.3797C4.45072 28.6989 4.3125 27.9694 4.3125 27.2326V27.1354H5.4375V27.2326C5.4375 28.4073 5.88197 29.534 6.67314 30.3646C7.46431 31.1953 8.53737 31.662 9.65625 31.662C10.7751 31.662 11.8482 31.1953 12.6394 30.3646C13.4305 29.534 13.875 28.4073 13.875 27.2326V4.82426C13.875 3.83225 14.2503 2.88086 14.9184 2.1794C15.5865 1.47794 16.4927 1.08386 17.4375 1.08386C18.3823 1.08386 19.2885 1.47794 19.9566 2.1794C20.6247 2.88086 21 3.83225 21 4.82426V32.8445Z" fill="white"/>
</svg>
