<svg width="39" height="40" viewBox="0 0 39 40" fill="none" xmlns="http://www.w3.org/2000/svg">
<path d="M36.6833 13.0226C38.0073 11.647 38.7479 9.78963 38.7435 7.85559C38.7392 5.92155 37.9903 4.06772 36.6601 2.69842C35.616 1.64247 34.2831 0.93861 32.8393 0.680792C31.3954 0.422973 29.9094 0.623454 28.5794 1.25548C27.8461 1.60804 27.1783 2.08916 26.606 2.67724L26.2062 2.26671C25.9281 1.98118 25.5509 1.82077 25.1577 1.82077C24.7644 1.82077 24.3873 1.98118 24.1092 2.26671L23.4257 2.96858C23.1482 3.25444 22.9923 3.6416 22.9923 4.04523C22.9923 4.44885 23.1482 4.83601 23.4257 5.12187L23.8409 5.54829C23.3081 6.17744 22.9121 6.91611 22.6795 7.71495C22.4469 8.51379 22.3829 9.35441 22.492 10.1807L10.7174 23.0077C10.3361 23.4433 10.1103 23.9991 10.077 24.5838C10.0437 25.1685 10.205 25.7475 10.5343 26.2257L9.97198 26.8031C9.74239 27.0393 9.61345 27.3593 9.61345 27.693C9.61345 28.0267 9.74239 28.3468 9.97198 28.583L10.3924 29.0147L0.131592 38.565C0.0472923 38.6524 0 38.7704 0 38.8934C0 39.0164 0.0472923 39.1344 0.131592 39.2218C0.216696 39.3084 0.33164 39.3569 0.451427 39.3569C0.571215 39.3569 0.686159 39.3084 0.771262 39.2218L11.0321 29.6715L11.4525 30.1032C11.6825 30.339 11.9942 30.4714 12.3192 30.4714C12.6441 30.4714 12.9558 30.339 13.1858 30.1032L13.7507 29.5259C14.2174 29.8652 14.7829 30.0308 15.3538 29.9952C15.9246 29.9595 16.4665 29.7248 16.8897 29.3299L29.3761 17.2444C30.1802 17.3563 30.9982 17.2908 31.7757 17.0524C32.5531 16.814 33.2721 16.4081 33.8848 15.8618L34.3 16.2883C34.5784 16.5732 34.9555 16.7332 35.3485 16.7332C35.7416 16.7332 36.1186 16.5732 36.397 16.2883L37.0805 15.5864C37.2185 15.4452 37.328 15.2774 37.4027 15.0926C37.4773 14.9079 37.5158 14.7098 37.5158 14.5097C37.5158 14.3097 37.4773 14.1116 37.4027 13.9269C37.328 13.7421 37.2185 13.5743 37.0805 13.4331L36.6833 13.0226ZM27.47 3.1169C29.8402 0.826411 33.7581 1.02664 36.0205 3.35527C37.1821 4.55028 37.8364 6.16847 37.8408 7.85691C37.8451 9.54536 37.1991 11.1671 36.0437 12.3684L27.2456 3.33143C27.3179 3.25727 27.3926 3.18576 27.47 3.1169ZM12.5487 29.449C12.4876 29.5102 12.4057 29.5444 12.3204 29.5444C12.2352 29.5444 12.1533 29.5102 12.0922 29.449L11.3519 28.6889V28.6863H11.3493L10.6091 27.9261C10.5504 27.8629 10.5177 27.779 10.5177 27.6917C10.5177 27.6044 10.5504 27.5205 10.6091 27.4573L11.1466 26.9091L13.0837 28.8981L12.5487 29.449ZM16.2784 28.6492C15.9713 28.9324 15.5701 29.0839 15.1575 29.0726C14.7448 29.0613 14.3521 28.8879 14.0602 28.5883L11.4473 25.9053C11.1563 25.6071 10.9873 25.206 10.9748 24.784C10.9624 24.3621 11.1074 23.9512 11.3803 23.6354L22.7277 11.2745C23.0119 12.1694 23.4969 12.9833 24.1437 13.6503L25.9931 15.552C26.6434 16.2165 27.4369 16.7147 28.3093 17.006C28.3093 17.006 19.0651 25.9527 16.2794 28.6492H16.2784ZM29.2214 16.283C28.2414 16.0998 27.3385 15.6159 26.6318 14.8951L24.7824 12.9961C23.926 12.1009 23.4213 10.9126 23.3652 9.65905C23.309 8.40547 23.7053 7.17468 24.478 6.20249L33.2477 15.2077C32.6945 15.6792 32.047 16.02 31.3512 16.2058C30.6553 16.3916 29.9282 16.418 29.2214 16.283ZM36.4435 14.9295L35.7599 15.6341C35.6507 15.7448 35.5033 15.8069 35.3498 15.8069C35.1963 15.8069 35.049 15.7448 34.9397 15.6341L24.0628 4.46502C23.9553 4.35261 23.8951 4.2014 23.8951 4.0439C23.8951 3.8864 23.9553 3.73519 24.0628 3.62278L24.7489 2.9209C24.8026 2.86549 24.8666 2.82152 24.9369 2.79152C25.0073 2.76152 25.0828 2.74607 25.159 2.74607C25.2352 2.74607 25.3106 2.76152 25.381 2.79152C25.4514 2.82152 25.5153 2.86549 25.5691 2.9209L36.4435 14.0873C36.4974 14.1425 36.5402 14.2082 36.5695 14.2804C36.5987 14.3527 36.6137 14.4302 36.6137 14.5084C36.6137 14.5867 36.5987 14.6641 36.5695 14.7364C36.5402 14.8087 36.4974 14.8743 36.4435 14.9295Z" fill="white"/>
<path d="M18.5393 20.7678C18.261 20.4827 17.8838 20.3225 17.4906 20.3225C17.0974 20.3225 16.7202 20.4827 16.4418 20.7678L14.8233 22.4298C14.5456 22.7157 14.3896 23.103 14.3896 23.5067C14.3896 23.9105 14.5456 24.2978 14.8233 24.5836L15.3477 25.1221C15.6258 25.4076 16.003 25.5681 16.3963 25.5681C16.7896 25.5681 17.1668 25.4076 17.4449 25.1221L19.064 23.4599C19.3416 23.1739 19.4974 22.7867 19.4974 22.3829C19.4974 21.9792 19.3416 21.5919 19.064 21.306L18.5393 20.7678ZM18.4256 22.8046L16.8068 24.4666C16.6964 24.5752 16.5494 24.6358 16.3964 24.6358C16.2435 24.6358 16.0965 24.5752 15.9861 24.4666L15.4617 23.9284C15.3543 23.8158 15.2941 23.6645 15.2941 23.5069C15.2941 23.3493 15.3543 23.1979 15.4617 23.0853L17.0792 21.4234C17.1889 21.3131 17.3362 21.2514 17.4897 21.2514C17.6432 21.2514 17.7905 21.3131 17.9002 21.4234L18.4243 21.9616C18.5331 22.0733 18.5943 22.2248 18.5945 22.3829C18.5947 22.5409 18.5339 22.6925 18.4253 22.8046H18.4256Z" fill="white"/>
</svg>
