<svg width="18" height="38" viewBox="0 0 18 38" fill="none" xmlns="http://www.w3.org/2000/svg">
<path d="M15.1111 7.63092C15.0872 3.68441 12.1463 0.490845 8.51197 0.490845C5.73841 0.516809 3.25176 2.41217 2.29536 5.24224C2.03235 6.02116 1.9128 6.82604 1.9128 7.63092H1.38678C0.621661 7.63092 0.02391 8.30598 0.02391 9.11087L0 10.0975C0 10.9283 0.621661 11.5774 1.36287 11.5774H1.9128C2.00844 13.2391 2.77356 14.745 3.99297 15.7576L4.47118 33.0236C4.519 34.192 5.33194 35.1786 6.40789 35.3863V36.1912C6.40789 36.8663 6.91 37.4115 7.55557 37.4375H8.1055H8.94235H9.49228C10.1139 37.4375 10.6161 36.8923 10.64 36.1912V35.3863C11.7159 35.1786 12.5289 34.192 12.5767 33.0236L13.0549 15.7576C14.2743 14.745 15.0155 13.2391 15.135 11.5774H15.685C16.4501 11.5774 17.0479 10.9024 17.0479 10.0975V9.13683C17.0479 8.30598 16.4262 7.65689 15.685 7.65689L15.1111 7.63092ZM2.74965 7.31936C2.84529 4.0479 5.52322 1.39958 8.51197 1.39958C11.692 1.39958 14.2504 4.17772 14.2743 7.63092H2.74965C2.72574 7.52707 2.74965 7.42321 2.74965 7.31936ZM9.7792 36.1912C9.7792 36.373 9.63574 36.5028 9.46837 36.5288H8.48806H7.50775C7.34038 36.5288 7.22083 36.373 7.19692 36.1912V35.4383H9.73138L9.7792 36.1912ZM11.7159 32.9977C11.6681 33.8545 11.0225 34.5295 10.2335 34.5295H6.79045C6.00142 34.5295 5.35585 33.8545 5.30803 32.9977L4.85374 16.3548C5.61886 16.7702 6.45571 17.0039 7.29256 17.0039H9.70747C10.5682 17.0039 11.4051 16.7702 12.1463 16.3548C12.1702 16.3548 11.8116 29.129 11.7159 32.9977ZM12.2898 15.2124C11.5246 15.7836 10.64 16.0952 9.70747 16.0952H7.29256C4.94938 16.0692 2.98875 14.1479 2.74965 11.6034H14.2504C14.1308 13.0574 13.4135 14.3815 12.2898 15.2124ZM16.1632 9.11087V10.0975C16.1632 10.4091 15.9241 10.6687 15.6372 10.6687H1.36287C1.07595 10.6687 0.836851 10.4091 0.836851 10.0975V9.11087C0.836851 8.7993 1.07595 8.53966 1.36287 8.53966H15.6132C15.9241 8.53966 16.1632 8.7993 16.1632 9.11087Z" fill="white"/>
<path d="M8.15339 25.9094C7.38826 25.9094 6.79051 26.5845 6.7666 27.4153V29.7261C6.7666 30.557 7.38826 31.2061 8.15339 31.232H8.84678C9.6119 31.232 10.2097 30.557 10.2097 29.7521V27.4413C10.2097 26.6105 9.58799 25.9614 8.82287 25.9354L8.15339 25.9094ZM9.3728 27.4153V29.7261C9.3728 30.0377 9.1337 30.2973 8.82287 30.3233H8.12948C7.84256 30.3233 7.60346 30.0637 7.57955 29.7261V27.4153C7.57955 27.1038 7.81865 26.8441 8.12948 26.8182H8.84678C9.1337 26.8182 9.3728 27.0778 9.3728 27.4153Z" fill="white"/>
</svg>
