<svg width="27" height="36" viewBox="0 0 27 36" fill="none" xmlns="http://www.w3.org/2000/svg">
<path d="M23.6706 17.7605H3.038C2.63568 17.761 2.24999 17.9254 1.96551 18.2176C1.68103 18.5098 1.521 18.9059 1.52051 19.3192V31.5852C1.521 31.9984 1.68103 32.3946 1.96551 32.6868C2.24999 32.979 2.63568 33.1433 3.038 33.1438H4.26518V34.2959C4.26525 34.5655 4.36954 34.824 4.55513 35.0146C4.74071 35.2052 4.99239 35.3124 5.25485 35.3124H8.47193C8.73438 35.3124 8.98606 35.2052 9.17165 35.0146C9.35723 34.824 9.46152 34.5655 9.46159 34.2959V33.1438H17.7748V34.2959C17.7753 34.5653 17.8798 34.8235 18.0653 35.0141C18.2507 35.2046 18.5021 35.3119 18.7645 35.3124H21.9815C22.244 35.3124 22.4957 35.2052 22.6813 35.0146C22.8668 34.824 22.9711 34.5655 22.9712 34.2959V33.1438H23.6706C24.073 33.1438 24.4589 32.9795 24.7435 32.6872C25.0281 32.395 25.188 31.9985 25.188 31.5852V19.3192C25.188 18.9058 25.0281 18.5094 24.7435 18.2171C24.4589 17.9248 24.073 17.7606 23.6706 17.7605ZM8.5379 34.2959C8.53797 34.3048 8.53631 34.3137 8.53302 34.3219C8.52973 34.3302 8.52488 34.3377 8.51873 34.344C8.51259 34.3503 8.50529 34.3553 8.49726 34.3587C8.48922 34.362 8.48061 34.3637 8.47193 34.3637H5.25485C5.24617 34.3637 5.23755 34.362 5.22952 34.3587C5.22148 34.3553 5.21418 34.3503 5.20804 34.344C5.2019 34.3377 5.19704 34.3302 5.19375 34.3219C5.19046 34.3137 5.1888 34.3048 5.18887 34.2959V33.1438H8.5379V34.2959ZM22.0475 34.2959C22.0476 34.3048 22.0459 34.3137 22.0426 34.3219C22.0393 34.3302 22.0345 34.3377 22.0283 34.344C22.0222 34.3503 22.0149 34.3553 22.0069 34.3587C21.9988 34.362 21.9902 34.3637 21.9815 34.3637H18.7645C18.7558 34.3637 18.7472 34.362 18.7391 34.3587C18.7311 34.3553 18.7238 34.3503 18.7176 34.344C18.7115 34.3377 18.7066 34.3302 18.7034 34.3219C18.7001 34.3137 18.6984 34.3048 18.6985 34.2959V33.1438H22.0475V34.2959ZM24.2644 31.5852C24.2642 31.7469 24.2015 31.9019 24.0902 32.0162C23.9789 32.1306 23.828 32.1949 23.6706 32.1951H3.038C2.88058 32.1949 2.72966 32.1306 2.61835 32.0162C2.50703 31.9019 2.44441 31.7469 2.4442 31.5852V19.3192C2.44441 19.1575 2.50703 19.0025 2.61835 18.8881C2.72966 18.7738 2.88058 18.7095 3.038 18.7093H23.6706C23.828 18.7095 23.9789 18.7738 24.0902 18.8881C24.2015 19.0025 24.2642 19.1575 24.2644 19.3192V31.5852Z" fill="black"/>
<path d="M23.6706 17.7605H3.038C2.63568 17.761 2.24999 17.9254 1.96551 18.2176C1.68103 18.5098 1.521 18.9059 1.52051 19.3192V31.5852C1.521 31.9984 1.68103 32.3946 1.96551 32.6868C2.24999 32.979 2.63568 33.1433 3.038 33.1438H4.26518V34.2959C4.26525 34.5655 4.36954 34.824 4.55513 35.0146C4.74071 35.2052 4.99239 35.3124 5.25485 35.3124H8.47193C8.73438 35.3124 8.98606 35.2052 9.17165 35.0146C9.35723 34.824 9.46152 34.5655 9.46159 34.2959V33.1438H17.7748V34.2959C17.7753 34.5653 17.8798 34.8235 18.0653 35.0141C18.2507 35.2046 18.5021 35.3119 18.7645 35.3124H21.9815C22.244 35.3124 22.4957 35.2052 22.6813 35.0146C22.8668 34.824 22.9711 34.5655 22.9712 34.2959V33.1438H23.6706C24.073 33.1438 24.4589 32.9795 24.7435 32.6872C25.0281 32.395 25.188 31.9985 25.188 31.5852V19.3192C25.188 18.9058 25.0281 18.5094 24.7435 18.2171C24.4589 17.9248 24.073 17.7606 23.6706 17.7605ZM8.5379 34.2959C8.53797 34.3048 8.53631 34.3137 8.53302 34.3219C8.52973 34.3302 8.52488 34.3377 8.51873 34.344C8.51259 34.3503 8.50529 34.3553 8.49726 34.3587C8.48922 34.362 8.48061 34.3637 8.47193 34.3637H5.25485C5.24617 34.3637 5.23755 34.362 5.22952 34.3587C5.22148 34.3553 5.21418 34.3503 5.20804 34.344C5.2019 34.3377 5.19704 34.3302 5.19375 34.3219C5.19046 34.3137 5.1888 34.3048 5.18887 34.2959V33.1438H8.5379V34.2959ZM22.0475 34.2959C22.0476 34.3048 22.0459 34.3137 22.0426 34.3219C22.0393 34.3302 22.0345 34.3377 22.0283 34.344C22.0222 34.3503 22.0149 34.3553 22.0069 34.3587C21.9988 34.362 21.9902 34.3637 21.9815 34.3637H18.7645C18.7558 34.3637 18.7472 34.362 18.7391 34.3587C18.7311 34.3553 18.7238 34.3503 18.7176 34.344C18.7115 34.3377 18.7066 34.3302 18.7034 34.3219C18.7001 34.3137 18.6984 34.3048 18.6985 34.2959V33.1438H22.0475V34.2959ZM24.2644 31.5852C24.2642 31.7469 24.2015 31.9019 24.0902 32.0162C23.9789 32.1306 23.828 32.1949 23.6706 32.1951H3.038C2.88058 32.1949 2.72966 32.1306 2.61835 32.0162C2.50703 31.9019 2.44441 31.7469 2.4442 31.5852V19.3192C2.44441 19.1575 2.50703 19.0025 2.61835 18.8881C2.72966 18.7738 2.88058 18.7095 3.038 18.7093H23.6706C23.828 18.7095 23.9789 18.7738 24.0902 18.8881C24.2015 19.0025 24.2642 19.1575 24.2644 19.3192V31.5852Z" fill="white"/>
<path d="M8.40718 21.198C7.58801 21.1981 6.78726 21.4476 6.10618 21.9151C5.4251 22.3826 4.89427 23.047 4.58083 23.8244C4.26738 24.6017 4.1854 25.4571 4.34524 26.2823C4.50509 27.1076 4.89958 27.8656 5.47883 28.4605C6.05808 29.0554 6.79608 29.4606 7.59951 29.6247C8.40294 29.7888 9.2357 29.7046 9.99251 29.3826C10.7493 29.0606 11.3962 28.5153 11.8513 27.8157C12.3063 27.1161 12.5493 26.2936 12.5493 25.4522C12.548 24.3243 12.1112 23.2429 11.3347 22.4454C10.5581 21.6478 9.50531 21.1992 8.40718 21.198ZM8.40718 28.7579C7.77071 28.7579 7.14856 28.564 6.61938 28.2008C6.0902 27.8375 5.67777 27.3213 5.43423 26.7173C5.19069 26.1133 5.12698 25.4487 5.25116 24.8076C5.37534 24.1664 5.68183 23.5774 6.13188 23.1152C6.58193 22.6529 7.15532 22.3381 7.77955 22.2105C8.40378 22.083 9.05082 22.1484 9.63884 22.3986C10.2269 22.6487 10.7295 23.0724 11.0831 23.6159C11.4367 24.1594 11.6255 24.7985 11.6256 25.4522C11.6245 26.3286 11.2851 27.1688 10.6817 27.7884C10.0784 28.4081 9.2604 28.7567 8.40718 28.7577V28.7579Z" fill="black"/>
<path d="M8.40718 21.198C7.58801 21.1981 6.78726 21.4476 6.10618 21.9151C5.4251 22.3826 4.89427 23.047 4.58083 23.8244C4.26738 24.6017 4.1854 25.4571 4.34524 26.2823C4.50509 27.1076 4.89958 27.8656 5.47883 28.4605C6.05808 29.0554 6.79608 29.4606 7.59951 29.6247C8.40294 29.7888 9.2357 29.7046 9.99251 29.3826C10.7493 29.0606 11.3962 28.5153 11.8513 27.8157C12.3063 27.1161 12.5493 26.2936 12.5493 25.4522C12.548 24.3243 12.1112 23.2429 11.3347 22.4454C10.5581 21.6478 9.50531 21.1992 8.40718 21.198ZM8.40718 28.7579C7.77071 28.7579 7.14856 28.564 6.61938 28.2008C6.0902 27.8375 5.67777 27.3213 5.43423 26.7173C5.19069 26.1133 5.12698 25.4487 5.25116 24.8076C5.37534 24.1664 5.68183 23.5774 6.13188 23.1152C6.58193 22.6529 7.15532 22.3381 7.77955 22.2105C8.40378 22.083 9.05082 22.1484 9.63884 22.3986C10.2269 22.6487 10.7295 23.0724 11.0831 23.6159C11.4367 24.1594 11.6255 24.7985 11.6256 25.4522C11.6245 26.3286 11.2851 27.1688 10.6817 27.7884C10.0784 28.4081 9.2604 28.7567 8.40718 28.7577V28.7579Z" fill="white"/>
<path d="M8.40673 23.7186C8.07292 23.7186 7.74659 23.8202 7.46901 24.0106C7.19144 24.2011 6.97508 24.4718 6.8473 24.7886C6.71952 25.1053 6.68606 25.4539 6.75115 25.7902C6.81624 26.1264 6.97696 26.4353 7.21298 26.6778C7.449 26.9203 7.74972 27.0854 8.07711 27.1523C8.4045 27.2192 8.74386 27.1849 9.05226 27.0537C9.36067 26.9225 9.62427 26.7003 9.80973 26.4152C9.99519 26.1302 10.0942 25.795 10.0942 25.4521C10.0938 24.9925 9.91594 24.5519 9.59956 24.2269C9.28319 23.9018 8.85418 23.7191 8.40673 23.7186ZM8.40673 26.2366C8.25561 26.2367 8.10787 26.1907 7.98219 26.1045C7.85651 26.0183 7.75854 25.8958 7.70067 25.7524C7.64281 25.609 7.62764 25.4512 7.65709 25.2989C7.68654 25.1467 7.75928 25.0068 7.86612 24.8971C7.97296 24.7873 8.1091 24.7125 8.25731 24.6822C8.40553 24.6519 8.55916 24.6674 8.69878 24.7268C8.8384 24.7862 8.95774 24.8868 9.04171 25.0158C9.12567 25.1449 9.17049 25.2966 9.17049 25.4519C9.17021 25.6599 9.08967 25.8593 8.94651 26.0065C8.80335 26.1536 8.60925 26.2365 8.40673 26.2369V26.2366Z" fill="black"/>
<path d="M8.40673 23.7186C8.07292 23.7186 7.74659 23.8202 7.46901 24.0106C7.19144 24.2011 6.97508 24.4718 6.8473 24.7886C6.71952 25.1053 6.68606 25.4539 6.75115 25.7902C6.81624 26.1264 6.97696 26.4353 7.21298 26.6778C7.449 26.9203 7.74972 27.0854 8.07711 27.1523C8.4045 27.2192 8.74386 27.1849 9.05226 27.0537C9.36067 26.9225 9.62427 26.7003 9.80973 26.4152C9.99519 26.1302 10.0942 25.795 10.0942 25.4521C10.0938 24.9925 9.91594 24.5519 9.59956 24.2269C9.28319 23.9018 8.85418 23.7191 8.40673 23.7186ZM8.40673 26.2366C8.25561 26.2367 8.10787 26.1907 7.98219 26.1045C7.85651 26.0183 7.75854 25.8958 7.70067 25.7524C7.64281 25.609 7.62764 25.4512 7.65709 25.2989C7.68654 25.1467 7.75928 25.0068 7.86612 24.8971C7.97296 24.7873 8.1091 24.7125 8.25731 24.6822C8.40553 24.6519 8.55916 24.6674 8.69878 24.7268C8.8384 24.7862 8.95774 24.8868 9.04171 25.0158C9.12567 25.1449 9.17049 25.2966 9.17049 25.4519C9.17021 25.6599 9.08967 25.8593 8.94651 26.0065C8.80335 26.1536 8.60925 26.2365 8.40673 26.2369V26.2366Z" fill="white"/>
<path d="M18.3029 23.7186C17.9691 23.7186 17.6428 23.8203 17.3653 24.0108C17.0878 24.2013 16.8714 24.472 16.7437 24.7887C16.616 25.1055 16.5825 25.4541 16.6477 25.7903C16.7128 26.1266 16.8735 26.4355 17.1096 26.6779C17.3456 26.9203 17.6463 27.0854 17.9737 27.1523C18.3011 27.2192 18.6404 27.1849 18.9488 27.0537C19.2572 26.9225 19.5208 26.7003 19.7062 26.4152C19.8917 26.1301 19.9907 25.795 19.9907 25.4521C19.9903 24.9925 19.8124 24.5518 19.496 24.2268C19.1795 23.9017 18.7504 23.719 18.3029 23.7186ZM18.3029 26.2366C18.1518 26.2366 18.0041 26.1906 17.8785 26.1044C17.7528 26.0181 17.6549 25.8956 17.5971 25.7522C17.5393 25.6088 17.5241 25.451 17.5536 25.2988C17.5831 25.1465 17.6559 25.0067 17.7627 24.897C17.8696 24.7872 18.0057 24.7125 18.1539 24.6822C18.3021 24.6519 18.4557 24.6674 18.5953 24.7268C18.7349 24.7862 18.8543 24.8868 18.9382 25.0159C19.0222 25.1449 19.067 25.2967 19.067 25.4519C19.0667 25.6599 18.9861 25.8594 18.8429 26.0065C18.6997 26.1537 18.5055 26.2365 18.3029 26.2369V26.2366Z" fill="black"/>
<path d="M18.3029 23.7186C17.9691 23.7186 17.6428 23.8203 17.3653 24.0108C17.0878 24.2013 16.8714 24.472 16.7437 24.7887C16.616 25.1055 16.5825 25.4541 16.6477 25.7903C16.7128 26.1266 16.8735 26.4355 17.1096 26.6779C17.3456 26.9203 17.6463 27.0854 17.9737 27.1523C18.3011 27.2192 18.6404 27.1849 18.9488 27.0537C19.2572 26.9225 19.5208 26.7003 19.7062 26.4152C19.8917 26.1301 19.9907 25.795 19.9907 25.4521C19.9903 24.9925 19.8124 24.5518 19.496 24.2268C19.1795 23.9017 18.7504 23.719 18.3029 23.7186ZM18.3029 26.2366C18.1518 26.2366 18.0041 26.1906 17.8785 26.1044C17.7528 26.0181 17.6549 25.8956 17.5971 25.7522C17.5393 25.6088 17.5241 25.451 17.5536 25.2988C17.5831 25.1465 17.6559 25.0067 17.7627 24.897C17.8696 24.7872 18.0057 24.7125 18.1539 24.6822C18.3021 24.6519 18.4557 24.6674 18.5953 24.7268C18.7349 24.7862 18.8543 24.8868 18.9382 25.0159C19.0222 25.1449 19.067 25.2967 19.067 25.4519C19.0667 25.6599 18.9861 25.8594 18.8429 26.0065C18.6997 26.1537 18.5055 26.2365 18.3029 26.2369V26.2366Z" fill="white"/>
<path d="M18.3029 21.198C17.4838 21.198 16.683 21.4475 16.0019 21.915C15.3208 22.3824 14.7899 23.0468 14.4764 23.8242C14.1629 24.6015 14.0809 25.4569 14.2407 26.2822C14.4005 27.1074 14.795 27.8654 15.3742 28.4604C15.9535 29.0554 16.6915 29.4605 17.4949 29.6247C18.2984 29.7888 19.1311 29.7046 19.888 29.3826C20.6448 29.0606 21.2916 28.5153 21.7467 27.8157C22.2019 27.1161 22.4448 26.2936 22.4448 25.4522C22.4435 24.3243 22.0067 23.243 21.2303 22.4455C20.4538 21.6479 19.401 21.1993 18.3029 21.198ZM18.3029 28.7579C17.6665 28.7579 17.0443 28.5641 16.5151 28.2009C15.9859 27.8377 15.5734 27.3215 15.3298 26.7175C15.0862 26.1135 15.0225 25.4489 15.1466 24.8077C15.2708 24.1665 15.5773 23.5776 16.0273 23.1153C16.4773 22.653 17.0507 22.3381 17.675 22.2106C18.2992 22.083 18.9462 22.1484 19.5343 22.3986C20.1223 22.6487 20.625 23.0723 20.9786 23.6159C21.3322 24.1594 21.521 24.7985 21.5211 25.4522C21.52 26.3285 21.1806 27.1687 20.5774 27.7883C19.9741 28.408 19.1561 28.7566 18.3029 28.7577V28.7579Z" fill="black"/>
<path d="M18.3029 21.198C17.4838 21.198 16.683 21.4475 16.0019 21.915C15.3208 22.3824 14.7899 23.0468 14.4764 23.8242C14.1629 24.6015 14.0809 25.4569 14.2407 26.2822C14.4005 27.1074 14.795 27.8654 15.3742 28.4604C15.9535 29.0554 16.6915 29.4605 17.4949 29.6247C18.2984 29.7888 19.1311 29.7046 19.888 29.3826C20.6448 29.0606 21.2916 28.5153 21.7467 27.8157C22.2019 27.1161 22.4448 26.2936 22.4448 25.4522C22.4435 24.3243 22.0067 23.243 21.2303 22.4455C20.4538 21.6479 19.401 21.1993 18.3029 21.198ZM18.3029 28.7579C17.6665 28.7579 17.0443 28.5641 16.5151 28.2009C15.9859 27.8377 15.5734 27.3215 15.3298 26.7175C15.0862 26.1135 15.0225 25.4489 15.1466 24.8077C15.2708 24.1665 15.5773 23.5776 16.0273 23.1153C16.4773 22.653 17.0507 22.3381 17.675 22.2106C18.2992 22.083 18.9462 22.1484 19.5343 22.3986C20.1223 22.6487 20.625 23.0723 20.9786 23.6159C21.3322 24.1594 21.521 24.7985 21.5211 25.4522C21.52 26.3285 21.1806 27.1687 20.5774 27.7883C19.9741 28.408 19.1561 28.7566 18.3029 28.7577V28.7579Z" fill="white"/>
<path d="M3.83026 20.8779C4.23109 20.8779 4.55603 20.5441 4.55603 20.1324C4.55603 19.7207 4.23109 19.387 3.83026 19.387C3.42943 19.387 3.10449 19.7207 3.10449 20.1324C3.10449 20.5441 3.42943 20.8779 3.83026 20.8779Z" fill="black"/>
<path d="M3.83026 20.8779C4.23109 20.8779 4.55603 20.5441 4.55603 20.1324C4.55603 19.7207 4.23109 19.387 3.83026 19.387C3.42943 19.387 3.10449 19.7207 3.10449 20.1324C3.10449 20.5441 3.42943 20.8779 3.83026 20.8779Z" fill="white"/>
<path d="M3.83026 31.5174C4.23109 31.5174 4.55603 31.1836 4.55603 30.7719C4.55603 30.3602 4.23109 30.0265 3.83026 30.0265C3.42943 30.0265 3.10449 30.3602 3.10449 30.7719C3.10449 31.1836 3.42943 31.5174 3.83026 31.5174Z" fill="black"/>
<path d="M3.83026 31.5174C4.23109 31.5174 4.55603 31.1836 4.55603 30.7719C4.55603 30.3602 4.23109 30.0265 3.83026 30.0265C3.42943 30.0265 3.10449 30.3602 3.10449 30.7719C3.10449 31.1836 3.42943 31.5174 3.83026 31.5174Z" fill="white"/>
<path d="M22.8801 20.8779C23.2809 20.8779 23.6058 20.5441 23.6058 20.1324C23.6058 19.7207 23.2809 19.387 22.8801 19.387C22.4792 19.387 22.1543 19.7207 22.1543 20.1324C22.1543 20.5441 22.4792 20.8779 22.8801 20.8779Z" fill="black"/>
<path d="M22.8801 20.8779C23.2809 20.8779 23.6058 20.5441 23.6058 20.1324C23.6058 19.7207 23.2809 19.387 22.8801 19.387C22.4792 19.387 22.1543 19.7207 22.1543 20.1324C22.1543 20.5441 22.4792 20.8779 22.8801 20.8779Z" fill="white"/>
<path d="M22.8801 31.5174C23.2809 31.5174 23.6058 31.1836 23.6058 30.7719C23.6058 30.3602 23.2809 30.0265 22.8801 30.0265C22.4792 30.0265 22.1543 30.3602 22.1543 30.7719C22.1543 31.1836 22.4792 31.5174 22.8801 31.5174Z" fill="black"/>
<path d="M22.8801 31.5174C23.2809 31.5174 23.6058 31.1836 23.6058 30.7719C23.6058 30.3602 23.2809 30.0265 22.8801 30.0265C22.4792 30.0265 22.1543 30.3602 22.1543 30.7719C22.1543 31.1836 22.4792 31.5174 22.8801 31.5174Z" fill="white"/>
<path d="M13.6193 20.8779C14.0202 20.8779 14.3451 20.5441 14.3451 20.1324C14.3451 19.7207 14.0202 19.387 13.6193 19.387C13.2185 19.387 12.8936 19.7207 12.8936 20.1324C12.8936 20.5441 13.2185 20.8779 13.6193 20.8779Z" fill="black"/>
<path d="M13.6193 20.8779C14.0202 20.8779 14.3451 20.5441 14.3451 20.1324C14.3451 19.7207 14.0202 19.387 13.6193 19.387C13.2185 19.387 12.8936 19.7207 12.8936 20.1324C12.8936 20.5441 13.2185 20.8779 13.6193 20.8779Z" fill="white"/>
<path d="M13.6193 31.5174C14.0202 31.5174 14.3451 31.1836 14.3451 30.7719C14.3451 30.3602 14.0202 30.0265 13.6193 30.0265C13.2185 30.0265 12.8936 30.3602 12.8936 30.7719C12.8936 31.1836 13.2185 31.5174 13.6193 31.5174Z" fill="black"/>
<path d="M13.6193 31.5174C14.0202 31.5174 14.3451 31.1836 14.3451 30.7719C14.3451 30.3602 14.0202 30.0265 13.6193 30.0265C13.2185 30.0265 12.8936 30.3602 12.8936 30.7719C12.8936 31.1836 13.2185 31.5174 13.6193 31.5174Z" fill="white"/>
<path d="M10.1549 10.6968C10.1932 10.7452 10.2404 10.7852 10.2939 10.8148C10.3473 10.8443 10.4059 10.8627 10.4663 10.8689C10.5266 10.8752 10.5876 10.8691 10.6457 10.851C10.7037 10.833 10.7578 10.8033 10.8047 10.7638L12.9424 8.96848V12.8256C12.9442 12.9146 12.9702 13.0013 13.0173 13.076C13.0644 13.1507 13.1308 13.2105 13.2092 13.2486C13.2875 13.2867 13.3746 13.3017 13.4607 13.2919C13.5469 13.282 13.6286 13.2477 13.6969 13.1929L16.5893 10.7641C16.6423 10.7196 16.685 10.6636 16.7144 10.6001C16.7437 10.5366 16.7589 10.4672 16.7589 10.3969C16.7589 10.3266 16.7437 10.2572 16.7144 10.1937C16.685 10.1302 16.6423 10.0742 16.5893 10.0297L14.135 7.96823L16.5893 5.90672C16.6423 5.86226 16.685 5.80625 16.7144 5.74275C16.7437 5.67924 16.7589 5.60984 16.7589 5.53956C16.7589 5.46927 16.7437 5.39987 16.7144 5.33637C16.685 5.27286 16.6423 5.21685 16.5893 5.17239L13.6969 2.74358C13.6286 2.689 13.547 2.65494 13.461 2.64522C13.375 2.63549 13.2881 2.65048 13.2099 2.6885C13.1318 2.72653 13.0654 2.7861 13.0182 2.86058C12.9711 2.93506 12.945 3.02153 12.9429 3.11034V6.96743L10.8052 5.17212C10.7101 5.09552 10.5895 5.06026 10.4694 5.07391C10.3493 5.08756 10.2392 5.14903 10.1627 5.24513C10.0862 5.34124 10.0494 5.46431 10.0602 5.58795C10.0711 5.71158 10.1286 5.82593 10.2206 5.90645L12.675 7.96796L10.2206 10.0295C10.1736 10.0688 10.1346 10.1173 10.1059 10.1722C10.0772 10.227 10.0592 10.2872 10.0531 10.3492C10.047 10.4111 10.0529 10.4737 10.0703 10.5334C10.0878 10.5931 10.1165 10.6486 10.1549 10.6968ZM13.8666 4.11196L15.5688 5.53915L13.8666 6.96743V4.11196ZM13.8666 8.96984L15.5688 10.3968L13.8666 11.825V8.96984Z" fill="black"/>
<path d="M10.1549 10.6968C10.1932 10.7452 10.2404 10.7852 10.2939 10.8148C10.3473 10.8443 10.4059 10.8627 10.4663 10.8689C10.5266 10.8752 10.5876 10.8691 10.6457 10.851C10.7037 10.833 10.7578 10.8033 10.8047 10.7638L12.9424 8.96848V12.8256C12.9442 12.9146 12.9702 13.0013 13.0173 13.076C13.0644 13.1507 13.1308 13.2105 13.2092 13.2486C13.2875 13.2867 13.3746 13.3017 13.4607 13.2919C13.5469 13.282 13.6286 13.2477 13.6969 13.1929L16.5893 10.7641C16.6423 10.7196 16.685 10.6636 16.7144 10.6001C16.7437 10.5366 16.7589 10.4672 16.7589 10.3969C16.7589 10.3266 16.7437 10.2572 16.7144 10.1937C16.685 10.1302 16.6423 10.0742 16.5893 10.0297L14.135 7.96823L16.5893 5.90672C16.6423 5.86226 16.685 5.80625 16.7144 5.74275C16.7437 5.67924 16.7589 5.60984 16.7589 5.53956C16.7589 5.46927 16.7437 5.39987 16.7144 5.33637C16.685 5.27286 16.6423 5.21685 16.5893 5.17239L13.6969 2.74358C13.6286 2.689 13.547 2.65494 13.461 2.64522C13.375 2.63549 13.2881 2.65048 13.2099 2.6885C13.1318 2.72653 13.0654 2.7861 13.0182 2.86058C12.9711 2.93506 12.945 3.02153 12.9429 3.11034V6.96743L10.8052 5.17212C10.7101 5.09552 10.5895 5.06026 10.4694 5.07391C10.3493 5.08756 10.2392 5.14903 10.1627 5.24513C10.0862 5.34124 10.0494 5.46431 10.0602 5.58795C10.0711 5.71158 10.1286 5.82593 10.2206 5.90645L12.675 7.96796L10.2206 10.0295C10.1736 10.0688 10.1346 10.1173 10.1059 10.1722C10.0772 10.227 10.0592 10.2872 10.0531 10.3492C10.047 10.4111 10.0529 10.4737 10.0703 10.5334C10.0878 10.5931 10.1165 10.6486 10.1549 10.6968ZM13.8666 4.11196L15.5688 5.53915L13.8666 6.96743V4.11196ZM13.8666 8.96984L15.5688 10.3968L13.8666 11.825V8.96984Z" fill="white"/>
<path d="M9.50159 13.1713L13.1805 15.2612C13.2492 15.3003 13.3264 15.3209 13.4048 15.3209C13.4833 15.3209 13.5605 15.3003 13.6292 15.2612L17.3081 13.1686C17.7097 12.9403 18.0445 12.6057 18.2775 12.1995C18.5105 11.7934 18.6332 11.3305 18.6329 10.859V5.07704C18.6329 4.6053 18.5101 4.14215 18.2771 3.73559C18.0442 3.32903 17.7096 2.99385 17.3081 2.7648L13.6292 0.674828C13.5604 0.63613 13.4833 0.615845 13.4048 0.615845C13.3264 0.615845 13.2493 0.63613 13.1805 0.674828L9.50159 2.7648C9.10009 2.99385 8.76553 3.32903 8.53258 3.73559C8.29963 4.14215 8.17678 4.6053 8.17676 5.07704V10.859C8.17678 11.3308 8.29963 11.7939 8.53258 12.2005C8.76553 12.607 9.10009 12.9422 9.50159 13.1713ZM9.10045 5.07704C9.10033 4.77484 9.17911 4.47813 9.32857 4.21782C9.47803 3.95751 9.69271 3.74312 9.95024 3.59699L13.4048 1.63171L16.8594 3.59699C17.117 3.74312 17.3317 3.95751 17.4811 4.21782C17.6306 4.47813 17.7094 4.77484 17.7092 5.07704V10.859C17.7094 11.1612 17.6306 11.4579 17.4811 11.7182C17.3317 11.9786 17.117 12.1929 16.8594 12.3391L13.4048 14.3043L9.95024 12.3391C9.69271 12.1929 9.47803 11.9786 9.32857 11.7182C9.17911 11.4579 9.10033 11.1612 9.10045 10.859V5.07704Z" fill="black"/>
<path d="M9.50159 13.1713L13.1805 15.2612C13.2492 15.3003 13.3264 15.3209 13.4048 15.3209C13.4833 15.3209 13.5605 15.3003 13.6292 15.2612L17.3081 13.1686C17.7097 12.9403 18.0445 12.6057 18.2775 12.1995C18.5105 11.7934 18.6332 11.3305 18.6329 10.859V5.07704C18.6329 4.6053 18.5101 4.14215 18.2771 3.73559C18.0442 3.32903 17.7096 2.99385 17.3081 2.7648L13.6292 0.674828C13.5604 0.63613 13.4833 0.615845 13.4048 0.615845C13.3264 0.615845 13.2493 0.63613 13.1805 0.674828L9.50159 2.7648C9.10009 2.99385 8.76553 3.32903 8.53258 3.73559C8.29963 4.14215 8.17678 4.6053 8.17676 5.07704V10.859C8.17678 11.3308 8.29963 11.7939 8.53258 12.2005C8.76553 12.607 9.10009 12.9422 9.50159 13.1713ZM9.10045 5.07704C9.10033 4.77484 9.17911 4.47813 9.32857 4.21782C9.47803 3.95751 9.69271 3.74312 9.95024 3.59699L13.4048 1.63171L16.8594 3.59699C17.117 3.74312 17.3317 3.95751 17.4811 4.21782C17.6306 4.47813 17.7094 4.77484 17.7092 5.07704V10.859C17.7094 11.1612 17.6306 11.4579 17.4811 11.7182C17.3317 11.9786 17.117 12.1929 16.8594 12.3391L13.4048 14.3043L9.95024 12.3391C9.69271 12.1929 9.47803 11.9786 9.32857 11.7182C9.17911 11.4579 9.10033 11.1612 9.10045 10.859V5.07704Z" fill="white"/>
<path d="M26.164 3.7404C26.1263 3.6207 26.0438 3.52129 25.9347 3.46405C25.8256 3.40681 25.6989 3.39642 25.5823 3.43517C25.4658 3.47392 25.369 3.55863 25.3133 3.67068C25.2575 3.78272 25.2474 3.91291 25.2851 4.03261C26.0872 6.59147 26.0872 9.34434 25.2851 11.9032C25.2474 12.0229 25.2575 12.1531 25.3133 12.2651C25.369 12.3772 25.4658 12.4619 25.5823 12.5006C25.6989 12.5394 25.8256 12.529 25.9347 12.4718C26.0438 12.4145 26.1263 12.3151 26.164 12.1954C27.0258 9.44658 27.0258 6.48923 26.164 3.7404Z" fill="black"/>
<path d="M26.164 3.7404C26.1263 3.6207 26.0438 3.52129 25.9347 3.46405C25.8256 3.40681 25.6989 3.39642 25.5823 3.43517C25.4658 3.47392 25.369 3.55863 25.3133 3.67068C25.2575 3.78272 25.2474 3.91291 25.2851 4.03261C26.0872 6.59147 26.0872 9.34434 25.2851 11.9032C25.2474 12.0229 25.2575 12.1531 25.3133 12.2651C25.369 12.3772 25.4658 12.4619 25.5823 12.5006C25.6989 12.5394 25.8256 12.529 25.9347 12.4718C26.0438 12.4145 26.1263 12.3151 26.164 12.1954C27.0258 9.44658 27.0258 6.48923 26.164 3.7404Z" fill="white"/>
<path d="M23.0687 11.6714C23.1851 11.7098 23.3116 11.6992 23.4204 11.642C23.5292 11.5848 23.6115 11.4856 23.6493 11.3662C24.3427 9.15673 24.3427 6.77932 23.6493 4.56986C23.6116 4.45016 23.5291 4.35076 23.42 4.29352C23.3109 4.23628 23.1842 4.22589 23.0677 4.26464C22.9511 4.30339 22.8543 4.3881 22.7986 4.50014C22.7429 4.61219 22.7328 4.74238 22.7705 4.86208C23.4041 6.88156 23.4041 9.05448 22.7705 11.074C22.7518 11.1333 22.7448 11.1958 22.7496 11.258C22.7545 11.3202 22.7713 11.3807 22.799 11.4362C22.8267 11.4917 22.8648 11.541 22.9111 11.5814C22.9573 11.6217 23.0109 11.6523 23.0687 11.6714Z" fill="black"/>
<path d="M23.0687 11.6714C23.1851 11.7098 23.3116 11.6992 23.4204 11.642C23.5292 11.5848 23.6115 11.4856 23.6493 11.3662C24.3427 9.15673 24.3427 6.77932 23.6493 4.56986C23.6116 4.45016 23.5291 4.35076 23.42 4.29352C23.3109 4.23628 23.1842 4.22589 23.0677 4.26464C22.9511 4.30339 22.8543 4.3881 22.7986 4.50014C22.7429 4.61219 22.7328 4.74238 22.7705 4.86208C23.4041 6.88156 23.4041 9.05448 22.7705 11.074C22.7518 11.1333 22.7448 11.1958 22.7496 11.258C22.7545 11.3202 22.7713 11.3807 22.799 11.4362C22.8267 11.4917 22.8648 11.541 22.9111 11.5814C22.9573 11.6217 23.0109 11.6523 23.0687 11.6714Z" fill="white"/>
<path d="M20.6081 7.96807C20.6086 8.71406 20.4994 9.45584 20.2843 10.1684C20.2655 10.2281 20.2585 10.291 20.2635 10.3535C20.2686 10.416 20.2857 10.4769 20.3138 10.5326C20.3419 10.5883 20.3805 10.6377 20.4274 10.678C20.4742 10.7183 20.5284 10.7486 20.5867 10.7672C20.645 10.7858 20.7064 10.7924 20.7672 10.7865C20.828 10.7806 20.8871 10.7624 20.941 10.7329C20.9949 10.7034 21.0425 10.6632 21.0812 10.6146C21.1199 10.5661 21.1488 10.5101 21.1663 10.45C21.6629 8.80348 21.6537 7.03981 21.1399 5.39884C21.122 5.33863 21.0927 5.28267 21.0535 5.23423C21.0144 5.1858 20.9662 5.14585 20.9119 5.11671C20.8576 5.08758 20.7981 5.06985 20.7371 5.06455C20.676 5.05925 20.6145 5.06649 20.5562 5.08585C20.4978 5.1052 20.4439 5.13629 20.3974 5.17729C20.3508 5.2183 20.3128 5.2684 20.2853 5.32468C20.2578 5.38096 20.2415 5.44229 20.2374 5.5051C20.2332 5.56791 20.2413 5.63094 20.2611 5.69052C20.492 6.4264 20.6091 7.19492 20.6081 7.96807Z" fill="black"/>
<path d="M20.6081 7.96807C20.6086 8.71406 20.4994 9.45584 20.2843 10.1684C20.2655 10.2281 20.2585 10.291 20.2635 10.3535C20.2686 10.416 20.2857 10.4769 20.3138 10.5326C20.3419 10.5883 20.3805 10.6377 20.4274 10.678C20.4742 10.7183 20.5284 10.7486 20.5867 10.7672C20.645 10.7858 20.7064 10.7924 20.7672 10.7865C20.828 10.7806 20.8871 10.7624 20.941 10.7329C20.9949 10.7034 21.0425 10.6632 21.0812 10.6146C21.1199 10.5661 21.1488 10.5101 21.1663 10.45C21.6629 8.80348 21.6537 7.03981 21.1399 5.39884C21.122 5.33863 21.0927 5.28267 21.0535 5.23423C21.0144 5.1858 20.9662 5.14585 20.9119 5.11671C20.8576 5.08758 20.7981 5.06985 20.7371 5.06455C20.676 5.05925 20.6145 5.06649 20.5562 5.08585C20.4978 5.1052 20.4439 5.13629 20.3974 5.17729C20.3508 5.2183 20.3128 5.2684 20.2853 5.32468C20.2578 5.38096 20.2415 5.44229 20.2374 5.5051C20.2332 5.56791 20.2413 5.63094 20.2611 5.69052C20.492 6.4264 20.6091 7.19492 20.6081 7.96807Z" fill="white"/>
<path d="M1.52522 11.9034C0.723164 9.34458 0.723164 6.59171 1.52522 4.03286C1.5439 3.97359 1.55103 3.91112 1.5462 3.84902C1.54138 3.78692 1.52469 3.7264 1.4971 3.67092C1.4695 3.61544 1.43154 3.56609 1.38538 3.52568C1.33921 3.48527 1.28575 3.4546 1.22805 3.43541C1.17034 3.41623 1.10952 3.4089 1.04906 3.41386C0.988598 3.41881 0.929679 3.43595 0.875666 3.46429C0.821653 3.49264 0.773604 3.53163 0.734262 3.57904C0.69492 3.62646 0.665057 3.68137 0.646376 3.74064C-0.215459 6.48947 -0.215459 9.44682 0.646376 12.1957C0.684103 12.3154 0.766581 12.4148 0.875666 12.472C0.98475 12.5292 1.11151 12.5396 1.22805 12.5009C1.34459 12.4621 1.44137 12.3774 1.4971 12.2654C1.55283 12.1533 1.56294 12.0231 1.52522 11.9034Z" fill="black"/>
<path d="M1.52522 11.9034C0.723164 9.34458 0.723164 6.59171 1.52522 4.03286C1.5439 3.97359 1.55103 3.91112 1.5462 3.84902C1.54138 3.78692 1.52469 3.7264 1.4971 3.67092C1.4695 3.61544 1.43154 3.56609 1.38538 3.52568C1.33921 3.48527 1.28575 3.4546 1.22805 3.43541C1.17034 3.41623 1.10952 3.4089 1.04906 3.41386C0.988598 3.41881 0.929679 3.43595 0.875666 3.46429C0.821653 3.49264 0.773604 3.53163 0.734262 3.57904C0.69492 3.62646 0.665057 3.68137 0.646376 3.74064C-0.215459 6.48947 -0.215459 9.44682 0.646376 12.1957C0.684103 12.3154 0.766581 12.4148 0.875666 12.472C0.98475 12.5292 1.11151 12.5396 1.22805 12.5009C1.34459 12.4621 1.44137 12.3774 1.4971 12.2654C1.55283 12.1533 1.56294 12.0231 1.52522 11.9034Z" fill="white"/>
<path d="M3.59814 11.6945C3.67099 11.6945 3.7428 11.6768 3.80771 11.6428C3.87262 11.6089 3.9288 11.5596 3.97164 11.4991C4.01449 11.4386 4.0428 11.3686 4.05425 11.2947C4.06571 11.2208 4.05998 11.1452 4.03755 11.074C3.4039 9.05448 3.4039 6.88156 4.03755 4.86208C4.05623 4.80281 4.06336 4.74034 4.05853 4.67824C4.05371 4.61614 4.03702 4.55562 4.00943 4.50014C3.98184 4.44467 3.94388 4.39531 3.89771 4.35491C3.85155 4.3145 3.79809 4.28382 3.74039 4.26464C3.68269 4.24545 3.62187 4.23813 3.56141 4.24308C3.50095 4.24804 3.44203 4.26517 3.38802 4.29352C3.27894 4.35076 3.19647 4.45016 3.15874 4.56986C2.46532 6.77932 2.46532 9.15673 3.15874 11.3662C3.18888 11.4615 3.24762 11.5446 3.32655 11.6036C3.40547 11.6626 3.50055 11.6944 3.59814 11.6945Z" fill="black"/>
<path d="M3.59814 11.6945C3.67099 11.6945 3.7428 11.6768 3.80771 11.6428C3.87262 11.6089 3.9288 11.5596 3.97164 11.4991C4.01449 11.4386 4.0428 11.3686 4.05425 11.2947C4.06571 11.2208 4.05998 11.1452 4.03755 11.074C3.4039 9.05448 3.4039 6.88156 4.03755 4.86208C4.05623 4.80281 4.06336 4.74034 4.05853 4.67824C4.05371 4.61614 4.03702 4.55562 4.00943 4.50014C3.98184 4.44467 3.94388 4.39531 3.89771 4.35491C3.85155 4.3145 3.79809 4.28382 3.74039 4.26464C3.68269 4.24545 3.62187 4.23813 3.56141 4.24308C3.50095 4.24804 3.44203 4.26517 3.38802 4.29352C3.27894 4.35076 3.19647 4.45016 3.15874 4.56986C2.46532 6.77932 2.46532 9.15673 3.15874 11.3662C3.18888 11.4615 3.24762 11.5446 3.32655 11.6036C3.40547 11.6626 3.50055 11.6944 3.59814 11.6945Z" fill="white"/>
<path d="M6.08405 10.7837C6.15647 10.7837 6.22789 10.7663 6.29253 10.7327C6.35718 10.6992 6.41324 10.6505 6.45618 10.5906C6.49913 10.5307 6.52777 10.4613 6.53978 10.388C6.55178 10.3146 6.54683 10.2394 6.52531 10.1684C6.08566 8.70859 6.09405 7.14522 6.54933 5.69051C6.56913 5.63094 6.57719 5.56791 6.57304 5.5051C6.56888 5.44229 6.5526 5.38096 6.52514 5.32468C6.49767 5.2684 6.45958 5.2183 6.41307 5.17729C6.36656 5.13629 6.31258 5.1052 6.25426 5.08585C6.19593 5.06649 6.13445 5.05925 6.07337 5.06455C6.0123 5.06985 5.95286 5.08758 5.89853 5.11671C5.8442 5.14585 5.79605 5.1858 5.7569 5.23423C5.71775 5.28267 5.68838 5.33863 5.6705 5.39884C5.15676 7.0398 5.14754 8.80347 5.64411 10.45C5.67325 10.5465 5.73164 10.6309 5.81079 10.691C5.88993 10.751 5.98567 10.7835 6.08405 10.7837Z" fill="black"/>
<path d="M6.08405 10.7837C6.15647 10.7837 6.22789 10.7663 6.29253 10.7327C6.35718 10.6992 6.41324 10.6505 6.45618 10.5906C6.49913 10.5307 6.52777 10.4613 6.53978 10.388C6.55178 10.3146 6.54683 10.2394 6.52531 10.1684C6.08566 8.70859 6.09405 7.14522 6.54933 5.69051C6.56913 5.63094 6.57719 5.56791 6.57304 5.5051C6.56888 5.44229 6.5526 5.38096 6.52514 5.32468C6.49767 5.2684 6.45958 5.2183 6.41307 5.17729C6.36656 5.13629 6.31258 5.1052 6.25426 5.08585C6.19593 5.06649 6.13445 5.05925 6.07337 5.06455C6.0123 5.06985 5.95286 5.08758 5.89853 5.11671C5.8442 5.14585 5.79605 5.1858 5.7569 5.23423C5.71775 5.28267 5.68838 5.33863 5.6705 5.39884C5.15676 7.0398 5.14754 8.80347 5.64411 10.45C5.67325 10.5465 5.73164 10.6309 5.81079 10.691C5.88993 10.751 5.98567 10.7835 6.08405 10.7837Z" fill="white"/>
</svg>
