<svg width="32" height="32" viewBox="0 0 32 32" fill="none" xmlns="http://www.w3.org/2000/svg">
<path d="M29.849 9.83696V9.81203C29.849 9.78711 29.8248 9.78711 29.8248 9.76219C29.8248 9.76219 29.8005 9.73726 29.8005 9.71234C28.2251 5.92392 25.2923 2.90815 21.5839 1.2881C21.5596 1.2881 21.5596 1.26318 21.5354 1.26318C21.5112 1.26318 21.5112 1.26318 21.4869 1.23825H21.4627C13.5854 -2.15138 4.49614 1.7118 1.19978 9.83696C-0.399926 13.75 -0.399926 18.1864 1.19978 22.0995C1.22402 22.1493 1.22402 22.1742 1.24825 22.1992C2.82372 25.9876 5.75651 29.0283 9.46492 30.6483C9.48915 30.6732 9.53763 30.6732 9.56187 30.6982C11.4524 31.5207 13.4642 31.9194 15.5244 31.9194C24.0804 31.9194 31.0367 24.7912 31.0367 15.9931V15.9682C31.0367 13.8746 30.6246 11.781 29.849 9.83696ZM21.5354 2.2352C24.0562 3.43155 26.2133 5.30083 27.7646 7.69351C28.2008 8.36646 28.5644 9.06432 28.9037 9.81203L23.2563 12.753C22.408 10.5847 20.7356 8.88985 18.6511 8.01752L21.5354 2.2352ZM23.0139 15.9682C23.0139 20.2302 19.6691 23.6946 15.5244 23.6946C11.3797 23.6946 8.03488 20.2302 8.01064 15.9931C8.01064 11.7312 11.3797 8.26676 15.5244 8.26676C18.6026 8.26676 21.3415 10.1859 22.4807 13.102C22.8443 14.0242 23.0139 14.9962 23.0139 15.9682ZM0.860447 15.9682C0.860447 7.64367 7.40469 0.889319 15.5002 0.889319C17.2938 0.889319 19.0631 1.21333 20.7356 1.88627L17.827 7.74336C17.0756 7.51905 16.3 7.39443 15.5244 7.39443C10.9192 7.39443 7.18655 11.2327 7.18655 15.9682C7.18655 16.7658 7.30774 17.5633 7.52588 18.336L1.82996 21.3268C1.17554 19.632 0.860447 17.8126 0.860447 15.9682ZM9.51339 29.7261C6.99265 28.5298 4.83547 26.6605 3.28424 24.2678C2.84796 23.5949 2.48439 22.897 2.14506 22.1493L7.76826 19.1834C8.61659 21.3517 10.289 23.0466 12.3735 23.9189L9.51339 29.7261ZM28.5159 22.9967C25.0741 29.7511 17.2453 32.7918 10.3132 30.0751L13.2218 24.218C13.9732 24.4423 14.7488 24.5669 15.5244 24.5669C20.1296 24.542 23.8623 20.7037 23.8623 15.9682C23.8623 15.1707 23.7411 14.3731 23.5229 13.6005L29.1946 10.6096C30.7216 14.6473 30.455 19.1585 28.5159 22.9967Z" fill="white"/>
<path d="M15.5248 10.9336C12.8101 10.9336 10.6045 13.2017 10.6045 15.9931C10.6045 18.7846 12.8101 21.0277 15.5248 21.0277C18.2394 21.0277 20.4208 18.7597 20.4208 15.9682C20.4208 13.1767 18.2394 10.9336 15.5248 10.9336ZM15.5248 20.1554C13.2707 20.1554 11.4528 18.2861 11.4528 15.9682C11.4528 13.6503 13.2707 11.8059 15.5248 11.8059C17.7789 11.8059 19.5725 13.6752 19.5725 15.9682C19.5725 18.2861 17.7547 20.1554 15.5248 20.1554Z" fill="white"/>
<path d="M20.8573 7.71843C21.9238 8.44122 22.8206 9.38833 23.5477 10.485C23.6689 10.6844 23.9355 10.7591 24.1294 10.6096C24.3233 10.485 24.396 10.2108 24.2506 10.0114C24.2506 10.0114 24.2506 10.0114 24.2506 9.9865C23.475 8.79016 22.4812 7.76828 21.3421 6.99564C21.1481 6.8461 20.8815 6.89595 20.7603 7.09534C20.6149 7.29473 20.6634 7.56889 20.8573 7.69351C20.8331 7.71843 20.8573 7.71843 20.8573 7.71843Z" fill="white"/>
<path d="M10.1918 24.218C9.12532 23.4952 8.22852 22.5481 7.50139 21.4514C7.35596 21.252 7.11358 21.2022 6.91968 21.3517C6.72578 21.4763 6.6773 21.7505 6.79849 21.9499C7.5741 23.1462 8.56785 24.1681 9.70703 24.9407C9.90093 25.0903 10.1675 25.0404 10.2887 24.841C10.4342 24.6417 10.3857 24.3675 10.1918 24.218C10.1918 24.2429 10.1918 24.218 10.1918 24.218Z" fill="white"/>
<path d="M22.1171 5.79927C23.4259 6.69653 24.5409 7.86795 25.4377 9.21383C25.5589 9.41322 25.8255 9.48799 26.0194 9.33845C26.2133 9.21383 26.286 8.93967 26.1406 8.74028C26.1406 8.74028 26.1406 8.74028 26.1406 8.71535C25.1953 7.26978 24.0076 6.02359 22.6018 5.07649C22.4079 4.95187 22.1413 5.00171 22.0201 5.2011C21.8747 5.40049 21.9232 5.64973 22.1171 5.79927Z" fill="white"/>
<path d="M8.93136 26.1621C7.62252 25.2649 6.50757 24.0934 5.61077 22.7476C5.46534 22.5482 5.22296 22.4983 5.02906 22.6479C4.83515 22.7725 4.78668 23.0466 4.90787 23.246C5.85315 24.6916 7.04081 25.9378 8.44661 26.8849C8.64051 27.0345 8.90713 26.9846 9.02832 26.7852C9.19798 26.5609 9.14951 26.2867 8.93136 26.1621C8.9556 26.1621 8.93136 26.1621 8.93136 26.1621Z" fill="white"/>
</svg>
