<svg width="39" height="25" viewBox="0 0 39 25" fill="none" xmlns="http://www.w3.org/2000/svg">
<path d="M36.4472 0.987427H24.8944C24.4487 0.987459 24.0207 1.16154 23.7019 1.47245C23.3831 1.16154 22.955 0.987459 22.5093 0.987427H15.6522C15.2065 0.987459 14.7784 1.16154 14.4596 1.47245C14.1408 1.16154 13.7128 0.987459 13.2671 0.987427H1.71429C1.2598 0.987978 0.824084 1.16842 0.502713 1.48917C0.181341 1.80992 0.000552281 2.24479 0 2.6984L0 23.2301C0.000552281 23.6837 0.181341 24.1185 0.502713 24.4393C0.824084 24.76 1.2598 24.9405 1.71429 24.941H13.2671C13.7128 24.941 14.1408 24.7669 14.4596 24.456C14.7784 24.7669 15.2065 24.941 15.6522 24.941H22.5093C22.955 24.941 23.3831 24.7669 23.7019 24.456C24.0207 24.7669 24.4487 24.941 24.8944 24.941H36.4472C36.9017 24.9405 37.3374 24.76 37.6588 24.4393C37.9802 24.1185 38.1609 23.6837 38.1615 23.2301V2.6984C38.1609 2.24479 37.9802 1.80992 37.6588 1.48917C37.3374 1.16842 36.9017 0.987978 36.4472 0.987427ZM13.9379 23.2301C13.9377 23.4076 13.8669 23.5777 13.7412 23.7032C13.6154 23.8287 13.4449 23.8993 13.2671 23.8996H1.71429C1.53645 23.8993 1.36596 23.8287 1.24021 23.7032C1.11447 23.5777 1.04372 23.4076 1.04348 23.2301V2.6984C1.04372 2.52091 1.11447 2.35075 1.24021 2.22524C1.36596 2.09974 1.53645 2.02912 1.71429 2.02889H13.2671C13.4449 2.02912 13.6154 2.09974 13.7412 2.22524C13.8669 2.35075 13.9377 2.52091 13.9379 2.6984V23.2301ZM23.1801 23.2301C23.1799 23.4076 23.1091 23.5777 22.9834 23.7032C22.8576 23.8287 22.6872 23.8993 22.5093 23.8996H15.6522C15.4743 23.8993 15.3039 23.8287 15.1781 23.7032C15.0524 23.5777 14.9816 23.4076 14.9814 23.2301V2.6984C14.9816 2.52091 15.0524 2.35075 15.1781 2.22524C15.3039 2.09974 15.4743 2.02912 15.6522 2.02889H22.5093C22.6872 2.02912 22.8576 2.09974 22.9834 2.22524C23.1091 2.35075 23.1799 2.52091 23.1801 2.6984V23.2301ZM37.118 23.2301C37.1178 23.4076 37.047 23.5777 36.9213 23.7032C36.7955 23.8287 36.625 23.8993 36.4472 23.8996H24.8944C24.7166 23.8993 24.5461 23.8287 24.4203 23.7032C24.2946 23.5777 24.2238 23.4076 24.2236 23.2301V2.6984C24.2238 2.52091 24.2946 2.35075 24.4203 2.22524C24.5461 2.09974 24.7166 2.02912 24.8944 2.02889H36.4472C36.625 2.02912 36.7955 2.09974 36.9213 2.22524C37.047 2.35075 37.1178 2.52091 37.118 2.6984V23.2301Z" fill="white"/>
<path d="M7.49029 13.8198C8.48908 13.8198 9.46543 13.5242 10.2959 12.9704C11.1263 12.4165 11.7736 11.6294 12.1558 10.7084C12.538 9.78742 12.638 8.77401 12.4431 7.79632C12.2482 6.81864 11.7672 5.92058 11.061 5.21573C10.3547 4.51087 9.45489 4.03087 8.47529 3.83643C7.49569 3.64199 6.48033 3.74185 5.55759 4.12336C4.63485 4.50488 3.84619 5.15093 3.29134 5.9798C2.73649 6.80868 2.44037 7.78315 2.44043 8.78C2.44201 10.1162 2.97456 11.3972 3.92126 12.342C4.86796 13.2868 6.1515 13.8183 7.49029 13.8198ZM7.49029 4.78138C8.28268 4.78138 9.05727 5.0159 9.71612 5.45527C10.375 5.89465 10.8885 6.51915 11.1917 7.2498C11.4949 7.98045 11.5743 8.78444 11.4197 9.56009C11.2651 10.3357 10.8835 11.0482 10.3232 11.6074C9.76293 12.1667 9.04906 12.5475 8.2719 12.7018C7.49474 12.8561 6.68919 12.7769 5.95712 12.4742C5.22505 12.1716 4.59934 11.6591 4.15911 11.0015C3.71888 10.3439 3.48391 9.57085 3.48391 8.78C3.48502 7.71984 3.90747 6.70342 4.65858 5.95377C5.40968 5.20412 6.42808 4.78249 7.49029 4.78138Z" fill="white"/>
<path d="M7.49103 10.8442C8.63325 10.8442 9.5592 9.92 9.5592 8.77999C9.5592 7.63998 8.63325 6.71582 7.49103 6.71582C6.34881 6.71582 5.42285 7.63998 5.42285 8.77999C5.42285 9.92 6.34881 10.8442 7.49103 10.8442Z" fill="white"/>
<path d="M10.4778 15.1959H4.6766C4.38018 15.1962 4.096 15.3139 3.8864 15.5231C3.6768 15.7323 3.55891 16.0159 3.55859 16.3118V21.3456C3.55891 21.6415 3.6768 21.9251 3.8864 22.1343C4.096 22.3435 4.38018 22.4611 4.6766 22.4615H10.4778C10.7742 22.4611 11.0584 22.3435 11.268 22.1343C11.4776 21.9251 11.5955 21.6415 11.5958 21.3456V16.3118C11.5955 16.0159 11.4776 15.7323 11.268 15.5231C11.0584 15.3139 10.7742 15.1962 10.4778 15.1959ZM7.05547 21.42H4.6766C4.65683 21.42 4.63788 21.4122 4.6239 21.3982C4.60992 21.3843 4.60207 21.3653 4.60207 21.3456V19.3493H7.05547V21.42ZM7.05547 18.3081H4.60207V16.3118C4.60207 16.292 4.60992 16.2731 4.6239 16.2592C4.63788 16.2452 4.65683 16.2374 4.6766 16.2374H7.05547V18.3081ZM10.5524 21.3456C10.5524 21.3653 10.5445 21.3843 10.5305 21.3982C10.5165 21.4122 10.4976 21.42 10.4778 21.42H8.09895V19.3493H10.5524V21.3456ZM10.5524 18.3081H8.09895V16.2374H10.4778C10.4976 16.2374 10.5165 16.2452 10.5305 16.2592C10.5445 16.2731 10.5524 16.292 10.5524 16.3118V18.3081Z" fill="white"/>
<path d="M30.67 13.8198C31.6688 13.8198 32.6451 13.5242 33.4756 12.9704C34.306 12.4165 34.9533 11.6294 35.3355 10.7084C35.7177 9.78742 35.8177 8.77401 35.6228 7.79632C35.4279 6.81864 34.9469 5.92058 34.2407 5.21573C33.5344 4.51087 32.6346 4.03087 31.655 3.83643C30.6754 3.64199 29.66 3.74185 28.7373 4.12336C27.8145 4.50488 27.0259 5.15093 26.471 5.9798C25.9162 6.80868 25.6201 7.78315 25.6201 8.78C25.6217 10.1162 26.1543 11.3972 27.101 12.342C28.0477 13.2868 29.3312 13.8183 30.67 13.8198ZM30.67 4.78138C31.4624 4.78138 32.237 5.0159 32.8958 5.45527C33.5547 5.89465 34.0682 6.51915 34.3714 7.2498C34.6746 7.98045 34.754 8.78444 34.5994 9.56009C34.4448 10.3357 34.0632 11.0482 33.5029 11.6074C32.9426 12.1667 32.2288 12.5475 31.4516 12.7018C30.6744 12.8561 29.8689 12.7769 29.1368 12.4742C28.4047 12.1716 27.779 11.6591 27.3388 11.0015C26.8986 10.3439 26.6636 9.57085 26.6636 8.78C26.6647 7.71984 27.0872 6.70342 27.8383 5.95377C28.5894 5.20412 29.6078 4.78249 30.67 4.78138Z" fill="white"/>
<path d="M30.6707 10.8442C31.8129 10.8442 32.7389 9.92 32.7389 8.77999C32.7389 7.63998 31.8129 6.71582 30.6707 6.71582C29.5285 6.71582 28.6025 7.63998 28.6025 8.77999C28.6025 9.92 29.5285 10.8442 30.6707 10.8442Z" fill="white"/>
<path d="M33.4847 15.1959H27.6834C27.387 15.1962 27.1028 15.3139 26.8932 15.5231C26.6836 15.7323 26.5657 16.0159 26.5654 16.3118V21.3456C26.5657 21.6415 26.6836 21.9251 26.8932 22.1343C27.1028 22.3435 27.387 22.4611 27.6834 22.4615H33.4847C33.7811 22.4611 34.0653 22.3435 34.2749 22.1343C34.4845 21.9251 34.6023 21.6415 34.6027 21.3456V16.3118C34.6023 16.0159 34.4845 15.7323 34.2749 15.5231C34.0653 15.3139 33.7811 15.1962 33.4847 15.1959ZM30.0623 21.42H27.6834C27.6637 21.42 27.6447 21.4122 27.6307 21.3982C27.6168 21.3843 27.6089 21.3653 27.6089 21.3456V19.3493H30.0623V21.42ZM30.0623 18.3081H27.6089V16.3118C27.6089 16.292 27.6168 16.2731 27.6307 16.2592C27.6447 16.2452 27.6637 16.2374 27.6834 16.2374H30.0623V18.3081ZM33.5592 21.3456C33.5592 21.3653 33.5513 21.3843 33.5374 21.3982C33.5234 21.4122 33.5044 21.42 33.4847 21.42H31.1058V19.3493H33.5592V21.3456ZM33.5592 18.3081H31.1058V16.2374H33.4847C33.5044 16.2374 33.5234 16.2452 33.5374 16.2592C33.5513 16.2731 33.5592 16.292 33.5592 16.3118V18.3081Z" fill="white"/>
<path d="M19.0807 3.09509C18.5401 3.09509 18.0117 3.25507 17.5623 3.5548C17.1129 3.85453 16.7626 4.28054 16.5557 4.77897C16.3488 5.2774 16.2947 5.82586 16.4002 6.35499C16.5056 6.88411 16.7659 7.37015 17.1481 7.75163C17.5304 8.13311 18.0173 8.39291 18.5475 8.49816C19.0777 8.60341 19.6272 8.54939 20.1266 8.34293C20.626 8.13648 21.0528 7.78685 21.3531 7.33828C21.6534 6.88971 21.8137 6.36233 21.8137 5.82283C21.8129 5.09963 21.5247 4.40628 21.0124 3.8949C20.5 3.38352 19.8053 3.09588 19.0807 3.09509ZM19.0807 6.34356H20.6868C20.5625 6.72548 20.3058 7.05061 19.9628 7.26047C19.6198 7.47033 19.213 7.55115 18.8157 7.48838C18.4183 7.4256 18.0564 7.22337 17.7951 6.91805C17.5338 6.61273 17.3902 6.22437 17.3902 5.82283C17.3902 5.42129 17.5338 5.03293 17.7951 4.72761C18.0564 4.42229 18.4183 4.22006 18.8157 4.15729C19.213 4.09452 19.6198 4.17533 19.9628 4.38519C20.3058 4.59505 20.5625 4.92019 20.6868 5.3021H19.0807C18.9423 5.3021 18.8096 5.35696 18.7118 5.45462C18.6139 5.55227 18.5589 5.68472 18.5589 5.82283C18.5589 5.96094 18.6139 6.09339 18.7118 6.19104C18.8096 6.2887 18.9423 6.34356 19.0807 6.34356Z" fill="white"/>
<path d="M19.081 10.2365C18.4487 10.2364 17.8359 10.4551 17.3471 10.8554C16.8583 11.2558 16.5236 11.8128 16.4002 12.4318C16.2768 13.0507 16.3722 13.6933 16.6703 14.2498C16.9683 14.8064 17.4505 15.2427 18.0346 15.4842C18.6188 15.7258 19.2688 15.7577 19.8739 15.5745C20.479 15.3913 21.0018 15.0044 21.3531 14.4797C21.7044 13.955 21.8625 13.3249 21.8006 12.6969C21.7386 12.0688 21.4604 11.4817 21.0132 11.0354C20.7602 10.7813 20.459 10.5798 20.1274 10.4426C19.7957 10.3055 19.44 10.2354 19.081 10.2365ZM20.2757 14.1562C20.0558 14.38 19.7781 14.5385 19.4734 14.6141C19.1686 14.6896 18.8489 14.6793 18.5497 14.5842C18.2505 14.4892 17.9836 14.3131 17.7787 14.0756C17.5739 13.8381 17.4391 13.5485 17.3893 13.2391C17.3396 12.9297 17.3769 12.6125 17.497 12.323C17.6172 12.0335 17.8155 11.7829 18.0699 11.5992C18.3242 11.4155 18.6247 11.3059 18.9378 11.2825C19.251 11.2591 19.5644 11.323 19.8434 11.4669L18.7122 12.5958C18.6638 12.6442 18.6253 12.7016 18.5991 12.7648C18.5729 12.8279 18.5594 12.8957 18.5594 12.964C18.5594 13.0324 18.5729 13.1001 18.5991 13.1633C18.6253 13.2265 18.6638 13.2839 18.7122 13.3323C18.7607 13.3806 18.8182 13.419 18.8815 13.4452C18.9448 13.4713 19.0126 13.4848 19.0812 13.4848C19.1497 13.4848 19.2175 13.4713 19.2808 13.4452C19.3441 13.419 19.4017 13.3806 19.4501 13.3323L20.5812 12.2033C20.7463 12.5186 20.8058 12.8785 20.7508 13.23C20.6959 13.5814 20.5294 13.9061 20.276 14.1562H20.2757Z" fill="white"/>
<path d="M21.292 17.3036H16.8694C16.731 17.3036 16.5983 17.3585 16.5005 17.4561C16.4026 17.5538 16.3477 17.6862 16.3477 17.8243V21.1969C16.3477 21.335 16.4026 21.4674 16.5005 21.5651C16.5983 21.6627 16.731 21.7176 16.8694 21.7176H21.292C21.4304 21.7176 21.5631 21.6627 21.6609 21.5651C21.7588 21.4674 21.8137 21.335 21.8137 21.1969V17.8243C21.8137 17.6862 21.7588 17.5538 21.6609 17.4561C21.5631 17.3585 21.4304 17.3036 21.292 17.3036ZM20.7702 20.6758H17.3911V18.345H20.7702V20.6758Z" fill="white"/>
</svg>
