<svg width="34" height="32" viewBox="0 0 34 32" fill="none" xmlns="http://www.w3.org/2000/svg">
<path d="M13.3765 0.308228H1.50813C1.1083 0.308735 0.724981 0.474738 0.442258 0.769827C0.159534 1.06492 0.000485865 1.465 0 1.88231L0 23.2872C0.000485865 23.7045 0.159534 24.1046 0.442258 24.3996C0.724981 24.6947 1.1083 24.8607 1.50813 24.8612H3.86868V27.5139H1.96713C1.44541 27.5139 0.945065 27.7302 0.576158 28.1153C0.20725 28.5003 8.29081e-08 29.0226 8.29081e-08 29.5671C8.29081e-08 30.1116 0.20725 30.6338 0.576158 31.0189C0.945065 31.4039 1.44541 31.6202 1.96713 31.6202H12.9175C13.4392 31.6202 13.9395 31.4039 14.3084 31.0189C14.6773 30.6338 14.8846 30.1116 14.8846 29.5671C14.8846 29.0226 14.6773 28.5003 14.3084 28.1153C13.9395 27.7302 13.4392 27.5139 12.9175 27.5139H11.0159V24.8612H13.3765C13.7763 24.8607 14.1596 24.6947 14.4423 24.3996C14.725 24.1046 14.8841 23.7045 14.8846 23.2872V1.88231C14.8841 1.465 14.725 1.06492 14.4423 0.769827C14.1596 0.474738 13.7763 0.308735 13.3765 0.308228ZM12.9175 28.4721C13.1957 28.4721 13.4626 28.5874 13.6593 28.7928C13.8561 28.9981 13.9666 29.2767 13.9666 29.5671C13.9666 29.8575 13.8561 30.136 13.6593 30.3414C13.4626 30.5467 13.1957 30.6621 12.9175 30.6621H1.96713C1.68888 30.6621 1.42203 30.5467 1.22528 30.3414C1.02853 30.136 0.917992 29.8575 0.917992 29.5671C0.917992 29.2767 1.02853 28.9981 1.22528 28.7928C1.42203 28.5874 1.68888 28.4721 1.96713 28.4721H12.9175ZM4.78667 27.5139V24.8612H10.0979V27.5139H4.78667ZM13.9666 23.2872C13.9664 23.4505 13.9041 23.607 13.7935 23.7225C13.6829 23.8379 13.5329 23.9029 13.3765 23.9031H1.50813C1.35168 23.9029 1.2017 23.8379 1.09107 23.7225C0.980442 23.607 0.9182 23.4505 0.917992 23.2872V1.88231C0.9182 1.71902 0.980442 1.56248 1.09107 1.44701C1.2017 1.33155 1.35168 1.26658 1.50813 1.26637H13.3765C13.5329 1.26658 13.6829 1.33155 13.7935 1.44701C13.9041 1.56248 13.9664 1.71902 13.9666 1.88231V23.2872Z" fill="white"/>
<path d="M7.44244 3.15552C6.62833 3.15552 5.83251 3.40748 5.15559 3.87956C4.47868 4.35163 3.95109 5.0226 3.63953 5.80763C3.32797 6.59266 3.24644 7.45649 3.40525 8.28989C3.56405 9.12328 3.95606 9.88881 4.53171 10.4897C5.10735 11.0905 5.84078 11.4997 6.63924 11.6655C7.4377 11.8313 8.26534 11.7463 9.01749 11.4212C9.76965 11.096 10.4125 10.5454 10.8649 9.83892C11.3172 9.13243 11.5587 8.30181 11.5587 7.45209C11.5575 6.313 11.1235 5.2209 10.3518 4.41541C9.58011 3.60992 8.53381 3.15682 7.44244 3.15552ZM7.44244 10.7903C6.80988 10.7903 6.19153 10.5945 5.66558 10.2277C5.13962 9.86087 4.72969 9.33952 4.48762 8.72955C4.24555 8.11958 4.18221 7.44839 4.30562 6.80085C4.42902 6.15331 4.73363 5.55851 5.18092 5.09166C5.62821 4.62481 6.19809 4.30688 6.81849 4.17807C7.4389 4.04927 8.08196 4.11538 8.66637 4.36803C9.25078 4.62069 9.75029 5.04855 10.1017 5.59751C10.4531 6.14647 10.6407 6.79187 10.6407 7.45209C10.6398 8.33712 10.3025 9.1856 9.7029 9.81141C9.10331 10.4372 8.29038 10.7892 7.44244 10.7903Z" fill="white"/>
<path d="M7.44241 5.70166C7.11073 5.70171 6.78652 5.80442 6.51076 5.99679C6.23501 6.18915 6.0201 6.46255 5.89321 6.78239C5.76632 7.10224 5.73314 7.45417 5.79788 7.7937C5.86262 8.13322 6.02236 8.44508 6.25691 8.68985C6.49146 8.93462 6.79029 9.1013 7.11559 9.16882C7.4409 9.23633 7.77809 9.20165 8.08451 9.06916C8.39094 8.93667 8.65284 8.71232 8.83711 8.42448C9.02137 8.13664 9.11972 7.79823 9.11972 7.45204C9.1193 6.9879 8.94245 6.54289 8.62797 6.21472C8.3135 5.88655 7.88711 5.70202 7.44241 5.70166ZM7.44241 8.24429C7.2923 8.24424 7.14557 8.19773 7.02078 8.11064C6.89599 8.02355 6.79874 7.8998 6.74133 7.75503C6.68392 7.61027 6.66892 7.45098 6.69824 7.29732C6.72756 7.14366 6.79987 7.00252 6.90604 6.89175C7.0122 6.78098 7.14745 6.70555 7.29469 6.675C7.44192 6.64446 7.59453 6.66016 7.73321 6.72013C7.87189 6.7801 7.99043 6.88165 8.07382 7.01193C8.15721 7.1422 8.20172 7.29537 8.20172 7.45204C8.20131 7.66208 8.12117 7.86338 7.97885 8.01186C7.83653 8.16035 7.64364 8.24393 7.44241 8.24429Z" fill="white"/>
<path d="M7.44241 15.9667C7.1107 15.9667 6.78645 16.0695 6.51068 16.2619C6.23491 16.4543 6.02 16.7277 5.89313 17.0476C5.76626 17.3675 5.73314 17.7195 5.79794 18.059C5.86274 18.3986 6.02256 18.7104 6.25719 18.9552C6.49182 19.1999 6.79072 19.3665 7.11608 19.4339C7.44144 19.5014 7.77865 19.4666 8.08506 19.3339C8.39147 19.2013 8.65332 18.9769 8.83749 18.6889C9.02166 18.4009 9.11988 18.0625 9.11972 17.7162C9.1191 17.2522 8.94214 16.8074 8.62769 16.4794C8.31324 16.1514 7.88697 15.967 7.44241 15.9667ZM7.44241 18.5093C7.29233 18.5093 7.14563 18.4628 7.02086 18.3757C6.89608 18.2887 6.79883 18.165 6.7414 18.0202C6.68397 17.8755 6.66893 17.7163 6.69818 17.5626C6.72744 17.409 6.79967 17.2679 6.90576 17.1571C7.01184 17.0463 7.14702 16.9708 7.2942 16.9401C7.44139 16.9095 7.59397 16.9251 7.73267 16.9849C7.87136 17.0448 7.98995 17.1462 8.07344 17.2763C8.15693 17.4065 8.20157 17.5596 8.20172 17.7162C8.20172 17.9266 8.12177 18.1283 7.97941 18.2771C7.83704 18.426 7.64391 18.5098 7.44241 18.5101V18.5093Z" fill="white"/>
<path d="M7.44246 13.4205C6.62831 13.4205 5.83245 13.6725 5.15552 14.1446C4.47859 14.6167 3.95099 15.2878 3.63946 16.0728C3.32792 16.8579 3.24644 17.7218 3.40531 18.5552C3.56418 19.3886 3.95627 20.1541 4.53199 20.755C5.10772 21.3558 5.84122 21.7649 6.63973 21.9306C7.43825 22.0963 8.26591 22.0112 9.01806 21.6859C9.7702 21.3607 10.413 20.8099 10.8653 20.1033C11.3175 19.3967 11.5588 18.566 11.5587 17.7163C11.5574 16.5773 11.1232 15.4854 10.3515 14.6801C9.57988 13.8748 8.53369 13.4218 7.44246 13.4205ZM7.44246 21.0553C6.80993 21.0553 6.19161 20.8595 5.66567 20.4927C5.13973 20.126 4.72979 19.6047 4.4877 18.9947C4.2456 18.3848 4.18222 17.7137 4.30556 17.0662C4.42891 16.4186 4.73344 15.8238 5.18065 15.357C5.62786 14.8901 6.19767 14.5721 6.81802 14.4432C7.43838 14.3143 8.08142 14.3803 8.66585 14.6328C9.25027 14.8853 9.74983 15.3131 10.1014 15.8619C10.4529 16.4108 10.6406 17.0561 10.6408 17.7163C10.6402 18.6016 10.3031 19.4505 9.70347 20.0767C9.10384 20.7028 8.29067 21.0551 7.44246 21.0561V21.0553Z" fill="white"/>
<path d="M32.064 24.8612C32.4638 24.8607 32.8471 24.6947 33.1298 24.3996C33.4125 24.1046 33.5716 23.7045 33.5721 23.2872V1.88231C33.5716 1.465 33.4125 1.06492 33.1298 0.769827C32.8471 0.474738 32.4638 0.308735 32.064 0.308228H20.1956C19.7958 0.308735 19.4125 0.474738 19.1298 0.769827C18.847 1.06492 18.688 1.465 18.6875 1.88231V23.2872C18.688 23.7045 18.847 24.1046 19.1298 24.3996C19.4125 24.6947 19.7958 24.8607 20.1956 24.8612H22.5562V27.5139H20.6546C20.1329 27.5139 19.6326 27.7302 19.2637 28.1153C18.8948 28.5003 18.6875 29.0226 18.6875 29.5671C18.6875 30.1116 18.8948 30.6338 19.2637 31.0189C19.6326 31.4039 20.1329 31.6202 20.6546 31.6202H31.605C32.1267 31.6202 32.627 31.4039 32.9959 31.0189C33.3648 30.6338 33.5721 30.1116 33.5721 29.5671C33.5721 29.0226 33.3648 28.5003 32.9959 28.1153C32.627 27.7302 32.1267 27.5139 31.605 27.5139H29.7034V24.8612H32.064ZM31.605 28.4721C31.8832 28.4721 32.1501 28.5874 32.3468 28.7928C32.5436 28.9981 32.6541 29.2767 32.6541 29.5671C32.6541 29.8575 32.5436 30.136 32.3468 30.3414C32.1501 30.5467 31.8832 30.6621 31.605 30.6621H20.6546C20.3764 30.6621 20.1095 30.5467 19.9128 30.3414C19.716 30.136 19.6055 29.8575 19.6055 29.5671C19.6055 29.2767 19.716 28.9981 19.9128 28.7928C20.1095 28.5874 20.3764 28.4721 20.6546 28.4721H31.605ZM23.4742 27.5139V24.8612H28.7854V27.5139H23.4742ZM20.1956 23.9031C20.0392 23.9029 19.8892 23.8379 19.7786 23.7225C19.6679 23.607 19.6057 23.4505 19.6055 23.2872V1.88231C19.6057 1.71902 19.6679 1.56248 19.7786 1.44701C19.8892 1.33155 20.0392 1.26658 20.1956 1.26637H32.064C32.2204 1.26658 32.3704 1.33155 32.481 1.44701C32.5916 1.56248 32.6539 1.71902 32.6541 1.88231V23.2872C32.6539 23.4505 32.5916 23.607 32.481 23.7225C32.3704 23.8379 32.2204 23.9029 32.064 23.9031H20.1956Z" fill="white"/>
<path d="M26.13 3.15552C25.3158 3.15552 24.52 3.40749 23.8431 3.87957C23.1662 4.35166 22.6386 5.02265 22.327 5.8077C22.0155 6.59274 21.9339 7.45658 22.0928 8.28999C22.2516 9.12339 22.6436 9.88892 23.2193 10.4898C23.795 11.0906 24.5284 11.4998 25.3269 11.6656C26.1254 11.8313 26.953 11.7463 27.7052 11.4211C28.4573 11.0959 29.1002 10.5452 29.5525 9.83872C30.0048 9.13219 30.2462 8.30155 30.2462 7.45182C30.245 6.31277 29.8109 5.22075 29.0392 4.41532C28.2676 3.60989 27.2213 3.15682 26.13 3.15552ZM26.13 10.7903C25.4974 10.7903 24.879 10.5945 24.3531 10.2277C23.8271 9.86087 23.4172 9.33952 23.1751 8.72955C22.9331 8.11958 22.8697 7.44839 22.9931 6.80085C23.1165 6.15331 23.4211 5.55851 23.8684 5.09166C24.3157 4.62481 24.8856 4.30688 25.506 4.17807C26.1264 4.04927 26.7695 4.11538 27.3539 4.36803C27.9383 4.62069 28.4378 5.04855 28.7892 5.59751C29.1407 6.14647 29.3283 6.79187 29.3283 7.45209C29.3273 8.33712 28.99 9.1856 28.3904 9.81141C27.7908 10.4372 26.9779 10.7892 26.13 10.7903Z" fill="white"/>
<path d="M26.1299 5.70166C25.7982 5.70171 25.474 5.80442 25.1983 5.99679C24.9225 6.18915 24.7076 6.46255 24.5807 6.78239C24.4538 7.10224 24.4206 7.45417 24.4854 7.7937C24.5501 8.13322 24.7099 8.44508 24.9444 8.68985C25.179 8.93462 25.4778 9.1013 25.8031 9.16882C26.1284 9.23633 26.4656 9.20165 26.772 9.06916C27.0784 8.93667 27.3403 8.71232 27.5246 8.42448C27.7089 8.13664 27.8072 7.79823 27.8072 7.45204C27.8068 6.9879 27.6299 6.54289 27.3155 6.21472C27.001 5.88655 26.5746 5.70202 26.1299 5.70166ZM26.1299 8.24429C25.9798 8.24424 25.8331 8.19773 25.7083 8.11064C25.5835 8.02355 25.4862 7.8998 25.4288 7.75503C25.3714 7.61027 25.3564 7.45098 25.3857 7.29732C25.4151 7.14366 25.4874 7.00252 25.5935 6.89175C25.6997 6.78098 25.835 6.70555 25.9822 6.675C26.1294 6.64446 26.282 6.66016 26.4207 6.72013C26.5594 6.7801 26.6779 6.88165 26.7613 7.01193C26.8447 7.1422 26.8892 7.29537 26.8892 7.45204C26.8888 7.66208 26.8087 7.86338 26.6664 8.01186C26.524 8.16035 26.3311 8.24393 26.1299 8.24429Z" fill="white"/>
<path d="M26.1299 15.9667C25.7982 15.9667 25.474 16.0695 25.1982 16.2619C24.9224 16.4543 24.7075 16.7277 24.5806 17.0476C24.4538 17.3675 24.4206 17.7195 24.4854 18.059C24.5502 18.3986 24.7101 18.7104 24.9447 18.9552C25.1793 19.1999 25.4782 19.3665 25.8036 19.4339C26.1289 19.5014 26.4661 19.4666 26.7726 19.3339C27.079 19.2013 27.3408 18.9769 27.525 18.6889C27.7092 18.4009 27.8074 18.0625 27.8072 17.7162C27.8066 17.2522 27.6296 16.8074 27.3152 16.4794C27.0007 16.1514 26.5745 15.967 26.1299 15.9667ZM26.1299 18.5093C25.9798 18.5093 25.8331 18.4628 25.7084 18.3757C25.5836 18.2887 25.4863 18.165 25.4289 18.0202C25.3715 17.8755 25.3564 17.7163 25.3857 17.5626C25.4149 17.409 25.4872 17.2679 25.5933 17.1571C25.6993 17.0463 25.8345 16.9708 25.9817 16.9401C26.1289 16.9095 26.2815 16.9251 26.4202 16.9849C26.5589 17.0448 26.6774 17.1462 26.7609 17.2763C26.8444 17.4065 26.8891 17.5596 26.8892 17.7162C26.8892 17.9266 26.8093 18.1283 26.6669 18.2771C26.5245 18.426 26.3314 18.5098 26.1299 18.5101V18.5093Z" fill="white"/>
<path d="M26.13 13.4205C25.3158 13.4205 24.5199 13.6725 23.843 14.1446C23.1661 14.6167 22.6385 15.2878 22.327 16.0728C22.0154 16.8579 21.9339 17.7218 22.0928 18.5552C22.2517 19.3886 22.6438 20.1541 23.2195 20.755C23.7952 21.3558 24.5287 21.7649 25.3272 21.9306C26.1257 22.0963 26.9534 22.0112 27.7056 21.6859C28.4577 21.3607 29.1005 20.8099 29.5528 20.1033C30.005 19.3967 30.2463 18.566 30.2462 17.7163C30.2449 16.5773 29.8107 15.4854 29.039 14.6801C28.2674 13.8748 27.2212 13.4218 26.13 13.4205ZM26.13 21.0553C25.4974 21.0553 24.8791 20.8595 24.3532 20.4927C23.8272 20.126 23.4173 19.6047 23.1752 18.9947C22.9331 18.3848 22.8697 17.7137 22.9931 17.0662C23.1164 16.4186 23.4209 15.8238 23.8681 15.357C24.3154 14.8901 24.8852 14.5721 25.5055 14.4432C26.1259 14.3143 26.7689 14.3803 27.3533 14.6328C27.9378 14.8853 28.4373 15.3131 28.7889 15.8619C29.1404 16.4108 29.3281 17.0561 29.3283 17.7163C29.3277 18.6016 28.9906 19.4505 28.391 20.0767C27.7913 20.7028 26.9782 21.0551 26.13 21.0561V21.0553Z" fill="white"/>
<path d="M12.5894 3.45719C12.9878 3.45719 13.3107 3.12014 13.3107 2.70436C13.3107 2.28859 12.9878 1.95154 12.5894 1.95154C12.1911 1.95154 11.8682 2.28859 11.8682 2.70436C11.8682 3.12014 12.1911 3.45719 12.5894 3.45719Z" fill="white"/>
<path d="M2.29453 3.45719C2.69288 3.45719 3.01581 3.12014 3.01581 2.70436C3.01581 2.28859 2.69288 1.95154 2.29453 1.95154C1.89617 1.95154 1.57324 2.28859 1.57324 2.70436C1.57324 3.12014 1.89617 3.45719 2.29453 3.45719Z" fill="white"/>
<path d="M12.5894 23.2176C12.9878 23.2176 13.3107 22.8805 13.3107 22.4647C13.3107 22.049 12.9878 21.7119 12.5894 21.7119C12.1911 21.7119 11.8682 22.049 11.8682 22.4647C11.8682 22.8805 12.1911 23.2176 12.5894 23.2176Z" fill="white"/>
<path d="M2.29453 23.2176C2.69288 23.2176 3.01581 22.8805 3.01581 22.4647C3.01581 22.049 2.69288 21.7119 2.29453 21.7119C1.89617 21.7119 1.57324 22.049 1.57324 22.4647C1.57324 22.8805 1.89617 23.2176 2.29453 23.2176Z" fill="white"/>
<path d="M12.5894 13.6111C12.9878 13.6111 13.3107 13.2741 13.3107 12.8583C13.3107 12.4425 12.9878 12.1055 12.5894 12.1055C12.1911 12.1055 11.8682 12.4425 11.8682 12.8583C11.8682 13.2741 12.1911 13.6111 12.5894 13.6111Z" fill="white"/>
<path d="M2.29453 13.6111C2.69288 13.6111 3.01581 13.2741 3.01581 12.8583C3.01581 12.4425 2.69288 12.1055 2.29453 12.1055C1.89617 12.1055 1.57324 12.4425 1.57324 12.8583C1.57324 13.2741 1.89617 13.6111 2.29453 13.6111Z" fill="white"/>
<path d="M31.2769 3.45719C31.6753 3.45719 31.9982 3.12014 31.9982 2.70436C31.9982 2.28859 31.6753 1.95154 31.2769 1.95154C30.8786 1.95154 30.5557 2.28859 30.5557 2.70436C30.5557 3.12014 30.8786 3.45719 31.2769 3.45719Z" fill="white"/>
<path d="M20.983 3.45719C21.3814 3.45719 21.7043 3.12014 21.7043 2.70436C21.7043 2.28859 21.3814 1.95154 20.983 1.95154C20.5846 1.95154 20.2617 2.28859 20.2617 2.70436C20.2617 3.12014 20.5846 3.45719 20.983 3.45719Z" fill="white"/>
<path d="M31.2769 23.2176C31.6753 23.2176 31.9982 22.8805 31.9982 22.4647C31.9982 22.049 31.6753 21.7119 31.2769 21.7119C30.8786 21.7119 30.5557 22.049 30.5557 22.4647C30.5557 22.8805 30.8786 23.2176 31.2769 23.2176Z" fill="white"/>
<path d="M20.983 23.2176C21.3814 23.2176 21.7043 22.8805 21.7043 22.4647C21.7043 22.049 21.3814 21.7119 20.983 21.7119C20.5846 21.7119 20.2617 22.049 20.2617 22.4647C20.2617 22.8805 20.5846 23.2176 20.983 23.2176Z" fill="white"/>
<path d="M31.2769 13.6111C31.6753 13.6111 31.9982 13.2741 31.9982 12.8583C31.9982 12.4425 31.6753 12.1055 31.2769 12.1055C30.8786 12.1055 30.5557 12.4425 30.5557 12.8583C30.5557 13.2741 30.8786 13.6111 31.2769 13.6111Z" fill="white"/>
<path d="M20.983 13.6111C21.3814 13.6111 21.7043 13.2741 21.7043 12.8583C21.7043 12.4425 21.3814 12.1055 20.983 12.1055C20.5846 12.1055 20.2617 12.4425 20.2617 12.8583C20.2617 13.2741 20.5846 13.6111 20.983 13.6111Z" fill="white"/>
</svg>
