<svg width="35" height="38" viewBox="0 0 35 38" fill="none" xmlns="http://www.w3.org/2000/svg">
<path d="M18.8613 0.017334H15.248C11.2053 0.0216443 7.32935 1.66832 4.4707 4.59603C1.61205 7.52374 0.0042086 11.4933 0 15.6337V29.2518C0.00192128 30.5943 0.491178 31.8881 1.37267 32.8817C2.25416 33.8753 3.46489 34.4977 4.76953 34.628V35.0247C4.76999 35.7901 5.06707 36.524 5.59552 37.0652C6.12396 37.6064 6.84056 37.9107 7.58789 37.9111H12.3343C13.0815 37.9101 13.7978 37.6057 14.3261 37.0646C14.8544 36.5235 15.1517 35.7899 15.1527 35.0247V22.2947C15.1517 21.5295 14.8544 20.7959 14.3261 20.2548C13.7978 19.7138 13.0815 19.4093 12.3343 19.4083H7.58789C6.84056 19.4088 6.12396 19.713 5.59552 20.2542C5.06707 20.7955 4.76999 21.5294 4.76953 22.2947V22.8128H3.39648V16.1518H5.34766C5.41413 16.152 5.47998 16.1387 5.54142 16.1127C5.60286 16.0867 5.65869 16.0485 5.70569 16.0004C5.7527 15.9523 5.78995 15.8951 5.81532 15.8322C5.84069 15.7692 5.85367 15.7018 5.85352 15.6337C5.85642 13.0829 6.84713 10.6373 8.60832 8.8336C10.3695 7.02987 12.7574 6.01523 15.248 6.01225H18.8613C21.352 6.01523 23.7399 7.02987 25.5011 8.8336C27.2622 10.6373 28.253 13.0829 28.2559 15.6337C28.2557 15.7018 28.2687 15.7692 28.2941 15.8322C28.3194 15.8951 28.3567 15.9523 28.4037 16.0004C28.4507 16.0485 28.5065 16.0867 28.568 16.1127C28.6294 16.1387 28.6952 16.152 28.7617 16.1518H30.7129V22.8128H29.3398V22.2947C29.3394 21.5294 29.0423 20.7955 28.5139 20.2542C27.9854 19.713 27.2688 19.4088 26.5215 19.4083H21.7751C21.0279 19.4093 20.3116 19.7138 19.7833 20.2548C19.255 20.7959 18.9577 21.5295 18.9567 22.2947V35.0247C18.9577 35.7899 19.255 36.5235 19.7833 37.0646C20.3116 37.6057 21.0279 37.9101 21.7751 37.9111H26.5215C27.2688 37.9107 27.9854 37.6064 28.5139 37.0652C29.0423 36.524 29.3394 35.7901 29.3398 35.0247V34.628C30.6445 34.4977 31.8552 33.8753 32.7367 32.8817C33.6182 31.8881 34.1075 30.5943 34.1094 29.2518V15.6337C34.1052 11.4933 32.4973 7.52374 29.6387 4.59603C26.78 1.66832 22.9041 0.0216443 18.8613 0.017334V0.017334ZM11.3457 20.4445H12.3343C12.8132 20.4452 13.2724 20.6403 13.611 20.9872C13.9497 21.334 14.1402 21.8042 14.1409 22.2947V35.0247C14.1402 35.5152 13.9497 35.9854 13.611 36.3323C13.2724 36.6791 12.8132 36.8743 12.3343 36.875H11.3457V20.4445ZM5.78125 22.2947C5.7814 21.8041 5.97179 21.3335 6.31057 20.9866C6.64935 20.6396 7.10879 20.4446 7.58789 20.4445H10.334V36.875H7.58789C7.10879 36.8748 6.64935 36.6798 6.31057 36.3329C5.97179 35.9859 5.7814 35.5154 5.78125 35.0247V22.2947ZM22.7637 36.875H21.7751C21.2961 36.8743 20.837 36.6791 20.4984 36.3323C20.1597 35.9854 19.9691 35.5152 19.9684 35.0247V22.2947C19.9691 21.8042 20.1597 21.334 20.4984 20.9872C20.837 20.6403 21.2961 20.4452 21.7751 20.4445H22.7637V36.875ZM28.3281 35.0247C28.328 35.5154 28.1376 35.9859 27.7988 36.3329C27.46 36.6798 27.0006 36.8748 26.5215 36.875H23.7754V20.4445H26.5215C27.0006 20.4446 27.46 20.6396 27.7988 20.9866C28.1376 21.3335 28.328 21.8041 28.3281 22.2947V35.0247ZM1.01172 16.1518H2.38477V22.8128H1.01172V16.1518ZM4.76953 23.849V33.5889C3.7342 33.4604 2.78053 32.9484 2.08832 32.1495C1.39611 31.3506 1.01318 30.3199 1.01172 29.2518V23.849H4.76953ZM29.256 15.1156C29.1224 12.3832 27.9694 9.80759 26.035 7.9207C24.1007 6.03382 21.5327 4.97973 18.8613 4.97609H15.248C12.5767 4.97973 10.0087 6.03382 8.07434 7.9207C6.13997 9.80759 4.98695 12.3832 4.85336 15.1156H1.02039C1.15551 11.3422 2.71315 7.76913 5.36616 5.14698C8.01916 2.52484 11.5611 1.05762 15.248 1.05349H18.8613C22.5483 1.05762 26.0902 2.52484 28.7432 5.14698C31.3962 7.76913 32.9539 11.3422 33.089 15.1156H29.256ZM33.0977 29.2518C33.0962 30.3199 32.7133 31.3506 32.0211 32.1495C31.3288 32.9484 30.3752 33.4604 29.3398 33.5889V23.849H33.0977V29.2518ZM33.0977 22.8128H31.7246V16.1518H33.0977V22.8128Z" fill="white"/>
</svg>
