<svg width="38" height="30" viewBox="0 0 38 30" fill="none" xmlns="http://www.w3.org/2000/svg">
<path d="M34.9375 0.87561H2.88069C2.11682 0.876119 1.38438 1.2052 0.844252 1.79056C0.30412 2.37592 0.000469635 3.16969 0 3.99752L0 25.9309C0.000469635 26.7588 0.30412 27.5525 0.844252 28.1379C1.38438 28.7233 2.11682 29.0523 2.88069 29.0529H34.9375C35.7014 29.0523 36.4339 28.7233 36.974 28.1379C37.5141 27.5525 37.8178 26.7588 37.8182 25.9309V3.99752C37.8178 3.16969 37.5141 2.37592 36.974 1.79056C36.4339 1.2052 35.7014 0.876119 34.9375 0.87561ZM36.7841 25.9309C36.784 26.4617 36.5894 26.9706 36.2431 27.3458C35.8968 27.7211 35.4272 27.932 34.9375 27.9322H2.88069C2.39099 27.932 1.92139 27.7211 1.57512 27.3458C1.22885 26.9706 1.03425 26.4617 1.03409 25.9309V3.99752C1.03425 3.46682 1.22885 2.95789 1.57512 2.58263C1.92139 2.20736 2.39099 1.99647 2.88069 1.9963H34.9375C35.4272 1.99647 35.8968 2.20736 36.2431 2.58263C36.5894 2.95789 36.784 3.46682 36.7841 3.99752V25.9309Z" fill="white"/>
<path d="M34.3471 4.07752H3.47212C3.40418 4.07735 3.33688 4.09173 3.27408 4.11983C3.21127 4.14793 3.15421 4.18919 3.10617 4.24126C3.05813 4.29333 3.02005 4.35517 2.99412 4.42323C2.96819 4.49129 2.95492 4.56423 2.95508 4.63786V25.2905C2.95492 25.3641 2.96819 25.4371 2.99412 25.5051C3.02005 25.5732 3.05813 25.635 3.10617 25.6871C3.15421 25.7392 3.21127 25.7805 3.27408 25.8085C3.33688 25.8367 3.40418 25.851 3.47212 25.8509H34.3471C34.415 25.851 34.4823 25.8367 34.5451 25.8085C34.6079 25.7805 34.665 25.7392 34.713 25.6871C34.7611 25.635 34.7992 25.5732 34.8251 25.5051C34.851 25.4371 34.8643 25.3641 34.8641 25.2905V4.63786C34.8643 4.56423 34.851 4.49129 34.8251 4.42323C34.7992 4.35517 34.7611 4.29333 34.713 4.24126C34.665 4.18919 34.6079 4.14793 34.5451 4.11983C34.4823 4.09173 34.415 4.07735 34.3471 4.07752ZM33.83 24.7302H3.98917V5.1982H33.83V24.7302Z" fill="white"/>
<path d="M28.9445 13.643V21.4846C28.9445 21.8889 29.0927 22.2767 29.3565 22.5626C29.6203 22.8485 29.9781 23.0091 30.3512 23.0091C30.7243 23.0091 31.082 22.8485 31.3458 22.5626C31.6096 22.2767 31.7578 21.8889 31.7578 21.4846V13.643C32.0725 13.5099 32.3428 13.2771 32.5333 12.9748C32.7239 12.6726 32.8258 12.3151 32.8258 11.949C32.8258 11.583 32.7239 11.2254 32.5333 10.9232C32.3428 10.621 32.0725 10.3881 31.7578 10.255V8.16349C31.7578 7.75918 31.6096 7.37143 31.3458 7.08554C31.082 6.79965 30.7243 6.63904 30.3512 6.63904C29.9781 6.63904 29.6203 6.79965 29.3565 7.08554C29.0927 7.37143 28.9445 7.75918 28.9445 8.16349V10.255C28.63 10.3881 28.3598 10.621 28.1693 10.9232C27.9788 11.2254 27.877 11.5829 27.877 11.9489C27.877 12.3148 27.9788 12.6723 28.1693 12.9745C28.3598 13.2767 28.63 13.5096 28.9445 13.6427V13.643ZM30.7238 21.4846C30.7238 21.5917 30.6845 21.6944 30.6146 21.7701C30.5448 21.8458 30.45 21.8884 30.3512 21.8884C30.2524 21.8884 30.1576 21.8458 30.0877 21.7701C30.0179 21.6944 29.9786 21.5917 29.9786 21.4846V13.7701H30.7238V21.4846ZM29.9786 8.16445C29.9786 8.05737 30.0179 7.95467 30.0877 7.87895C30.1576 7.80322 30.2524 7.76068 30.3512 7.76068C30.45 7.76068 30.5448 7.80322 30.6146 7.87895C30.6845 7.95467 30.7238 8.05737 30.7238 8.16445V10.1292H29.9786V8.16445ZM29.4831 11.2575C29.4899 11.2575 29.4964 11.2575 29.5032 11.2575C29.5233 11.2559 29.5434 11.2531 29.5724 11.2489H31.1336C31.1551 11.2521 31.1767 11.2553 31.1988 11.2569C31.213 11.2569 31.2269 11.2588 31.2408 11.2588C31.3957 11.2831 31.5372 11.3679 31.6386 11.4971C31.74 11.6264 31.7944 11.7913 31.7915 11.961C31.7887 12.1306 31.7289 12.2933 31.6232 12.4185C31.5176 12.5438 31.3734 12.6229 31.2178 12.6411C31.2107 12.6411 31.2036 12.6411 31.1965 12.6411C31.1776 12.6427 31.1584 12.6456 31.13 12.6494H29.5671C29.5467 12.6462 29.526 12.6434 29.5053 12.6418C29.4979 12.6418 29.4908 12.6418 29.4834 12.6418C29.3261 12.623 29.1807 12.542 29.075 12.4143C28.9694 12.2865 28.911 12.121 28.911 11.9495C28.911 11.778 28.9694 11.6124 29.075 11.4847C29.1807 11.357 29.3261 11.276 29.4834 11.2572L29.4831 11.2575Z" fill="white"/>
<path d="M23.2223 20.3604V21.4846C23.2223 21.8889 23.3705 22.2767 23.6343 22.5626C23.8981 22.8485 24.2558 23.0091 24.6289 23.0091C25.002 23.0091 25.3598 22.8485 25.6236 22.5626C25.8874 22.2767 26.0356 21.8889 26.0356 21.4846V20.3604C26.3501 20.2273 26.6203 19.9944 26.8108 19.6922C27.0013 19.39 27.1031 19.0325 27.1031 18.6666C27.1031 18.3006 27.0013 17.9431 26.8108 17.6409C26.6203 17.3387 26.3501 17.1058 26.0356 16.9727V8.16349C26.0356 7.75918 25.8874 7.37143 25.6236 7.08554C25.3598 6.79965 25.002 6.63904 24.6289 6.63904C24.2558 6.63904 23.8981 6.79965 23.6343 7.08554C23.3705 7.37143 23.2223 7.75918 23.2223 8.16349V16.9724C22.9076 17.1055 22.6373 17.3384 22.4468 17.6406C22.2562 17.9428 22.1543 18.3004 22.1543 18.6664C22.1543 19.0325 22.2562 19.39 22.4468 19.6922C22.6373 19.9945 22.9076 20.2273 23.2223 20.3604ZM25.0015 21.4846C25.0015 21.5917 24.9622 21.6944 24.8924 21.7701C24.8225 21.8458 24.7277 21.8884 24.6289 21.8884C24.5301 21.8884 24.4353 21.8458 24.3655 21.7701C24.2956 21.6944 24.2563 21.5917 24.2563 21.4846V20.4875H25.0015V21.4846ZM24.2563 8.16349C24.2563 8.05641 24.2956 7.95371 24.3655 7.87799C24.4353 7.80226 24.5301 7.75972 24.6289 7.75972C24.7277 7.75972 24.8225 7.80226 24.8924 7.87799C24.9622 7.95371 25.0015 8.05641 25.0015 8.16349V16.8453H24.2563V8.16349ZM23.762 17.974C23.7694 17.974 23.7768 17.974 23.7842 17.974C23.8031 17.9724 23.8223 17.9695 23.8507 17.9657H25.4136C25.434 17.9689 25.4547 17.9717 25.4754 17.9733C25.4899 17.9733 25.5049 17.9753 25.5191 17.9753C25.6741 17.9995 25.8155 18.0842 25.9169 18.2135C26.0184 18.3427 26.0728 18.5076 26.07 18.6773C26.0672 18.8469 26.0074 19.0096 25.9018 19.1349C25.7962 19.2601 25.652 19.3393 25.4964 19.3576C25.4893 19.3576 25.4825 19.3576 25.4754 19.3576C25.4565 19.3592 25.4373 19.3617 25.4089 19.3659H23.846C23.8256 19.3627 23.8049 19.3598 23.7842 19.3582C23.7768 19.3582 23.7694 19.3582 23.762 19.3582C23.6044 19.3398 23.4587 19.2589 23.3527 19.1311C23.2468 19.0033 23.1882 18.8376 23.1882 18.6658C23.1882 18.494 23.2468 18.3282 23.3527 18.2004C23.4587 18.0726 23.6044 17.9917 23.762 17.9733V17.974Z" fill="white"/>
<path d="M17.5025 16.5182V21.4848C17.5025 21.8891 17.6507 22.2769 17.9146 22.5628C18.1784 22.8488 18.5362 23.0094 18.9093 23.0094C19.2824 23.0094 19.6402 22.8488 19.9041 22.5628C20.1679 22.2769 20.3161 21.8891 20.3161 21.4848V16.5182C20.6307 16.3851 20.9008 16.1522 21.0913 15.85C21.2818 15.5478 21.3837 15.1903 21.3837 14.8244C21.3837 14.4584 21.2818 14.1009 21.0913 13.7987C20.9008 13.4965 20.6307 13.2637 20.3161 13.1305V8.16365C20.3161 7.7593 20.1679 7.37151 19.9041 7.08559C19.6402 6.79967 19.2824 6.63904 18.9093 6.63904C18.5362 6.63904 18.1784 6.79967 17.9146 7.08559C17.6507 7.37151 17.5025 7.7593 17.5025 8.16365V13.1302C17.1879 13.2633 16.9176 13.4962 16.727 13.7984C16.5365 14.1006 16.4346 14.4582 16.4346 14.8242C16.4346 15.1903 16.5365 15.5478 16.727 15.85C16.9176 16.1523 17.1879 16.3851 17.5025 16.5182ZM19.282 21.4848C19.282 21.5919 19.2428 21.6946 19.1729 21.7704C19.103 21.8461 19.0082 21.8887 18.9093 21.8887C18.8105 21.8887 18.7157 21.8461 18.6458 21.7704C18.5759 21.6946 18.5366 21.5919 18.5366 21.4848V16.6453H19.282V21.4848ZM18.5366 8.16461C18.5366 8.05748 18.5759 7.95474 18.6458 7.87899C18.7157 7.80324 18.8105 7.76068 18.9093 7.76068C19.0082 7.76068 19.103 7.80324 19.1729 7.87899C19.2428 7.95474 19.282 8.05748 19.282 8.16461V13.0031H18.5366V8.16461ZM18.0199 14.1343C18.0343 14.1343 18.0494 14.1343 18.0639 14.1324C18.0784 14.1305 18.1017 14.1283 18.1303 14.1241H19.693C19.7134 14.1273 19.7344 14.1302 19.7556 14.1318C19.7627 14.1318 19.7698 14.1318 19.7769 14.1318C19.9345 14.1502 20.0803 14.2311 20.1862 14.3589C20.2921 14.4867 20.3507 14.6524 20.3507 14.8242C20.3507 14.996 20.2921 15.1617 20.1862 15.2896C20.0803 15.4174 19.9345 15.4982 19.7769 15.5166C19.7701 15.5166 19.7633 15.5166 19.7562 15.5166C19.7367 15.5182 19.7175 15.5211 19.6889 15.525H18.1259C18.1055 15.5218 18.0849 15.5189 18.0642 15.5173C18.0568 15.5173 18.0494 15.5173 18.042 15.5173C17.8864 15.4989 17.7423 15.4196 17.6368 15.2943C17.5313 15.1689 17.4716 15.0062 17.4689 14.8366C17.4662 14.6669 17.5207 14.5021 17.6222 14.3729C17.7237 14.2437 17.8652 14.1592 18.0201 14.135L18.0199 14.1343Z" fill="white"/>
<path d="M11.7818 20.3604V21.4846C11.7818 21.8889 11.93 22.2767 12.1938 22.5626C12.4576 22.8485 12.8154 23.0091 13.1885 23.0091C13.5615 23.0091 13.9193 22.8485 14.1831 22.5626C14.4469 22.2767 14.5951 21.8889 14.5951 21.4846V20.3604C14.9098 20.2273 15.1801 19.9945 15.3706 19.6922C15.5611 19.39 15.6631 19.0325 15.6631 18.6664C15.6631 18.3004 15.5611 17.9428 15.3706 17.6406C15.1801 17.3384 14.9098 17.1055 14.5951 16.9724V8.16349C14.5951 7.75918 14.4469 7.37143 14.1831 7.08554C13.9193 6.79965 13.5615 6.63904 13.1885 6.63904C12.8154 6.63904 12.4576 6.79965 12.1938 7.08554C11.93 7.37143 11.7818 7.75918 11.7818 8.16349V16.9724C11.4672 17.1055 11.1969 17.3384 11.0063 17.6406C10.8158 17.9428 10.7139 18.3004 10.7139 18.6664C10.7139 19.0325 10.8158 19.39 11.0063 19.6922C11.1969 19.9945 11.4672 20.2273 11.7818 20.3604ZM13.5619 21.4846C13.5619 21.5917 13.5227 21.6944 13.4528 21.7701C13.3829 21.8458 13.2882 21.8884 13.1894 21.8884C13.0906 21.8884 12.9958 21.8458 12.9259 21.7701C12.856 21.6944 12.8168 21.5917 12.8168 21.4846V20.4875H13.5619V21.4846ZM12.8168 8.16445C12.8168 8.05737 12.856 7.95467 12.9259 7.87895C12.9958 7.80322 13.0906 7.76068 13.1894 7.76068C13.2882 7.76068 13.3829 7.80322 13.4528 7.87895C13.5227 7.95467 13.5619 8.05737 13.5619 8.16445V16.8453H12.8159L12.8168 8.16445ZM12.321 17.974C12.3284 17.974 12.3355 17.974 12.3429 17.974C12.3618 17.9724 12.3807 17.9698 12.4094 17.9657H13.9723C13.9927 17.9689 14.0134 17.9717 14.0341 17.9733C14.0488 17.9733 14.0636 17.9753 14.0781 17.9753C14.233 17.9995 14.3745 18.0842 14.4759 18.2134C14.5774 18.3426 14.6318 18.5075 14.6291 18.6771C14.6263 18.8468 14.5666 19.0095 14.461 19.1348C14.3554 19.26 14.2113 19.3392 14.0556 19.3576C14.0485 19.3576 14.0415 19.3576 14.0341 19.3576C14.0152 19.3592 13.9962 19.3617 13.9676 19.3659H12.4046C12.3843 19.3627 12.3636 19.3598 12.3429 19.3582C12.3355 19.3582 12.3281 19.3582 12.3207 19.3582C12.1631 19.3398 12.0173 19.2589 11.9114 19.1311C11.8055 19.0033 11.7469 18.8376 11.7469 18.6658C11.7469 18.494 11.8055 18.3282 11.9114 18.2004C12.0173 18.0726 12.1631 17.9917 12.3207 17.9733L12.321 17.974Z" fill="white"/>
<path d="M6.06016 13.6432V21.4848C6.06016 21.8891 6.20838 22.2769 6.47221 22.5628C6.73604 22.8488 7.09387 23.0094 7.46698 23.0094C7.84009 23.0094 8.19792 22.8488 8.46175 22.5628C8.72558 22.2769 8.8738 21.8891 8.8738 21.4848V13.6432C9.18846 13.5101 9.45874 13.2772 9.64929 12.975C9.83983 12.6727 9.94177 12.3152 9.94177 11.9492C9.94177 11.5831 9.83983 11.2256 9.64929 10.9234C9.45874 10.6211 9.18846 10.3882 8.8738 10.2552V8.16365C8.8738 7.7593 8.72558 7.37151 8.46175 7.08559C8.19792 6.79967 7.84009 6.63904 7.46698 6.63904C7.09387 6.63904 6.73604 6.79967 6.47221 7.08559C6.20838 7.37151 6.06016 7.7593 6.06016 8.16365V10.2552C5.7455 10.3882 5.47522 10.6211 5.28467 10.9234C5.09413 11.2256 4.99219 11.5831 4.99219 11.9492C4.99219 12.3152 5.09413 12.6727 5.28467 12.975C5.47522 13.2772 5.7455 13.5101 6.06016 13.6432ZM7.8397 21.4848C7.8397 21.5919 7.80043 21.6946 7.73053 21.7704C7.66063 21.8461 7.56583 21.8887 7.46698 21.8887C7.36813 21.8887 7.27333 21.8461 7.20343 21.7704C7.13353 21.6946 7.09426 21.5919 7.09426 21.4848V13.7703H7.8397V21.4848ZM7.09426 8.16461C7.09426 8.05748 7.13353 7.95474 7.20343 7.87899C7.27333 7.80324 7.36813 7.76068 7.46698 7.76068C7.56583 7.76068 7.66063 7.80324 7.73053 7.87899C7.80043 7.95474 7.8397 8.05748 7.8397 8.16461V10.1293H7.09426V8.16461ZM6.59937 11.2577C6.60587 11.2577 6.61207 11.2577 6.61857 11.2577C6.63896 11.2561 6.65905 11.2532 6.688 11.2491H8.2492C8.27077 11.2523 8.29264 11.2551 8.3148 11.2571C8.32858 11.2583 8.34237 11.259 8.35616 11.259C8.51111 11.2831 8.6526 11.3677 8.7541 11.4969C8.85559 11.6261 8.91011 11.7909 8.90743 11.9606C8.90474 12.1302 8.84504 12.2929 8.73952 12.4183C8.63401 12.5436 8.48992 12.6229 8.3343 12.6413C8.32691 12.6413 8.31982 12.6413 8.31243 12.6413C8.29323 12.6429 8.27402 12.6454 8.24566 12.6496H6.68298C6.6623 12.6464 6.64162 12.6435 6.62064 12.6419C6.61325 12.6419 6.60616 12.6419 6.59878 12.6419C6.44117 12.6235 6.29539 12.5426 6.18947 12.4148C6.08354 12.287 6.02495 12.1213 6.02495 11.9495C6.02495 11.7777 6.08354 11.612 6.18947 11.4841C6.29539 11.3563 6.44117 11.2755 6.59878 11.2571L6.59937 11.2577Z" fill="white"/>
</svg>
