<svg width="32" height="34" viewBox="0 0 32 34" fill="none" xmlns="http://www.w3.org/2000/svg">
<path fill-rule="evenodd" clip-rule="evenodd" d="M0.527794 0.602661C0.236301 0.602661 0 0.838962 0 1.13045C0 1.42195 0.236302 1.65825 0.527794 1.65825H2.66199C2.65354 1.70143 2.64911 1.74605 2.64911 1.79171V2.84045C2.64911 3.22185 2.95829 3.53103 3.33969 3.53103C3.72109 3.53103 4.03027 3.22185 4.03027 2.84045V1.79171C4.03027 1.74605 4.02584 1.70143 4.01739 1.65825H6.34456C6.3361 1.70144 6.33167 1.74607 6.33167 1.79174V2.84042C6.33167 3.22184 6.64086 3.53103 7.02228 3.53103C7.40369 3.53103 7.71289 3.22184 7.71289 2.84042V1.79174C7.71289 1.74607 7.70846 1.70144 7.7 1.65825H15.4989V1.82919V20.0792C14.171 22.3363 12.843 24.544 11.5448 26.7024L11.5447 26.7025L11.5447 26.7025L11.5436 26.7044L11.5418 26.7073C10.7952 27.9485 10.0585 29.1734 9.33718 30.382C9.10466 30.8726 8.9884 31.3632 9.22092 31.8538C9.45344 32.7124 10.2673 33.3257 11.0811 33.3257C11.1973 33.3257 11.4298 33.3257 11.6624 33.203L16.1847 31.3632L20.7306 33.203C20.8468 33.3257 20.9631 33.3257 21.1956 33.3257C22.0094 33.3257 22.8232 32.7124 23.0558 31.8538C23.172 31.3632 23.0558 30.8726 22.8232 30.382C20.9631 27.193 18.8704 23.7587 16.6615 20.2018V1.82919V1.65825H24.2996C24.2912 1.70144 24.2867 1.74607 24.2867 1.79174V2.84042C24.2867 3.22184 24.5959 3.53103 24.9774 3.53103C25.3588 3.53103 25.668 3.22184 25.668 2.84042V1.79174C25.668 1.74607 25.6635 1.70144 25.6551 1.65825H27.9832C27.9748 1.70144 27.9703 1.74607 27.9703 1.79174V2.84042C27.9703 3.22184 28.2795 3.53103 28.6609 3.53103C29.0424 3.53103 29.3516 3.22184 29.3516 2.84042V1.79174C29.3516 1.74607 29.3471 1.70144 29.3387 1.65825H31.4722C31.7637 1.65825 32 1.42195 32 1.13045C32 0.838962 31.7637 0.602661 31.4722 0.602661H16.0802H0.527794ZM15.4989 25.9665V22.4096C13.755 25.3532 12.0111 28.2969 10.2673 31.1179V31.4859C10.3835 31.8538 10.7323 32.0992 11.0811 32.0992H11.3136L15.7265 30.2594C15.7265 30.1367 16.1846 30.1367 16.3008 30.1367H16.4171L20.9631 31.9765H21.5444C21.7769 31.8538 21.8932 31.7312 22.0094 31.4859V30.9953C21.6521 30.4029 21.2892 29.8046 20.9219 29.1991C19.6161 27.0464 18.2551 24.8027 16.894 22.4096V26.4571C16.8775 26.8574 16.5334 27.193 16.1847 27.193C15.8359 27.193 15.4989 26.9477 15.4989 26.5798V25.9665Z" fill="white"/>
</svg>
