<svg width="38" height="28" viewBox="0 0 38 28" fill="none" xmlns="http://www.w3.org/2000/svg">
<path d="M36.0211 0.43811H1.69424C1.24539 0.438029 0.814852 0.623306 0.497187 0.953252C0.179522 1.2832 0.000702671 1.73084 0 2.19786V25.7306C0.000702671 26.1976 0.179522 26.6453 0.497187 26.9752C0.814852 27.3052 1.24539 27.4904 1.69424 27.4904H36.0211C36.4699 27.4904 36.9005 27.3052 37.2181 26.9752C37.5358 26.6453 37.7146 26.1976 37.7153 25.7306V2.19786C37.7146 1.73084 37.5358 1.2832 37.2181 0.953252C36.9005 0.623306 36.4699 0.438029 36.0211 0.43811ZM27.1079 26.4173H1.69424C1.60738 26.4175 1.52132 26.3999 1.44099 26.3655C1.36066 26.3311 1.28763 26.2806 1.22607 26.2168C1.1645 26.1531 1.11562 26.0773 1.0822 25.9939C1.04877 25.9105 1.03147 25.821 1.03128 25.7306V2.19786C1.03147 2.10747 1.04877 2.01801 1.0822 1.93459C1.11562 1.85116 1.1645 1.7754 1.22607 1.71163C1.28763 1.64786 1.36066 1.59733 1.44099 1.56293C1.52132 1.52853 1.60738 1.51092 1.69424 1.51113H27.1079V26.4173ZM36.6841 25.7306C36.6839 25.821 36.6666 25.9105 36.6331 25.9939C36.5997 26.0773 36.5508 26.1531 36.4893 26.2168C36.4277 26.2806 36.3547 26.3311 36.2743 26.3655C36.194 26.3999 36.108 26.4175 36.0211 26.4173H28.1392V1.51113H36.0211C36.108 1.51092 36.194 1.52853 36.2743 1.56293C36.3547 1.59733 36.4277 1.64786 36.4893 1.71163C36.5508 1.7754 36.5997 1.85116 36.6331 1.93459C36.6666 2.01801 36.6839 2.10747 36.6841 2.19786V25.7306Z" fill="white"/>
<path d="M5.39468 7.11746C5.76864 7.11746 6.13421 7.00208 6.44514 6.78591C6.75608 6.56974 6.99843 6.26249 7.14153 5.90301C7.28464 5.54354 7.32209 5.14798 7.24913 4.76636C7.17617 4.38474 6.99609 4.0342 6.73166 3.75907C6.46723 3.48394 6.13033 3.29657 5.76356 3.22066C5.39678 3.14475 5.01661 3.18371 4.67111 3.33261C4.32562 3.48151 4.03032 3.73367 3.82256 4.05719C3.6148 4.38071 3.50391 4.76107 3.50391 5.15016C3.50445 5.67175 3.70383 6.17181 4.05831 6.54062C4.41278 6.90944 4.89339 7.11689 5.39468 7.11746ZM5.39468 4.25618C5.56468 4.25618 5.73085 4.30863 5.8722 4.4069C6.01354 4.50516 6.1237 4.64483 6.18876 4.80824C6.25381 4.97165 6.27083 5.15146 6.23767 5.32493C6.2045 5.49841 6.12264 5.65775 6.00244 5.78282C5.88224 5.90789 5.72909 5.99306 5.56236 6.02757C5.39564 6.06207 5.22282 6.04436 5.06577 5.97668C4.90872 5.90899 4.77448 5.79437 4.68004 5.6473C4.58559 5.50024 4.53519 5.32734 4.53519 5.15047C4.53534 4.91331 4.62594 4.68591 4.78708 4.51819C4.94823 4.35046 5.16675 4.25612 5.39468 4.25588V4.25618Z" fill="white"/>
<path d="M5.39468 11.818C5.76864 11.818 6.13421 11.7026 6.44514 11.4865C6.75608 11.2703 6.99843 10.9631 7.14153 10.6036C7.28464 10.2441 7.32209 9.84854 7.24913 9.46692C7.17617 9.0853 6.99609 8.73476 6.73166 8.45963C6.46723 8.1845 6.13033 7.99713 5.76356 7.92122C5.39678 7.84532 5.01661 7.88428 4.67111 8.03318C4.32562 8.18208 4.03032 8.43423 3.82256 8.75775C3.6148 9.08127 3.50391 9.46163 3.50391 9.85072C3.50445 10.3723 3.70383 10.8724 4.05831 11.2412C4.41278 11.61 4.89339 11.8175 5.39468 11.818ZM5.39468 8.95675C5.56468 8.95675 5.73085 9.0092 5.8722 9.10746C6.01354 9.20573 6.1237 9.34539 6.18876 9.5088C6.25381 9.67221 6.27083 9.85202 6.23767 10.0255C6.2045 10.199 6.12264 10.3583 6.00244 10.4834C5.88224 10.6084 5.72909 10.6936 5.56236 10.7281C5.39564 10.7626 5.22282 10.7449 5.06577 10.6772C4.90872 10.6096 4.77448 10.4949 4.68004 10.3479C4.58559 10.2008 4.53519 10.0279 4.53519 9.85103C4.53542 9.61392 4.62605 9.3866 4.78719 9.21894C4.94832 9.05129 5.1668 8.95699 5.39468 8.95675Z" fill="white"/>
<path d="M4.87904 20.2995V24.209C4.87904 24.3513 4.93337 24.4877 5.03007 24.5884C5.12677 24.689 5.25793 24.7455 5.39468 24.7455C5.53144 24.7455 5.6626 24.689 5.7593 24.5884C5.856 24.4877 5.91032 24.3513 5.91032 24.209V20.2995C6.30571 20.1826 6.65376 19.9349 6.90186 19.5939C7.14996 19.2529 7.28461 18.8372 7.28546 18.4095V16.7865C7.28475 16.3586 7.15017 15.9427 6.90207 15.6015C6.65396 15.2604 6.30583 15.0125 5.91032 14.8955V13.1723C5.91032 13.03 5.856 12.8935 5.7593 12.7929C5.6626 12.6923 5.53144 12.6357 5.39468 12.6357C5.25793 12.6357 5.12677 12.6923 5.03007 12.7929C4.93337 12.8935 4.87904 13.03 4.87904 13.1723V14.8955C4.48354 15.0125 4.13541 15.2604 3.8873 15.6015C3.6392 15.9427 3.50461 16.3586 3.50391 16.7865V18.4095C3.50476 18.8372 3.63941 19.2529 3.88751 19.5939C4.1356 19.9349 4.48366 20.1826 4.87904 20.2995ZM4.53548 16.7865C4.53337 16.6677 4.55403 16.5496 4.59627 16.4392C4.6385 16.3288 4.70147 16.2282 4.78147 16.1434C4.86148 16.0586 4.95693 15.9913 5.06224 15.9453C5.16756 15.8993 5.28062 15.8756 5.39483 15.8756C5.50904 15.8756 5.62211 15.8993 5.72742 15.9453C5.83273 15.9913 5.92818 16.0586 6.00819 16.1434C6.0882 16.2282 6.15116 16.3288 6.19339 16.4392C6.23563 16.5496 6.2563 16.6677 6.25418 16.7865V18.4095C6.2563 18.5283 6.23563 18.6464 6.19339 18.7568C6.15116 18.8672 6.0882 18.9677 6.00819 19.0525C5.92818 19.1373 5.83273 19.2047 5.72742 19.2507C5.62211 19.2966 5.50904 19.3203 5.39483 19.3203C5.28062 19.3203 5.16756 19.2966 5.06224 19.2507C4.95693 19.2047 4.86148 19.1373 4.78147 19.0525C4.70147 18.9677 4.6385 18.8672 4.59627 18.7568C4.55403 18.6464 4.53337 18.5283 4.53548 18.4095V16.7865Z" fill="white"/>
<path d="M11.1779 7.11746C11.5518 7.11746 11.9174 7.00208 12.2283 6.78591C12.5393 6.56974 12.7816 6.26249 12.9247 5.90301C13.0678 5.54354 13.1053 5.14798 13.0323 4.76636C12.9594 4.38474 12.7793 4.0342 12.5149 3.75907C12.2504 3.48394 11.9135 3.29657 11.5468 3.22066C11.18 3.14475 10.7998 3.18371 10.4543 3.33261C10.1088 3.48151 9.81352 3.73367 9.60576 4.05719C9.398 4.38071 9.28711 4.76107 9.28711 5.15016C9.28766 5.67175 9.48704 6.17181 9.84151 6.54062C10.196 6.90944 10.6766 7.11689 11.1779 7.11746ZM11.1779 4.25618C11.3479 4.25618 11.5141 4.30864 11.6554 4.40692C11.7968 4.5052 11.9069 4.64488 11.972 4.80831C12.037 4.97174 12.054 5.15156 12.0208 5.32505C11.9877 5.49853 11.9058 5.65787 11.7855 5.78293C11.6653 5.90798 11.5121 5.99313 11.3454 6.0276C11.1786 6.06207 11.0058 6.04432 10.8488 5.97659C10.6917 5.90886 10.5575 5.79419 10.4631 5.64708C10.3687 5.49998 10.3183 5.32705 10.3184 5.15016C10.3186 4.91306 10.4093 4.68573 10.5704 4.51808C10.7315 4.35042 10.95 4.25612 11.1779 4.25588V4.25618Z" fill="white"/>
<path d="M11.1779 11.818C11.5518 11.818 11.9174 11.7026 12.2283 11.4865C12.5393 11.2703 12.7816 10.9631 12.9247 10.6036C13.0678 10.2441 13.1053 9.84854 13.0323 9.46692C12.9594 9.0853 12.7793 8.73476 12.5149 8.45963C12.2504 8.1845 11.9135 7.99713 11.5468 7.92122C11.18 7.84532 10.7998 7.88428 10.4543 8.03318C10.1088 8.18208 9.81352 8.43423 9.60576 8.75775C9.398 9.08127 9.28711 9.46163 9.28711 9.85072C9.28766 10.3723 9.48704 10.8724 9.84151 11.2412C10.196 11.61 10.6766 11.8175 11.1779 11.818ZM11.1779 8.95675C11.3479 8.95675 11.5141 9.0092 11.6554 9.10746C11.7967 9.20573 11.9069 9.34539 11.972 9.5088C12.037 9.67221 12.054 9.85202 12.0209 10.0255C11.9877 10.199 11.9058 10.3583 11.7856 10.4834C11.6654 10.6084 11.5123 10.6936 11.3456 10.7281C11.1788 10.7626 11.006 10.7449 10.849 10.6772C10.6919 10.6096 10.5577 10.4949 10.4632 10.3479C10.3688 10.2008 10.3184 10.0279 10.3184 9.85103C10.3186 9.61392 10.4093 9.3866 10.5704 9.21894C10.7315 9.05129 10.95 8.95699 11.1779 8.95675Z" fill="white"/>
<path d="M10.6622 23.0612V24.209C10.6622 24.3513 10.7166 24.4877 10.8133 24.5884C10.91 24.689 11.0411 24.7455 11.1779 24.7455C11.3146 24.7455 11.4458 24.689 11.5425 24.5884C11.6392 24.4877 11.6935 24.3513 11.6935 24.209V23.0612C12.0893 22.9441 12.4376 22.6961 12.6858 22.3546C12.9339 22.0131 13.0683 21.5968 13.0687 21.1687V19.5478C13.068 19.12 12.9334 18.704 12.6853 18.3628C12.4372 18.0216 12.0891 17.7738 11.6935 17.6568V13.1723C11.6935 13.03 11.6392 12.8935 11.5425 12.7929C11.4458 12.6923 11.3146 12.6357 11.1779 12.6357C11.0411 12.6357 10.91 12.6923 10.8133 12.7929C10.7166 12.8935 10.6622 13.03 10.6622 13.1723V17.6568C10.2667 17.7738 9.91856 18.0216 9.67044 18.3628C9.42233 18.704 9.28777 19.12 9.28711 19.5478V21.1687C9.28745 21.5968 9.42187 22.0131 9.67 22.3546C9.91814 22.6961 10.2665 22.9441 10.6622 23.0612ZM10.3184 19.5478C10.3226 19.3135 10.4149 19.0903 10.5756 18.9262C10.7363 18.762 10.9525 18.6701 11.1777 18.6701C11.4029 18.6701 11.6191 18.762 11.7798 18.9262C11.9405 19.0903 12.0329 19.3135 12.0371 19.5478V21.1687C12.0329 21.4029 11.9405 21.6262 11.7798 21.7903C11.6191 21.9544 11.4029 22.0464 11.1777 22.0464C10.9525 22.0464 10.7363 21.9544 10.5756 21.7903C10.4149 21.6262 10.3226 21.4029 10.3184 21.1687V19.5478Z" fill="white"/>
<path d="M16.9611 7.11746C17.335 7.11746 17.7006 7.00208 18.0115 6.78591C18.3225 6.56974 18.5648 6.26249 18.7079 5.90301C18.851 5.54354 18.8885 5.14798 18.8155 4.76636C18.7426 4.38474 18.5625 4.0342 18.2981 3.75907C18.0336 3.48394 17.6967 3.29657 17.33 3.22066C16.9632 3.14475 16.583 3.18371 16.2375 3.33261C15.892 3.48151 15.5967 3.73367 15.389 4.05719C15.1812 4.38071 15.0703 4.76107 15.0703 5.15016C15.0709 5.67175 15.2702 6.17181 15.6247 6.54062C15.9792 6.90944 16.4598 7.11689 16.9611 7.11746ZM16.9611 4.25618C17.1311 4.25618 17.2973 4.30863 17.4386 4.4069C17.5799 4.50516 17.6901 4.64483 17.7552 4.80824C17.8202 4.97165 17.8372 5.15146 17.8041 5.32493C17.7709 5.49841 17.689 5.65775 17.5688 5.78282C17.4486 5.90789 17.2955 5.99306 17.1288 6.02757C16.962 6.06207 16.7892 6.04436 16.6322 5.97668C16.4751 5.90899 16.3409 5.79437 16.2464 5.6473C16.152 5.50024 16.1016 5.32734 16.1016 5.15047C16.1017 4.91331 16.1923 4.68591 16.3535 4.51819C16.5146 4.35046 16.7332 4.25612 16.9611 4.25588V4.25618Z" fill="white"/>
<path d="M16.9611 11.818C17.335 11.818 17.7006 11.7026 18.0115 11.4865C18.3225 11.2703 18.5648 10.9631 18.7079 10.6036C18.851 10.2441 18.8885 9.84854 18.8155 9.46692C18.7426 9.0853 18.5625 8.73476 18.2981 8.45963C18.0336 8.1845 17.6967 7.99713 17.33 7.92122C16.9632 7.84532 16.583 7.88428 16.2375 8.03318C15.892 8.18208 15.5967 8.43423 15.389 8.75775C15.1812 9.08127 15.0703 9.46163 15.0703 9.85072C15.0709 10.3723 15.2702 10.8724 15.6247 11.2412C15.9792 11.61 16.4598 11.8175 16.9611 11.818ZM16.9611 8.95675C17.1311 8.95675 17.2973 9.0092 17.4386 9.10746C17.5799 9.20573 17.6901 9.34539 17.7552 9.5088C17.8202 9.67221 17.8372 9.85202 17.8041 10.0255C17.7709 10.199 17.689 10.3583 17.5688 10.4834C17.4486 10.6084 17.2955 10.6936 17.1288 10.7281C16.962 10.7626 16.7892 10.7449 16.6322 10.6772C16.4751 10.6096 16.3409 10.4949 16.2464 10.3479C16.152 10.2008 16.1016 10.0279 16.1016 9.85103C16.1018 9.61392 16.1925 9.3866 16.3536 9.21894C16.5147 9.05129 16.7332 8.95699 16.9611 8.95675Z" fill="white"/>
<path d="M16.4455 20.2995V24.209C16.4455 24.3513 16.4998 24.4877 16.5965 24.5884C16.6932 24.689 16.8243 24.7455 16.9611 24.7455C17.0978 24.7455 17.229 24.689 17.3257 24.5884C17.4224 24.4877 17.4767 24.3513 17.4767 24.209V20.2995C17.8721 20.1826 18.2202 19.9349 18.4683 19.5939C18.7164 19.2529 18.851 18.8372 18.8519 18.4095V16.7865C18.8512 16.3586 18.7166 15.9427 18.4685 15.6015C18.2204 15.2604 17.8722 15.0125 17.4767 14.8955V13.1723C17.4767 13.03 17.4224 12.8935 17.3257 12.7929C17.229 12.6923 17.0978 12.6357 16.9611 12.6357C16.8243 12.6357 16.6932 12.6923 16.5965 12.7929C16.4998 12.8935 16.4455 13.03 16.4455 13.1723V14.8955C16.0499 15.0125 15.7018 15.2604 15.4537 15.6015C15.2056 15.9427 15.071 16.3586 15.0703 16.7865V18.4095C15.0712 18.8372 15.2058 19.2529 15.4539 19.5939C15.702 19.9349 16.0501 20.1826 16.4455 20.2995ZM16.1016 16.7865C16.0995 16.6677 16.1201 16.5496 16.1624 16.4392C16.2046 16.3288 16.2676 16.2282 16.3476 16.1434C16.4276 16.0586 16.523 15.9913 16.6284 15.9453C16.7337 15.8993 16.8467 15.8756 16.9609 15.8756C17.0752 15.8756 17.1882 15.8993 17.2935 15.9453C17.3988 15.9913 17.4943 16.0586 17.5743 16.1434C17.6543 16.2282 17.7173 16.3288 17.7595 16.4392C17.8017 16.5496 17.8224 16.6677 17.8203 16.7865V18.4095C17.8161 18.6438 17.7238 18.867 17.563 19.0311C17.4023 19.1953 17.1861 19.2872 16.9609 19.2872C16.7357 19.2872 16.5195 19.1953 16.3588 19.0311C16.1981 18.867 16.1058 18.6438 16.1016 18.4095V16.7865Z" fill="white"/>
<path d="M22.7443 7.11746C23.1183 7.11746 23.4838 7.00208 23.7948 6.78591C24.1057 6.56974 24.348 6.26249 24.4911 5.90301C24.6343 5.54354 24.6717 5.14798 24.5987 4.76636C24.5258 4.38474 24.3457 4.0342 24.0813 3.75907C23.8168 3.48394 23.4799 3.29657 23.1132 3.22066C22.7464 3.14475 22.3662 3.18371 22.0207 3.33261C21.6752 3.48151 21.3799 3.73367 21.1722 4.05719C20.9644 4.38071 20.8535 4.76107 20.8535 5.15016C20.8541 5.67175 21.0534 6.17181 21.4079 6.54062C21.7624 6.90944 22.243 7.11689 22.7443 7.11746ZM22.7443 4.25618C22.9143 4.25618 23.0805 4.30863 23.2218 4.4069C23.3631 4.50516 23.4733 4.64483 23.5384 4.80824C23.6034 4.97165 23.6204 5.15146 23.5873 5.32493C23.5541 5.49841 23.4723 5.65775 23.3521 5.78282C23.2318 5.90789 23.0787 5.99306 22.912 6.02757C22.7452 6.06207 22.5724 6.04436 22.4154 5.97668C22.2583 5.90899 22.1241 5.79437 22.0296 5.6473C21.9352 5.50024 21.8848 5.32734 21.8848 5.15047C21.885 4.91331 21.9755 4.68591 22.1367 4.51819C22.2978 4.35046 22.5164 4.25612 22.7443 4.25588V4.25618Z" fill="white"/>
<path d="M22.7443 11.818C23.1183 11.818 23.4838 11.7026 23.7948 11.4865C24.1057 11.2703 24.348 10.9631 24.4911 10.6036C24.6343 10.2441 24.6717 9.84854 24.5987 9.46692C24.5258 9.0853 24.3457 8.73476 24.0813 8.45963C23.8168 8.1845 23.4799 7.99713 23.1132 7.92122C22.7464 7.84532 22.3662 7.88428 22.0207 8.03318C21.6752 8.18208 21.3799 8.43423 21.1722 8.75775C20.9644 9.08127 20.8535 9.46163 20.8535 9.85072C20.8541 10.3723 21.0534 10.8724 21.4079 11.2412C21.7624 11.61 22.243 11.8175 22.7443 11.818ZM22.7443 8.95675C22.9143 8.95675 23.0805 9.0092 23.2218 9.10746C23.3631 9.20573 23.4733 9.34539 23.5384 9.5088C23.6034 9.67221 23.6204 9.85202 23.5873 10.0255C23.5541 10.199 23.4723 10.3583 23.3521 10.4834C23.2318 10.6084 23.0787 10.6936 22.912 10.7281C22.7452 10.7626 22.5724 10.7449 22.4154 10.6772C22.2583 10.6096 22.1241 10.4949 22.0296 10.3479C21.9352 10.2008 21.8848 10.0279 21.8848 9.85103C21.885 9.61392 21.9757 9.3866 22.1368 9.21894C22.2979 9.05129 22.5164 8.95699 22.7443 8.95675Z" fill="white"/>
<path d="M22.2289 23.0612V24.209C22.2289 24.3513 22.2833 24.4877 22.38 24.5884C22.4767 24.689 22.6078 24.7455 22.7446 24.7455C22.8813 24.7455 23.0125 24.689 23.1092 24.5884C23.2059 24.4877 23.2602 24.3513 23.2602 24.209V23.0612C23.6559 22.9441 24.0042 22.696 24.2523 22.3545C24.5004 22.013 24.6347 21.5967 24.6351 21.1687V19.5478C24.6344 19.12 24.4998 18.704 24.2517 18.3628C24.0036 18.0216 23.6555 17.7738 23.2599 17.6568V13.1723C23.2599 13.03 23.2056 12.8935 23.1089 12.7929C23.0122 12.6923 22.881 12.6357 22.7443 12.6357C22.6075 12.6357 22.4764 12.6923 22.3797 12.7929C22.283 12.8935 22.2287 13.03 22.2287 13.1723V17.6568C21.8331 17.7738 21.485 18.0216 21.2369 18.3628C20.9887 18.704 20.8542 19.12 20.8535 19.5478V21.1687C20.8539 21.5968 20.9883 22.0132 21.2365 22.3547C21.4847 22.6962 21.8331 22.9442 22.2289 23.0612ZM21.8851 19.5478C21.883 19.429 21.9036 19.3109 21.9459 19.2005C21.9881 19.0901 22.0511 18.9896 22.1311 18.9048C22.2111 18.82 22.3065 18.7526 22.4119 18.7066C22.5172 18.6606 22.6302 18.637 22.7444 18.637C22.8586 18.637 22.9717 18.6606 23.077 18.7066C23.1823 18.7526 23.2778 18.82 23.3578 18.9048C23.4378 18.9896 23.5008 19.0901 23.543 19.2005C23.5852 19.3109 23.6059 19.429 23.6038 19.5478V21.1687C23.6059 21.2875 23.5852 21.4055 23.543 21.516C23.5008 21.6264 23.4378 21.7269 23.3578 21.8117C23.2778 21.8965 23.1823 21.9639 23.077 22.0098C22.9717 22.0558 22.8586 22.0795 22.7444 22.0795C22.6302 22.0795 22.5172 22.0558 22.4119 22.0098C22.3065 21.9639 22.2111 21.8965 22.1311 21.8117C22.0511 21.7269 21.9881 21.6264 21.9459 21.516C21.9036 21.4055 21.883 21.2875 21.8851 21.1687V19.5478Z" fill="white"/>
<path d="M32.3626 8.42533C32.9815 8.42488 33.5811 8.20118 34.0592 7.79234C34.5374 7.3835 34.8645 6.81481 34.9848 6.18317C35.1052 5.55153 35.0113 4.89602 34.7192 4.32831C34.4271 3.7606 33.9549 3.31583 33.383 3.06976C32.8111 2.82369 32.1748 2.79156 31.5827 2.97884C30.9906 3.16611 30.4791 3.56121 30.1356 4.09681C29.792 4.63242 29.6376 5.27539 29.6986 5.91619C29.7596 6.55699 30.0322 7.15596 30.47 7.61107C30.7184 7.8698 31.0134 8.07492 31.3382 8.21466C31.663 8.35439 32.0111 8.42599 32.3626 8.42533ZM31.1993 4.43156C31.4424 4.17574 31.7577 4.00738 32.0991 3.95102C32.4406 3.89466 32.7905 3.95325 33.0978 4.11824L31.9993 5.26269C31.9514 5.31251 31.9134 5.37166 31.8875 5.43676C31.8616 5.50185 31.8482 5.57162 31.8482 5.64208C31.8482 5.71254 31.8616 5.78231 31.8875 5.8474C31.9134 5.9125 31.9514 5.97165 31.9993 6.02147C32.0472 6.07129 32.104 6.11081 32.1666 6.13777C32.2291 6.16474 32.2962 6.17862 32.3639 6.17862C32.4316 6.17862 32.4987 6.16474 32.5613 6.13777C32.6238 6.11081 32.6807 6.07129 32.7285 6.02147L33.8282 4.87733C33.9868 5.19701 34.0431 5.56103 33.9889 5.91634C33.9348 6.27164 33.7729 6.59967 33.5271 6.8526C33.2184 7.17377 32.7997 7.3542 32.3632 7.3542C31.9266 7.3542 31.508 7.17377 31.1993 6.8526C30.8906 6.53143 30.7172 6.09582 30.7172 5.64162C30.7172 5.18742 30.8906 4.75181 31.1993 4.43064V4.43156Z" fill="white"/>
<path d="M32.3618 15.4524C32.8912 15.4524 33.4086 15.2891 33.8487 14.9831C34.2888 14.6772 34.6319 14.2423 34.8344 13.7334C35.037 13.2246 35.09 12.6647 34.9867 12.1246C34.8835 11.5844 34.6286 11.0882 34.2543 10.6988C33.88 10.3093 33.4031 10.0441 32.884 9.93669C32.3648 9.82924 31.8267 9.88439 31.3377 10.0951C30.8486 10.3059 30.4307 10.6628 30.1366 11.1207C29.8425 11.5787 29.6855 12.1171 29.6855 12.6678C29.6864 13.4061 29.9686 14.1138 30.4704 14.6358C30.9721 15.1579 31.6523 15.4515 32.3618 15.4524ZM32.3618 10.9559C32.7078 10.9563 33.0448 11.0701 33.3251 11.281C33.6054 11.4919 33.8148 11.7893 33.9235 12.131H32.3618C32.2251 12.131 32.0939 12.1875 31.9972 12.2881C31.9005 12.3887 31.8462 12.5252 31.8462 12.6675C31.8462 12.8098 31.9005 12.9463 31.9972 13.0469C32.0939 13.1475 32.2251 13.204 32.3618 13.204H33.9235C33.8284 13.5033 33.6558 13.7695 33.4245 13.9732C33.1933 14.177 32.9125 14.3102 32.6131 14.3584C32.3136 14.4066 32.0072 14.3677 31.7277 14.2462C31.4481 14.1247 31.2062 13.9251 31.0288 13.6696C30.8513 13.4141 30.7451 13.1126 30.7219 12.7983C30.6987 12.4839 30.7594 12.1691 30.8972 11.8884C31.0351 11.6076 31.2449 11.372 31.5033 11.2075C31.7618 11.0429 32.0589 10.9559 32.3618 10.9559Z" fill="white"/>
<path d="M35.0278 17.3304H29.9805C29.9127 17.3303 29.8456 17.344 29.783 17.371C29.7203 17.3979 29.6634 17.4374 29.6155 17.4872C29.5676 17.5371 29.5296 17.5963 29.5038 17.6614C29.4779 17.7266 29.4647 17.7965 29.4648 17.867V24.535C29.4647 24.6055 29.4779 24.6753 29.5038 24.7405C29.5296 24.8056 29.5676 24.8649 29.6155 24.9147C29.6634 24.9646 29.7203 25.0041 29.783 25.031C29.8456 25.0579 29.9127 25.0716 29.9805 25.0715H35.0278C35.0954 25.0714 35.1622 25.0574 35.2246 25.0303C35.2869 25.0033 35.3435 24.9637 35.3911 24.9139C35.4388 24.8641 35.4765 24.8049 35.5021 24.7399C35.5277 24.6749 35.5408 24.6053 35.5405 24.535V17.867C35.5408 17.7967 35.5277 17.727 35.5021 17.662C35.4765 17.597 35.4388 17.5379 35.3911 17.488C35.3435 17.4382 35.2869 17.3986 35.2246 17.3716C35.1622 17.3445 35.0954 17.3306 35.0278 17.3304ZM34.5092 23.9985H30.4961V18.4035H34.5092V23.9985Z" fill="white"/>
</svg>
