<svg width="25" height="17" viewBox="0 0 25 17" fill="none" xmlns="http://www.w3.org/2000/svg">
<path d="M6.21143 4.73047H3.21143V3.23047H6.21143V4.73047ZM22.3364 6.23047C22.5942 6.23047 22.8364 6.28125 23.063 6.38281C23.2896 6.47656 23.4888 6.60938 23.6606 6.78125C23.8325 6.95312 23.9653 7.15234 24.0591 7.37891C24.1606 7.60547 24.2114 7.84766 24.2114 8.10547V16.7305H6.21143V13.7305H2.08643C1.82861 13.7305 1.58643 13.6836 1.35986 13.5898C1.1333 13.4883 0.934082 13.3516 0.762207 13.1797C0.590332 13.0078 0.453613 12.8086 0.352051 12.582C0.258301 12.3555 0.211426 12.1133 0.211426 11.8555V2.10547C0.211426 1.84766 0.258301 1.60547 0.352051 1.37891C0.453613 1.15234 0.590332 0.953125 0.762207 0.78125C0.934082 0.609375 1.1333 0.476562 1.35986 0.382812C1.58643 0.28125 1.82861 0.230469 2.08643 0.230469H17.8364C18.0942 0.230469 18.3364 0.28125 18.563 0.382812C18.7896 0.476562 18.9888 0.609375 19.1606 0.78125C19.3325 0.953125 19.4653 1.15234 19.5591 1.37891C19.6606 1.60547 19.7114 1.84766 19.7114 2.10547V6.23047H22.3364ZM2.08643 1.73047C1.97705 1.73047 1.88721 1.76562 1.81689 1.83594C1.74658 1.90625 1.71143 1.99609 1.71143 2.10547V9.23047H6.21143V8.10547C6.21143 7.84766 6.2583 7.60547 6.35205 7.37891C6.45361 7.15234 6.59033 6.95312 6.76221 6.78125C6.93408 6.60938 7.1333 6.47656 7.35986 6.38281C7.58643 6.28125 7.82861 6.23047 8.08643 6.23047H18.2114V2.10547C18.2114 1.99609 18.1763 1.90625 18.106 1.83594C18.0356 1.76562 17.9458 1.73047 17.8364 1.73047H2.08643ZM6.21143 12.2305V10.7305H1.71143V11.8555C1.71143 11.9648 1.74658 12.0547 1.81689 12.125C1.88721 12.1953 1.97705 12.2305 2.08643 12.2305H6.21143ZM22.7114 8.10547C22.7114 7.99609 22.6763 7.90625 22.606 7.83594C22.5356 7.76562 22.4458 7.73047 22.3364 7.73047H8.08643C7.97705 7.73047 7.88721 7.76562 7.81689 7.83594C7.74658 7.90625 7.71143 7.99609 7.71143 8.10547V15.2305H22.7114V8.10547ZM9.96143 12.2305C10.1646 12.2305 10.3403 12.3047 10.4888 12.4531C10.6372 12.6016 10.7114 12.7773 10.7114 12.9805C10.7114 13.1836 10.6372 13.3594 10.4888 13.5078C10.3403 13.6562 10.1646 13.7305 9.96143 13.7305C9.7583 13.7305 9.58252 13.6562 9.43408 13.5078C9.28564 13.3594 9.21143 13.1836 9.21143 12.9805C9.21143 12.7773 9.28564 12.6016 9.43408 12.4531C9.58252 12.3047 9.7583 12.2305 9.96143 12.2305ZM12.9614 12.2305C13.1646 12.2305 13.3403 12.3047 13.4888 12.4531C13.6372 12.6016 13.7114 12.7773 13.7114 12.9805C13.7114 13.1836 13.6372 13.3594 13.4888 13.5078C13.3403 13.6562 13.1646 13.7305 12.9614 13.7305C12.7583 13.7305 12.5825 13.6562 12.4341 13.5078C12.2856 13.3594 12.2114 13.1836 12.2114 12.9805C12.2114 12.7773 12.2856 12.6016 12.4341 12.4531C12.5825 12.3047 12.7583 12.2305 12.9614 12.2305Z" fill="#FF720D"/>
</svg>
