<svg width="22" height="24" viewBox="0 0 22 24" fill="none" xmlns="http://www.w3.org/2000/svg">
<path d="M18.3833 9.0321C18.8911 9.28992 19.3481 9.61023 19.7544 9.99304C20.1685 10.368 20.52 10.7899 20.8091 11.2587C21.0981 11.7196 21.3208 12.2196 21.4771 12.7587C21.6333 13.2899 21.7114 13.8407 21.7114 14.411H20.2114C20.2114 13.7938 20.0903 13.2118 19.8481 12.6649C19.6138 12.118 19.2935 11.6415 18.8872 11.2352C18.481 10.829 18.0044 10.5087 17.4575 10.2743C16.9106 10.0321 16.3286 9.91101 15.7114 9.91101C15.0942 9.91101 14.5122 10.0321 13.9653 10.2743C13.4185 10.5087 12.9419 10.829 12.5356 11.2352C12.1294 11.6415 11.8052 12.118 11.563 12.6649C11.3286 13.2118 11.2114 13.7938 11.2114 14.411C11.2114 15.1219 11.0474 15.7977 10.7192 16.4384C10.3989 17.079 9.95361 17.6102 9.3833 18.0321C9.89111 18.2899 10.3481 18.6102 10.7544 18.993C11.1685 19.368 11.52 19.7899 11.8091 20.2587C12.0981 20.7196 12.3208 21.2196 12.4771 21.7587C12.6333 22.2899 12.7114 22.8407 12.7114 23.411H11.2114C11.2114 22.7938 11.0903 22.2118 10.8481 21.6649C10.6138 21.118 10.2935 20.6415 9.88721 20.2352C9.48096 19.829 9.00439 19.5087 8.45752 19.2743C7.91064 19.0321 7.32861 18.911 6.71143 18.911C6.09424 18.911 5.51221 19.0321 4.96533 19.2743C4.41846 19.5087 3.94189 19.829 3.53564 20.2352C3.12939 20.6415 2.80518 21.118 2.56299 21.6649C2.32861 22.2118 2.21143 22.7938 2.21143 23.411H0.711426C0.711426 22.8407 0.789551 22.2899 0.945801 21.7587C1.10205 21.2196 1.32471 20.7196 1.61377 20.2587C1.90283 19.7899 2.25049 19.368 2.65674 18.993C3.0708 18.6102 3.53174 18.2899 4.03955 18.0321C3.46924 17.6102 3.02002 17.079 2.69189 16.4384C2.37158 15.7977 2.21143 15.1219 2.21143 14.411C2.21143 13.7938 2.32861 13.2118 2.56299 12.6649C2.80518 12.118 3.12939 11.6415 3.53564 11.2352C3.94189 10.829 4.41846 10.5087 4.96533 10.2743C5.51221 10.0321 6.09424 9.91101 6.71143 9.91101C7.42236 9.91101 8.09814 10.0751 8.73877 10.4032C9.37939 10.7235 9.91064 11.1688 10.3325 11.7391C10.6294 11.1532 11.0083 10.6298 11.4692 10.1688C11.9302 9.70789 12.4536 9.32898 13.0396 9.0321C12.4692 8.61023 12.02 8.07898 11.6919 7.43835C11.3716 6.79773 11.2114 6.12195 11.2114 5.41101C11.2114 4.79382 11.3286 4.21179 11.563 3.66492C11.8052 3.11804 12.1294 2.64148 12.5356 2.23523C12.9419 1.82898 13.4185 1.50867 13.9653 1.27429C14.5122 1.0321 15.0942 0.911011 15.7114 0.911011C16.3286 0.911011 16.9106 1.0321 17.4575 1.27429C18.0044 1.50867 18.481 1.82898 18.8872 2.23523C19.2935 2.64148 19.6138 3.11804 19.8481 3.66492C20.0903 4.21179 20.2114 4.79382 20.2114 5.41101C20.2114 6.12195 20.0474 6.79773 19.7192 7.43835C19.3989 8.07898 18.9536 8.61023 18.3833 9.0321ZM6.71143 17.411C7.11768 17.411 7.50439 17.3329 7.87158 17.1766C8.23877 17.0126 8.55518 16.7977 8.8208 16.5321C9.09424 16.2587 9.30908 15.9423 9.46533 15.5829C9.62939 15.2157 9.71143 14.8251 9.71143 14.411C9.71143 14.0048 9.62939 13.618 9.46533 13.2509C9.30908 12.8837 9.09424 12.5673 8.8208 12.3016C8.55518 12.0282 8.23877 11.8134 7.87158 11.6571C7.50439 11.493 7.11768 11.411 6.71143 11.411C6.29736 11.411 5.90674 11.493 5.53955 11.6571C5.18018 11.8134 4.86377 12.0282 4.59033 12.3016C4.32471 12.5673 4.10986 12.8837 3.9458 13.2509C3.78955 13.618 3.71143 14.0048 3.71143 14.411C3.71143 14.8251 3.78955 15.2157 3.9458 15.5829C4.10986 15.9423 4.32471 16.2587 4.59033 16.5321C4.86377 16.7977 5.18018 17.0126 5.53955 17.1766C5.90674 17.3329 6.29736 17.411 6.71143 17.411ZM12.7114 5.41101C12.7114 5.82507 12.7896 6.2157 12.9458 6.58289C13.1099 6.94226 13.3247 7.25867 13.5903 7.5321C13.8638 7.79773 14.1802 8.01257 14.5396 8.17664C14.9067 8.33289 15.2974 8.41101 15.7114 8.41101C16.1177 8.41101 16.5044 8.33289 16.8716 8.17664C17.2388 8.01257 17.5552 7.79773 17.8208 7.5321C18.0942 7.25867 18.3091 6.94226 18.4653 6.58289C18.6294 6.2157 18.7114 5.82507 18.7114 5.41101C18.7114 5.00476 18.6294 4.61804 18.4653 4.25085C18.3091 3.88367 18.0942 3.56726 17.8208 3.30164C17.5552 3.0282 17.2388 2.81335 16.8716 2.6571C16.5044 2.49304 16.1177 2.41101 15.7114 2.41101C15.2974 2.41101 14.9067 2.49304 14.5396 2.6571C14.1802 2.81335 13.8638 3.0282 13.5903 3.30164C13.3247 3.56726 13.1099 3.88367 12.9458 4.25085C12.7896 4.61804 12.7114 5.00476 12.7114 5.41101Z" fill="#FF720D"/>
</svg>
