<svg width="22" height="22" viewBox="0 0 22 22" fill="none" xmlns="http://www.w3.org/2000/svg">
<path d="M6.71143 13.3469C6.71143 13.7454 6.62549 14.1086 6.45361 14.4368C6.28174 14.7571 6.05518 15.0344 5.77393 15.2688C5.49268 15.4954 5.17236 15.6711 4.81299 15.7961C4.45361 15.9133 4.08643 15.9719 3.71143 15.9719C3.33643 15.9719 2.96924 15.9133 2.60986 15.7961C2.25049 15.6711 1.93018 15.4954 1.64893 15.2688C1.36768 15.0344 1.14111 14.7571 0.969238 14.4368C0.797363 14.1086 0.711426 13.7454 0.711426 13.3469C0.711426 12.9485 0.797363 12.5891 0.969238 12.2688C1.14111 11.9407 1.36768 11.6633 1.64893 11.4368C1.93018 11.2024 2.25049 11.0266 2.60986 10.9094C2.96924 10.7844 3.33643 10.7219 3.71143 10.7219C3.96924 10.7219 4.22705 10.7532 4.48486 10.8157C4.74268 10.8704 4.98486 10.9563 5.21143 11.0735V0.971924H6.71143C6.71143 1.47192 6.8208 1.92114 7.03955 2.31958C7.26611 2.71802 7.56689 3.07739 7.94189 3.39771C8.48877 3.86646 8.91846 4.39771 9.23096 4.99146C9.55127 5.57739 9.71143 6.23755 9.71143 6.97192H8.21143C8.21143 6.47974 8.09814 6.03052 7.87158 5.62427C7.65283 5.21021 7.35596 4.85083 6.98096 4.54614C6.93408 4.50708 6.88721 4.46802 6.84033 4.42896C6.79346 4.38989 6.75049 4.35083 6.71143 4.31177V13.3469ZM3.71143 14.4719C3.86768 14.4719 4.03174 14.4485 4.20361 14.4016C4.3833 14.3547 4.54736 14.2844 4.6958 14.1907C4.84424 14.0969 4.96533 13.9797 5.05908 13.8391C5.16064 13.6985 5.21143 13.5344 5.21143 13.3469C5.21143 13.1594 5.16064 12.9954 5.05908 12.8547C4.96533 12.7141 4.84424 12.5969 4.6958 12.5032C4.54736 12.4094 4.3833 12.3391 4.20361 12.2922C4.03174 12.2454 3.86768 12.2219 3.71143 12.2219C3.55518 12.2219 3.38721 12.2454 3.20752 12.2922C3.03564 12.3391 2.87549 12.4094 2.72705 12.5032C2.57861 12.5969 2.45361 12.7141 2.35205 12.8547C2.2583 12.9954 2.21143 13.1594 2.21143 13.3469C2.21143 13.5344 2.2583 13.6985 2.35205 13.8391C2.45361 13.9797 2.57861 14.0969 2.72705 14.1907C2.87549 14.2844 3.03564 14.3547 3.20752 14.4016C3.38721 14.4485 3.55518 14.4719 3.71143 14.4719ZM21.7114 17.8469C21.7114 18.2454 21.6255 18.6086 21.4536 18.9368C21.2817 19.2571 21.0552 19.5344 20.7739 19.7688C20.4927 19.9954 20.1724 20.1711 19.813 20.2961C19.4536 20.4133 19.0864 20.4719 18.7114 20.4719C18.3364 20.4719 17.9692 20.4133 17.6099 20.2961C17.2505 20.1711 16.9302 19.9954 16.6489 19.7688C16.3677 19.5344 16.1411 19.2571 15.9692 18.9368C15.7974 18.6086 15.7114 18.2454 15.7114 17.8469C15.7114 17.4485 15.7974 17.0891 15.9692 16.7688C16.1411 16.4407 16.3677 16.1633 16.6489 15.9368C16.9302 15.7024 17.2505 15.5266 17.6099 15.4094C17.9692 15.2844 18.3364 15.2219 18.7114 15.2219C18.9692 15.2219 19.2271 15.2532 19.4849 15.3157C19.7427 15.3704 19.9849 15.4563 20.2114 15.5735V7.74536L12.7114 9.62036V19.3469C12.7114 19.7454 12.6255 20.1086 12.4536 20.4368C12.2817 20.7571 12.0552 21.0344 11.7739 21.2688C11.4927 21.4954 11.1724 21.6711 10.813 21.7961C10.4536 21.9133 10.0864 21.9719 9.71143 21.9719C9.33643 21.9719 8.96924 21.9133 8.60986 21.7961C8.25049 21.6711 7.93018 21.4954 7.64893 21.2688C7.36768 21.0344 7.14111 20.7571 6.96924 20.4368C6.79736 20.1086 6.71143 19.7454 6.71143 19.3469C6.71143 18.9485 6.79736 18.5891 6.96924 18.2688C7.14111 17.9407 7.36768 17.6633 7.64893 17.4368C7.93018 17.2024 8.25049 17.0266 8.60986 16.9094C8.96924 16.7844 9.33643 16.7219 9.71143 16.7219C9.96924 16.7219 10.2271 16.7532 10.4849 16.8157C10.7427 16.8704 10.9849 16.9563 11.2114 17.0735V8.44849L21.7114 5.82349V17.8469ZM9.71143 20.4719C9.86768 20.4719 10.0317 20.4485 10.2036 20.4016C10.3833 20.3547 10.5474 20.2844 10.6958 20.1907C10.8442 20.0969 10.9653 19.9797 11.0591 19.8391C11.1606 19.6985 11.2114 19.5344 11.2114 19.3469C11.2114 19.1594 11.1606 18.9954 11.0591 18.8547C10.9653 18.7141 10.8442 18.5969 10.6958 18.5032C10.5474 18.4094 10.3833 18.3391 10.2036 18.2922C10.0317 18.2454 9.86768 18.2219 9.71143 18.2219C9.55518 18.2219 9.38721 18.2454 9.20752 18.2922C9.03564 18.3391 8.87549 18.4094 8.72705 18.5032C8.57861 18.5969 8.45361 18.7141 8.35205 18.8547C8.2583 18.9954 8.21143 19.1594 8.21143 19.3469C8.21143 19.5344 8.2583 19.6985 8.35205 19.8391C8.45361 19.9797 8.57861 20.0969 8.72705 20.1907C8.87549 20.2844 9.03564 20.3547 9.20752 20.4016C9.38721 20.4485 9.55518 20.4719 9.71143 20.4719ZM18.7114 18.9719C18.8677 18.9719 19.0317 18.9485 19.2036 18.9016C19.3833 18.8547 19.5474 18.7844 19.6958 18.6907C19.8442 18.5969 19.9653 18.4797 20.0591 18.3391C20.1606 18.1985 20.2114 18.0344 20.2114 17.8469C20.2114 17.6594 20.1606 17.4954 20.0591 17.3547C19.9653 17.2141 19.8442 17.0969 19.6958 17.0032C19.5474 16.9094 19.3833 16.8391 19.2036 16.7922C19.0317 16.7454 18.8677 16.7219 18.7114 16.7219C18.5552 16.7219 18.3872 16.7454 18.2075 16.7922C18.0356 16.8391 17.8755 16.9094 17.7271 17.0032C17.5786 17.0969 17.4536 17.2141 17.3521 17.3547C17.2583 17.4954 17.2114 17.6594 17.2114 17.8469C17.2114 18.0344 17.2583 18.1985 17.3521 18.3391C17.4536 18.4797 17.5786 18.5969 17.7271 18.6907C17.8755 18.7844 18.0356 18.8547 18.2075 18.9016C18.3872 18.9485 18.5552 18.9719 18.7114 18.9719Z" fill="#FF720D"/>
</svg>
