<svg width="18" height="20" viewBox="0 0 18 20" fill="none" xmlns="http://www.w3.org/2000/svg">
<path d="M10.6248 5.5612C11.6082 5.5612 12.5493 5.74168 13.4481 6.10265C14.347 6.46362 15.146 6.98628 15.8451 7.67061C16.5442 8.35495 17.0781 9.13706 17.4469 10.0169C17.8156 10.8968 18 11.818 18 12.7806C18 13.7808 17.8079 14.7171 17.4238 15.5894C17.0397 16.4617 16.5134 17.2288 15.8451 17.8906C15.1767 18.5524 14.3969 19.0675 13.5058 19.436C12.6146 19.8045 11.6543 19.9925 10.6248 20V18.5561C11.4392 18.5561 12.2036 18.4057 12.9181 18.1049C13.6325 17.8041 14.2548 17.3905 14.7849 16.8641C15.315 16.3377 15.7375 15.7248 16.0525 15.0254C16.3675 14.326 16.525 13.5777 16.525 12.7806C16.525 11.9835 16.3713 11.2352 16.064 10.5358C15.7567 9.83644 15.3342 9.2273 14.7964 8.7084C14.2586 8.18951 13.6325 7.7759 12.9181 7.46757C12.2036 7.15924 11.4392 7.00508 10.6248 7.00508H2.8233L7.45583 11.551L6.41869 12.5663L0 6.28314L6.41869 0L7.45583 1.01523L2.8233 5.5612H10.6248Z" fill="#767676"/>
</svg>
