<svg width="18" height="18" viewBox="0 0 18 18" fill="none" xmlns="http://www.w3.org/2000/svg">
<path opacity="0.4" d="M11.25 1.4939C11.7552 1.4939 12.2422 1.559 12.7109 1.68921C13.1797 1.81942 13.6172 2.00431 14.0234 2.2439C14.4297 2.48348 14.7995 2.76994 15.1328 3.10327C15.4661 3.4366 15.7552 3.809 16 4.22046C16.2448 4.63192 16.4297 5.06942 16.5547 5.53296C16.6797 5.9965 16.7448 6.48348 16.75 6.9939C16.75 7.4991 16.6849 7.98608 16.5547 8.45483C16.4245 8.92358 16.2396 9.36108 16 9.76733C15.7604 10.1736 15.474 10.5434 15.1406 10.8767C14.8073 11.21 14.4349 11.4991 14.0234 11.7439C13.612 11.9887 13.1745 12.1736 12.7109 12.2986C12.2474 12.4236 11.7604 12.4887 11.25 12.4939C10.599 12.4939 9.97656 12.3845 9.38281 12.1658C8.78906 11.947 8.23958 11.6319 7.73438 11.2205L1.60156 17.3455C1.5026 17.4444 1.38542 17.4939 1.25 17.4939C1.11458 17.4939 0.997396 17.4444 0.898438 17.3455C0.799479 17.2465 0.75 17.1293 0.75 16.9939C0.75 16.8585 0.799479 16.7413 0.898438 16.6423L7.02344 10.5095C6.61198 10.0095 6.29688 9.46265 6.07812 8.8689C5.85938 8.27515 5.75 7.65015 5.75 6.9939C5.75 6.48869 5.8151 6.00171 5.94531 5.53296C6.07552 5.06421 6.26042 4.62671 6.5 4.22046C6.73958 3.81421 7.02604 3.44442 7.35938 3.11108C7.69271 2.77775 8.0651 2.48869 8.47656 2.2439C8.88802 1.9991 9.32552 1.81421 9.78906 1.68921C10.2526 1.56421 10.7396 1.4991 11.25 1.4939ZM11.25 11.4939C11.8698 11.4939 12.4531 11.3767 13 11.1423C13.5469 10.908 14.0234 10.585 14.4297 10.1736C14.8359 9.76213 15.1562 9.28556 15.3906 8.7439C15.625 8.20223 15.7448 7.6189 15.75 6.9939C15.75 6.3741 15.6328 5.79077 15.3984 5.2439C15.1641 4.69702 14.8411 4.22046 14.4297 3.81421C14.0182 3.40796 13.5417 3.08765 13 2.85327C12.4583 2.6189 11.875 2.4991 11.25 2.4939C10.6302 2.4939 10.0469 2.61108 9.5 2.84546C8.95312 3.07983 8.47656 3.40275 8.07031 3.81421C7.66406 4.22567 7.34375 4.70223 7.10938 5.2439C6.875 5.78556 6.75521 6.3689 6.75 6.9939C6.75 7.61369 6.86719 8.19702 7.10156 8.7439C7.33594 9.29077 7.65885 9.76733 8.07031 10.1736C8.48177 10.5798 8.95833 10.9001 9.5 11.1345C10.0417 11.3689 10.625 11.4887 11.25 11.4939Z" fill="white" stroke="#0060FE"/>
</svg>
