<svg width="25" height="25" viewBox="0 0 25 25" fill="none" xmlns="http://www.w3.org/2000/svg">
<path d="M21.106 11.8986C21.106 11.9689 21.106 12.0392 21.106 12.1095C21.1138 12.1798 21.1177 12.2501 21.1177 12.3204C21.1177 12.3907 21.1138 12.4611 21.106 12.5314C21.106 12.6017 21.106 12.672 21.106 12.7423L24.1411 14.629L22.2778 19.1173L18.7974 18.3204C18.6099 18.5236 18.4146 18.7189 18.2114 18.9064L19.0083 22.3868L14.52 24.2501L12.6333 21.215C12.563 21.215 12.4927 21.2189 12.4224 21.2267C12.3521 21.2267 12.2817 21.2267 12.2114 21.2267C12.1411 21.2267 12.0708 21.2267 12.0005 21.2267C11.9302 21.2189 11.8599 21.215 11.7896 21.215L9.90283 24.2501L5.41455 22.3868L6.21143 18.9064C6.0083 18.7189 5.81299 18.5236 5.62549 18.3204L2.14502 19.1173L0.281738 14.629L3.31689 12.7423C3.31689 12.672 3.31299 12.6017 3.30518 12.5314C3.30518 12.4611 3.30518 12.3907 3.30518 12.3204C3.30518 12.2501 3.30518 12.1798 3.30518 12.1095C3.31299 12.0392 3.31689 11.9689 3.31689 11.8986L0.281738 10.0118L2.14502 5.52356L5.62549 6.32043C5.81299 6.11731 6.0083 5.922 6.21143 5.7345L5.41455 2.25403L9.90283 0.390747L11.7896 3.4259C11.8599 3.4259 11.9302 3.4259 12.0005 3.4259C12.0708 3.41809 12.1411 3.41418 12.2114 3.41418C12.2817 3.41418 12.3521 3.41809 12.4224 3.4259C12.4927 3.4259 12.563 3.4259 12.6333 3.4259L14.52 0.390747L19.0083 2.25403L18.2114 5.7345C18.4146 5.922 18.6099 6.11731 18.7974 6.32043L22.2778 5.52356L24.1411 10.0118L21.106 11.8986ZM19.7349 13.422C19.7505 13.2345 19.7661 13.0509 19.7817 12.8712C19.7974 12.6837 19.8052 12.4962 19.8052 12.3087C19.8052 12.129 19.7974 11.9454 19.7817 11.7579C19.7661 11.5704 19.7505 11.3868 19.7349 11.2072L22.5005 9.4845L21.4927 7.047L18.3169 7.78528C18.0747 7.4884 17.8247 7.21497 17.5669 6.96497C17.3169 6.71497 17.0435 6.46497 16.7466 6.21497L17.4849 3.03918L15.0474 2.03137L13.313 4.797C13.1333 4.78137 12.9497 4.76575 12.7622 4.75012C12.5747 4.7345 12.3911 4.72668 12.2114 4.72668C12.0239 4.72668 11.8364 4.7345 11.6489 4.75012C11.4692 4.76575 11.2856 4.78137 11.0981 4.797L9.37549 2.03137L6.93799 3.03918L7.67627 6.21497C7.37939 6.45715 7.10596 6.70715 6.85596 6.96497C6.60596 7.21497 6.35596 7.4884 6.10596 7.78528L2.93018 7.047L1.92236 9.4845L4.68799 11.2189C4.67236 11.4064 4.65674 11.5939 4.64111 11.7814C4.62549 11.9611 4.61768 12.1447 4.61768 12.3322C4.61768 12.5118 4.62549 12.6954 4.64111 12.8829C4.65674 13.0704 4.67236 13.254 4.68799 13.4337L1.92236 15.1564L2.93018 17.5939L6.10596 16.8556C6.34814 17.1525 6.59424 17.4259 6.84424 17.6759C7.10205 17.9259 7.37939 18.1759 7.67627 18.4259L6.93799 21.6017L9.37549 22.6095L11.1099 19.8439C11.2896 19.8595 11.4731 19.8751 11.6606 19.8907C11.8481 19.9064 12.0317 19.9142 12.2114 19.9142C12.3989 19.9142 12.5825 19.9064 12.7622 19.8907C12.9497 19.8751 13.1372 19.8595 13.3247 19.8439L15.0474 22.6095L17.4849 21.6017L16.7466 18.4259C17.0435 18.1837 17.3169 17.9376 17.5669 17.6876C17.8169 17.4298 18.0669 17.1525 18.3169 16.8556L21.4927 17.5939L22.5005 15.1564L19.7349 13.422ZM12.2114 7.91418C12.8208 7.91418 13.3911 8.03137 13.9224 8.26575C14.4614 8.49231 14.9302 8.80481 15.3286 9.20325C15.7271 9.60168 16.0396 10.0704 16.2661 10.6095C16.5005 11.1407 16.6177 11.7111 16.6177 12.3204C16.6177 12.9298 16.5005 13.504 16.2661 14.0431C16.0396 14.5743 15.7271 15.0392 15.3286 15.4376C14.9302 15.8361 14.4614 16.1525 13.9224 16.3868C13.3911 16.6134 12.8208 16.7267 12.2114 16.7267C11.6021 16.7267 11.0278 16.6134 10.4888 16.3868C9.95752 16.1525 9.49268 15.8361 9.09424 15.4376C8.6958 15.0392 8.37939 14.5743 8.14502 14.0431C7.91846 13.504 7.80518 12.9298 7.80518 12.3204C7.80518 11.7111 7.91846 11.1407 8.14502 10.6095C8.37939 10.0704 8.6958 9.60168 9.09424 9.20325C9.49268 8.80481 9.95752 8.49231 10.4888 8.26575C11.0278 8.03137 11.6021 7.91418 12.2114 7.91418ZM12.2114 15.4142C12.6411 15.4142 13.0435 15.3361 13.4185 15.1798C13.7935 15.0157 14.1216 14.7931 14.4028 14.5118C14.6841 14.2306 14.9028 13.9025 15.0591 13.5275C15.2231 13.1525 15.3052 12.7501 15.3052 12.3204C15.3052 11.8907 15.2231 11.4884 15.0591 11.1134C14.9028 10.7384 14.6841 10.4103 14.4028 10.129C14.1216 9.84778 13.7935 9.62903 13.4185 9.47278C13.0435 9.30872 12.6411 9.22668 12.2114 9.22668C11.7817 9.22668 11.3794 9.30872 11.0044 9.47278C10.6294 9.62903 10.3013 9.84778 10.02 10.129C9.73877 10.4103 9.51611 10.7384 9.35205 11.1134C9.1958 11.4884 9.11768 11.8907 9.11768 12.3204C9.11768 12.7501 9.1958 13.1525 9.35205 13.5275C9.51611 13.9025 9.73877 14.2306 10.02 14.5118C10.3013 14.7931 10.6294 15.0157 11.0044 15.1798C11.3794 15.3361 11.7817 15.4142 12.2114 15.4142Z" fill="#FF720D"/>
</svg>
