<svg width="23" height="25" viewBox="0 0 23 25" fill="none" xmlns="http://www.w3.org/2000/svg">
<path d="M22.1679 10.7477V12.1477H0.254883V10.7477H10.5327V0.147705H11.8901V10.7477H22.1679ZM3.16369 9.14771H1.80625V3.14771H3.35761V9.14771H3.16369ZM1.80625 13.7477H7.62387V24.1477H1.80625V13.7477ZM3.16369 22.7477H6.0725V15.1477H3.16369V22.7477ZM6.0725 9.14771H4.71506V4.7477H6.0725V9.14771ZM8.98132 9.14771H7.62387V1.74771H9.17524V9.14771H8.98132ZM8.98132 13.7477H14.7989V24.1477H8.98132V13.7477ZM10.5327 22.7477H13.4415V15.1477H10.5327V22.7477ZM19.2591 3.14771H13.4415V1.74771H19.2591V3.14771ZM17.7078 6.14771H13.4415V4.7477H17.7078V6.14771ZM20.6166 9.14771H13.4415V7.7477H20.8105V9.14771H20.6166ZM16.3503 13.7477H22.1679V24.1477H16.3503V13.7477ZM17.7078 22.7477H20.6166V15.1477H17.7078V22.7477Z" fill="#FF720D"/>
</svg>
