<svg width="162" height="40" viewBox="0 0 162 40" fill="none" xmlns="http://www.w3.org/2000/svg">
<path d="M41.597 5.84946H34.9775V1.55908H52.8132V5.84946H46.1325V25.4013H41.6583V5.84946H41.597Z" fill="#E4E8EF"/>
<path d="M55.8165 24.7877C54.4681 23.9909 53.4262 22.9489 52.6294 21.6005C51.8939 20.2521 51.4648 18.7198 51.4648 17.0037C51.4648 15.4101 51.8326 13.8778 52.5681 12.4682C53.3036 11.0585 54.3455 9.95522 55.6939 9.15844C57.0423 8.36165 58.5133 7.93262 60.1682 7.93262C61.9456 7.93262 63.4166 8.30036 64.7037 9.03586C65.9908 9.77135 66.9102 10.8133 67.5844 12.1617C68.2586 13.4488 68.565 14.9198 68.565 16.5134C68.565 17.0037 68.5038 17.494 68.4425 17.9843H55.7552C56.0004 19.3328 56.4907 20.3747 57.3488 21.0489C58.2069 21.7231 59.2488 22.0908 60.4133 22.0908C61.394 22.0908 62.2521 21.8457 62.9876 21.4166C63.7231 20.9876 64.2747 20.3747 64.7037 19.6392L68.2586 21.3554C66.5424 24.3586 63.9069 25.8909 60.352 25.8909C58.6972 25.9522 57.1649 25.5231 55.8165 24.7877ZM64.3973 14.8585C64.336 14.3069 64.1521 13.8166 63.7843 13.2649C63.4166 12.7746 62.9876 12.2843 62.3747 11.9778C61.7617 11.6101 61.0262 11.4875 60.2295 11.4875C59.1875 11.4875 58.2682 11.794 57.5327 12.4069C56.7972 13.0198 56.2455 13.8166 55.9391 14.8585H64.3973V14.8585Z" fill="#E4E8EF"/>
<path d="M74.878 24.7877C73.5296 24.0522 72.4877 22.9489 71.6909 21.6005C70.9554 20.2521 70.5264 18.6585 70.5264 16.9424C70.5264 15.2263 70.8941 13.694 71.6909 12.2843C72.4264 10.9359 73.5296 9.83264 74.878 9.09715C76.2264 8.30036 77.7587 7.93262 79.4749 7.93262C81.3749 7.93262 82.9685 8.36165 84.3169 9.15844C85.6653 9.95522 86.6459 11.1198 87.2588 12.5907L83.2749 14.2456C82.5394 12.7133 81.3136 11.9778 79.4749 11.9778C78.1265 11.9778 77.0232 12.4069 76.2264 13.3262C75.3684 14.2456 74.9393 15.4101 74.9393 16.9424C74.9393 18.4747 75.3684 19.6392 76.2264 20.5586C77.0845 21.4779 78.1877 21.907 79.4749 21.907C81.3136 21.907 82.662 21.1102 83.4588 19.5166L87.4427 21.2328C86.7072 22.7038 85.6653 23.8683 84.3169 24.6651C82.9685 25.4619 81.3749 25.8909 79.4749 25.8909C77.7587 25.9522 76.2264 25.5231 74.878 24.7877Z" fill="#E4E8EF"/>
<path d="M89.8945 1.55811H94.2462V7.56463L94.001 10.5066H94.2462C94.7365 9.70981 95.472 9.03561 96.3914 8.60658C97.3107 8.11625 98.3527 7.87108 99.3946 7.87108C101.479 7.87108 103.011 8.48399 104.114 9.70981C105.217 10.9356 105.769 12.6518 105.769 14.797V25.339H101.417V15.4099C101.417 14.3066 101.111 13.5099 100.559 12.8969C99.9463 12.284 99.2108 11.9776 98.2301 11.9776C97.0656 11.9776 96.1462 12.4679 95.4107 13.3873C94.6752 14.3066 94.3075 15.4712 94.3075 16.8196V25.4616H89.9558V1.55811H89.8945Z" fill="#E4E8EF"/>
<path d="M113.675 5.84848H106.995V1.55811H124.83V5.84848H118.15V25.4003H113.675V5.84848Z" fill="#E4E8EF"/>
<path d="M127.956 24.7261C126.608 23.9293 125.505 22.8874 124.769 21.4777C124.034 20.1293 123.604 18.597 123.604 16.8809C123.604 15.1647 123.972 13.6937 124.769 12.284C125.505 10.9356 126.608 9.83241 127.956 9.03562C129.305 8.23884 130.898 7.87109 132.676 7.87109C134.392 7.87109 135.985 8.23884 137.334 9.03562C138.682 9.83241 139.785 10.8744 140.521 12.284C141.256 13.6325 141.685 15.1647 141.685 16.8809C141.685 18.597 141.318 20.1293 140.521 21.4777C139.785 22.8261 138.682 23.9293 137.334 24.7261C135.985 25.5229 134.392 25.8907 132.676 25.8907C130.898 25.952 129.305 25.5229 127.956 24.7261ZM134.943 21.2938C135.679 20.8648 136.23 20.3132 136.659 19.5777C137.089 18.8422 137.272 17.9228 137.272 16.9422C137.272 15.9615 137.089 15.0421 136.659 14.3067C136.23 13.5712 135.679 12.9582 134.943 12.5905C134.208 12.1615 133.472 11.9776 132.614 11.9776C131.756 11.9776 131.021 12.1615 130.285 12.5905C129.55 13.0195 128.998 13.5712 128.569 14.3067C128.14 15.0421 127.895 15.9615 127.895 16.9422C127.895 17.9228 128.14 18.8422 128.569 19.5777C128.998 20.3132 129.55 20.9261 130.285 21.3551C131.021 21.7842 131.756 21.968 132.614 21.968C133.472 21.9067 134.269 21.7229 134.943 21.2938Z" fill="#E4E8EF"/>
<path d="M144.014 8.42295H148.121V10.5068H148.366C148.856 9.77135 149.531 9.15844 150.389 8.66811C151.247 8.17778 152.289 7.93262 153.453 7.93262C154.985 7.93262 156.395 8.30036 157.621 9.09715C158.847 9.83264 159.827 10.9359 160.563 12.2843C161.298 13.6327 161.605 15.2263 161.605 16.9424C161.605 18.7198 161.237 20.2521 160.563 21.6005C159.827 22.9489 158.847 24.0522 157.621 24.7877C156.395 25.5231 154.985 25.9522 153.453 25.9522C152.289 25.9522 151.247 25.707 150.389 25.2167C149.469 24.7264 148.795 24.1135 148.366 23.378H148.121L148.366 25.7683V39.7427H144.014V8.42295V8.42295ZM154.985 21.2941C155.721 20.865 156.273 20.3134 156.702 19.5166C157.131 18.7811 157.315 17.9231 157.315 16.9424C157.315 15.9617 157.131 15.1037 156.702 14.3682C156.273 13.6327 155.721 13.0198 154.985 12.5907C154.25 12.1617 153.515 11.9778 152.718 11.9778C151.921 11.9778 151.185 12.1617 150.45 12.5907C149.714 13.0198 149.163 13.5714 148.734 14.3682C148.305 15.1037 148.121 15.9617 148.121 16.9424C148.121 17.9231 148.305 18.7811 148.734 19.5166C149.163 20.2521 149.714 20.865 150.45 21.2941C151.185 21.7231 151.921 21.907 152.718 21.907C153.515 21.907 154.25 21.7231 154.985 21.2941Z" fill="#E4E8EF"/>
<path d="M6.90604 10.3236L1.63501 14.0011V10.3849L16.4674 0.762207V5.23645L11.2577 8.73004L9.05123 30.9787L6.90604 10.3236Z" fill="#E4E8EF"/>
<path d="M18.1223 10.3231L12.8513 14.0006V10.3844L27.6838 0.761719V5.23596L22.474 8.72955L20.2675 30.9782L18.1223 10.3231Z" fill="#E4E8EF"/>
<path d="M43.1903 38.9474V34.5958L40.9225 38.1507H40.1257L37.9193 34.6571V38.9474H36.2644V31.6538H37.7354L40.5548 36.1893L43.3742 31.6538H44.8451V38.9474H43.1903Z" fill="#E4E8EF"/>
<path d="M55.9389 37.3527H52.384L51.7098 38.8849H49.9324L53.3034 31.5913H55.0195L58.4518 38.8849H56.6131L55.9389 37.3527ZM55.3873 36.0656L54.1615 33.2462L52.9356 36.0656H55.3873Z" fill="#E4E8EF"/>
<path d="M68.3808 38.9465L66.9098 36.9239H66.8485H65.3163V38.9465H63.5388V31.6528H66.8485C67.5227 31.6528 68.1356 31.7754 68.626 31.9593C69.1163 32.2045 69.4841 32.4496 69.7905 32.8787C70.0357 33.2464 70.2195 33.7367 70.2195 34.2883C70.2195 34.84 70.097 35.269 69.7905 35.698C69.5453 36.0658 69.1163 36.3722 68.626 36.6174L70.3421 38.9465H68.3808V38.9465ZM67.9518 33.369C67.7066 33.1238 67.2776 33.0625 66.726 33.0625H65.3163V35.5755H66.726C67.2776 35.5755 67.6453 35.4529 67.9518 35.269C68.1969 35.0238 68.3808 34.7174 68.3808 34.3496C68.3808 33.8593 68.2582 33.5529 67.9518 33.369Z" fill="#E4E8EF"/>
<path d="M78.6163 36.0658L77.5743 37.1077V38.9465H75.7969V31.6528H77.5743V35.0851L80.9453 31.6528H82.9066L79.7808 34.9013L83.0905 38.9465H81.0066L78.6163 36.0658Z" fill="#E4E8EF"/>
<path d="M94.0617 37.5981V38.9465H88.1777V31.6528H93.9391V33.0012H89.9552V34.5948H93.5101V35.8819H89.9552V37.5981H94.0617Z" fill="#E4E8EF"/>
<path d="M101.355 33.0012H98.9038V31.6528H105.523V33.0012H103.072V38.9465H101.294V33.0012H101.355Z" fill="#E4E8EF"/>
<path d="M110.794 31.6528H112.572V38.9465H110.794V31.6528Z" fill="#E4E8EF"/>
<path d="M125.688 31.6528V38.9465H124.217L120.417 34.4722V38.8852H118.701V31.6528H120.172L123.972 36.0658V31.6528H125.688Z" fill="#E4E8EF"/>
<path d="M136.904 35.1462H138.498V38.1495C138.069 38.4559 137.579 38.7011 137.088 38.8237C136.537 39.0075 135.985 39.0688 135.433 39.0688C134.637 39.0688 133.962 38.885 133.288 38.5785C132.675 38.2721 132.185 37.7817 131.817 37.2301C131.45 36.6785 131.266 36.0043 131.266 35.2688C131.266 34.5333 131.45 33.9204 131.817 33.3075C132.185 32.7559 132.675 32.2655 133.288 31.9591C133.901 31.6526 134.637 31.4688 135.433 31.4688C136.108 31.4688 136.721 31.5913 137.272 31.7752C137.824 32.0204 138.253 32.3268 138.621 32.6946L137.517 33.6752C136.966 33.1236 136.291 32.8784 135.556 32.8784C135.066 32.8784 134.637 33.001 134.269 33.1849C133.901 33.3688 133.595 33.6752 133.411 33.9817C133.227 34.3494 133.104 34.7172 133.104 35.2075C133.104 35.6365 133.227 36.0656 133.411 36.4333C133.595 36.8011 133.901 37.0462 134.269 37.2914C134.637 37.4753 135.066 37.5979 135.556 37.5979C136.046 37.5979 136.537 37.4753 136.904 37.2914V35.1462V35.1462Z" fill="#E4E8EF"/>
<path d="M24.0063 14.2461L23.2095 18.7203C24.5579 20.5591 25.4159 22.8268 25.4159 25.2785C25.4159 31.1624 20.574 36.0044 14.69 36.0044C8.80608 36.0044 3.96408 31.1624 3.96408 25.2785C3.96408 22.9494 4.69958 20.8042 5.98669 19.0268L5.1899 14.43C2.18664 17.0655 0.286621 20.9881 0.286621 25.2785C0.286621 33.2463 6.72218 39.6819 14.69 39.6819C22.6579 39.6819 29.0934 33.2463 29.0934 25.2785C29.0934 20.8655 27.1321 16.8816 24.0063 14.2461Z" fill="#E4E8EF"/>
</svg>
