<svg width="21" height="18" viewBox="0 0 21 18" fill="none" xmlns="http://www.w3.org/2000/svg">
<path d="M20.8648 2.96675C20.1 3.30624 19.2782 3.53488 18.4156 3.63794C19.2964 3.11051 19.9727 2.27478 20.2906 1.27882C19.467 1.76727 18.5541 2.12235 17.5824 2.31375C16.8056 1.48494 15.6962 0.967041 14.4699 0.967041C11.7167 0.967041 9.6936 3.53574 10.3154 6.20231C6.77242 6.02477 3.63039 4.32731 1.52676 1.74735C0.409555 3.66392 0.947371 6.17113 2.84575 7.44076C2.14772 7.41824 1.48952 7.22684 0.915327 6.90727C0.868561 8.88273 2.28455 10.7309 4.33536 11.1423C3.73518 11.3051 3.07785 11.3432 2.40926 11.215C2.95141 12.909 4.52589 14.1414 6.39309 14.176C4.60037 15.5816 2.34171 16.2095 0.0795898 15.9428C1.96671 17.1526 4.20891 17.8585 6.61653 17.8585C14.5339 17.8585 19.0071 11.1717 18.7369 5.17431C19.57 4.5724 20.2932 3.82154 20.8648 2.96675Z" fill="#FFE3CF"/>
</svg>
